<svg width="24" height="24" viewBox="0 0 24 24" fill="none" xmlns="http://www.w3.org/2000/svg">
<path d="M12 0C8.8174 0 5.76515 1.26428 3.51472 3.51472C1.26428 5.76515 0 8.8174 0 12C0 15.1826 1.26428 18.2348 3.51472 20.4853C5.76515 22.7357 8.8174 24 12 24C15.1826 24 18.2348 22.7357 20.4853 20.4853C22.7357 18.2348 24 15.1826 24 12C24 8.8174 22.7357 5.76515 20.4853 3.51472C18.2348 1.26428 15.1826 0 12 0ZM18.6615 12.6907C18.5138 12.885 18.3092 13.0282 18.0761 13.1005L16.1912 13.7327C15.6152 13.9295 15.091 14.2537 14.6576 14.681C14.227 15.1119 13.9024 15.6369 13.7093 16.2146L13.0654 18.0995C12.9787 18.3121 12.8374 18.4979 12.6556 18.638C12.4612 18.7788 12.2283 18.8565 11.9883 18.8605C11.7471 18.864 11.5118 18.7856 11.321 18.638C11.1263 18.4983 10.9792 18.3021 10.8995 18.0761L10.279 16.1912C10.0862 15.6115 9.76016 15.085 9.32711 14.6539C8.89406 14.2229 8.36602 13.8994 7.78537 13.7093L5.9122 13.0888C5.68615 13.0091 5.49001 12.862 5.35024 12.6673C5.20431 12.4756 5.12608 12.2409 5.1278 12C5.12938 11.756 5.20715 11.5186 5.35024 11.321C5.4847 11.1312 5.67817 10.9912 5.90049 10.9229L7.78537 10.2907C8.36801 10.0934 8.89976 9.76957 9.34244 9.34244C9.77561 8.90458 10.0999 8.37073 10.2907 7.78537L10.9229 5.93561C10.9931 5.71411 11.1276 5.51849 11.3093 5.37366C11.496 5.21598 11.7322 5.12896 11.9766 5.1278C12.2089 5.12381 12.4371 5.18902 12.6322 5.31512C12.8382 5.4432 12.995 5.63708 13.0771 5.86537L13.7093 7.77366C13.906 8.36254 14.2338 8.89873 14.6693 9.34244C15.1093 9.76721 15.6367 10.0908 16.2146 10.2907L18.0995 10.9463C18.3235 11.0177 18.5172 11.162 18.6498 11.3561C18.7864 11.5518 18.8599 11.7847 18.8605 12.0234C18.8593 12.2599 18.7902 12.4917 18.6615 12.6907Z" fill="#EE46BC"/>
</svg>
