<svg width="72" height="72" viewBox="0 0 72 72" fill="none" xmlns="http://www.w3.org/2000/svg">
<rect x="0.5" y="0.5" width="71" height="71" rx="11.5" fill="#EE46BC" fill-opacity="0.1"/>
<rect x="0.5" y="0.5" width="71" height="71" rx="11.5" stroke="#2F2F2F" stroke-dasharray="7 7"/>
<path d="M41.3183 32.8881C41.8792 31.8915 42.3469 30.9923 42.6354 30.3078C44.036 26.9842 42.651 23.1612 39.2654 21.6017C35.8798 20.0422 32.4801 21.6592 30.9881 24.7814C28.1349 22.8236 24.3288 23.1111 22.2298 26.1664C20.1309 29.2216 20.7896 33.213 23.6644 35.3911C24.9692 36.3795 27.5495 37.8363 29.9789 39.1327M42.4458 35.6249C41.8127 32.223 38.918 29.735 35.2735 30.4112C31.6289 31.0875 29.2723 34.3756 29.765 37.9485C30.1609 40.8191 32.3459 47.5541 33.1896 50.091C33.3047 50.4372 33.3623 50.6103 33.4763 50.731C33.5756 50.8361 33.7076 50.9123 33.8483 50.9458C34.0098 50.9841 34.1885 50.9474 34.5459 50.874C37.1648 50.3363 44.09 48.861 46.7739 47.7686C50.1144 46.4088 51.8384 42.7262 50.5471 39.2295C49.2559 35.7328 45.7085 34.4723 42.4458 35.6249Z" stroke="#EE46BC" stroke-width="2" stroke-linecap="round" stroke-linejoin="round"/>
</svg>
