<svg width="72" height="72" viewBox="0 0 72 72" fill="none" xmlns="http://www.w3.org/2000/svg">
<rect x="0.5" y="0.5" width="71" height="71" rx="11.5" fill="#EE46BC" fill-opacity="0.1"/>
<rect x="0.5" y="0.5" width="71" height="71" rx="11.5" stroke="#2F2F2F" stroke-dasharray="7 7"/>
<path d="M35.5605 22.5547C29.0763 23.1543 23.9994 28.6093 23.9994 35.25C23.9994 36.675 24.2332 38.0454 24.6645 39.3249C24.8268 39.8064 24.9079 40.0472 24.9226 40.2321C24.937 40.4148 24.9261 40.5429 24.8809 40.7204C24.8352 40.9002 24.7341 41.0872 24.5321 41.4612L22.0786 46.0025C21.7286 46.6503 21.5536 46.9742 21.5928 47.2242C21.6269 47.4419 21.7551 47.6336 21.9432 47.7484C22.1592 47.8801 22.5254 47.8423 23.2577 47.7666L30.9393 46.9725C31.1718 46.9485 31.2882 46.9365 31.3942 46.9405C31.4985 46.9445 31.5721 46.9543 31.6738 46.9777C31.7772 47.0016 31.9072 47.0516 32.1672 47.1518C33.5892 47.6997 35.1343 48 36.7494 48C43.3956 48 48.8541 42.9147 49.4462 36.4229M48.1814 23.818C49.9388 25.5754 49.9388 28.4246 48.1814 30.182C46.4241 31.9393 43.5748 31.9393 41.8175 30.182C40.0601 28.4246 40.0601 25.5754 41.8175 23.818C43.5748 22.0607 46.4241 22.0607 48.1814 23.818Z" stroke="#EE46BC" stroke-width="2" stroke-linecap="round" stroke-linejoin="round"/>
</svg>
