<svg width="469" height="436" viewBox="0 0 469 436" fill="none" xmlns="http://www.w3.org/2000/svg">
<path d="M402.409 201.649C402.391 201.684 402.355 201.72 402.321 201.756C400.242 204.012 397.56 205.593 394.717 206.908C385.617 200.317 387.469 186.317 398.234 186.317C406.201 186.317 407.757 195.744 402.409 201.649Z" fill="#EE46BC"/>
<path d="M419.127 280.901H419.695C417.156 286.685 414.147 292.272 410.955 297.227C406.589 289.091 410.608 281.161 419.127 280.901Z" fill="#EE46BC"/>
<path d="M382.582 267.022C376.997 269.179 377.436 275.709 382.034 275.278C383.349 275.132 384.499 274.402 385.029 273.36C386.214 271.111 384.756 267.892 382.582 267.022ZM382.582 267.022C376.997 269.179 377.436 275.709 382.034 275.278C383.349 275.132 384.499 274.402 385.029 273.36C386.214 271.111 384.756 267.892 382.582 267.022ZM296.771 215.185C296.552 216.172 296.314 217.139 296.113 218.144C300.661 220.244 305.685 221.45 310.524 223.057C308.68 216.348 302.799 212.298 296.771 215.185ZM312.57 187.695C304.655 194.067 300.062 203.203 297.319 213.03C303.423 210.996 310.521 214.583 312.515 223.734C312.972 223.916 313.429 224.062 313.867 224.245C318.105 225.907 322.397 228.537 325.246 232.026C335.789 219.195 331.554 197.189 312.57 187.695ZM326.415 296.759C321.207 298.086 316.718 302.313 311.018 301.873C303.383 301.27 299.328 292.721 298.177 285.544C296.844 277.251 297.264 268.648 299.346 260.465C297.3 261.159 295.291 261.872 293.245 262.584C293.436 286.68 295.627 292.225 294.852 303.936C294.67 306.841 294.031 309.927 294.195 312.777C294.36 316.101 294.323 317.343 290.469 318.33C286.596 319.316 283.82 324.522 288.46 326.512C289.884 327.114 292.515 326.641 294.031 326.641H340.114C353.523 310.984 338.804 293.618 326.415 296.759ZM382.582 267.022C376.997 269.179 377.436 275.709 382.034 275.278C383.349 275.132 384.499 274.402 385.029 273.36C386.214 271.111 384.756 267.892 382.582 267.022ZM382.582 267.022C376.997 269.179 377.436 275.709 382.034 275.278C383.349 275.132 384.499 274.402 385.029 273.36C386.214 271.111 384.756 267.892 382.582 267.022ZM354.581 227.094C350.136 226.197 346.117 229.289 346.325 236.044C348.153 240.078 353.004 241.343 356.207 239.661C361.361 237.024 361.329 228.495 354.581 227.094ZM382.582 267.022C376.997 269.179 377.436 275.709 382.034 275.278C383.349 275.132 384.499 274.402 385.029 273.36C386.214 271.111 384.756 267.892 382.582 267.022ZM382.582 267.022C376.997 269.179 377.436 275.709 382.034 275.278C383.349 275.132 384.499 274.402 385.029 273.36C386.214 271.111 384.756 267.892 382.582 267.022ZM354.581 227.094C350.136 226.197 346.117 229.289 346.325 236.044C348.153 240.078 353.004 241.343 356.207 239.661C361.361 237.024 361.329 228.495 354.581 227.094ZM354.581 227.094C350.136 226.197 346.117 229.289 346.325 236.044C348.153 240.078 353.004 241.343 356.207 239.661C361.361 237.024 361.329 228.495 354.581 227.094ZM382.582 267.022C376.997 269.179 377.436 275.709 382.034 275.278C383.349 275.132 384.499 274.402 385.029 273.36C386.214 271.111 384.756 267.892 382.582 267.022ZM382.582 267.022C376.997 269.179 377.436 275.709 382.034 275.278C383.349 275.132 384.499 274.402 385.029 273.36C386.214 271.111 384.756 267.892 382.582 267.022ZM354.581 227.094C350.136 226.197 346.117 229.289 346.325 236.044C348.153 240.078 353.004 241.343 356.207 239.661C361.361 237.024 361.329 228.495 354.581 227.094ZM354.581 227.094C350.136 226.197 346.117 229.289 346.325 236.044C348.153 240.078 353.004 241.343 356.207 239.661C361.361 237.024 361.329 228.495 354.581 227.094ZM382.582 267.022C376.997 269.179 377.436 275.709 382.034 275.278C383.349 275.132 384.499 274.402 385.029 273.36C386.214 271.111 384.756 267.892 382.582 267.022ZM382.582 267.022C376.997 269.179 377.436 275.709 382.034 275.278C383.349 275.132 384.499 274.402 385.029 273.36C386.214 271.111 384.756 267.892 382.582 267.022ZM354.581 227.094C350.136 226.197 346.117 229.289 346.325 236.044C348.153 240.078 353.004 241.343 356.207 239.661C361.361 237.024 361.329 228.495 354.581 227.094ZM354.581 227.094C350.136 226.197 346.117 229.289 346.325 236.044C348.153 240.078 353.004 241.343 356.207 239.661C361.361 237.024 361.329 228.495 354.581 227.094ZM382.582 267.022C376.997 269.179 377.436 275.709 382.034 275.278C383.349 275.132 384.499 274.402 385.029 273.36C386.214 271.111 384.756 267.892 382.582 267.022ZM382.582 267.022C376.997 269.179 377.436 275.709 382.034 275.278C383.349 275.132 384.499 274.402 385.029 273.36C386.214 271.111 384.756 267.892 382.582 267.022ZM354.581 227.094C350.136 226.197 346.117 229.289 346.325 236.044C348.153 240.078 353.004 241.343 356.207 239.661C361.361 237.024 361.329 228.495 354.581 227.094ZM354.581 227.094C350.136 226.197 346.117 229.289 346.325 236.044C348.153 240.078 353.004 241.343 356.207 239.661C361.361 237.024 361.329 228.495 354.581 227.094ZM382.582 267.022C376.997 269.179 377.436 275.709 382.034 275.278C383.349 275.132 384.499 274.402 385.029 273.36C386.214 271.111 384.756 267.892 382.582 267.022ZM382.582 267.022C376.997 269.179 377.436 275.709 382.034 275.278C383.349 275.132 384.499 274.402 385.029 273.36C386.214 271.111 384.756 267.892 382.582 267.022ZM354.581 227.094C350.136 226.197 346.117 229.289 346.325 236.044C348.153 240.078 353.004 241.343 356.207 239.661C361.361 237.024 361.329 228.495 354.581 227.094ZM382.582 267.022C376.997 269.179 377.436 275.709 382.034 275.278C383.349 275.132 384.499 274.402 385.029 273.36C386.214 271.111 384.756 267.892 382.582 267.022ZM382.582 267.022C376.997 269.179 377.436 275.709 382.034 275.278C383.349 275.132 384.499 274.402 385.029 273.36C386.214 271.111 384.756 267.892 382.582 267.022ZM382.582 267.022C376.997 269.179 377.436 275.709 382.034 275.278C383.349 275.132 384.499 274.402 385.029 273.36C386.214 271.111 384.756 267.892 382.582 267.022ZM382.582 267.022C376.997 269.179 377.436 275.709 382.034 275.278C383.349 275.132 384.499 274.402 385.029 273.36C386.214 271.111 384.756 267.892 382.582 267.022ZM354.581 227.094C350.136 226.197 346.117 229.289 346.325 236.044C348.153 240.078 353.004 241.343 356.207 239.661C361.361 237.024 361.329 228.495 354.581 227.094ZM382.582 267.022C376.997 269.179 377.436 275.709 382.034 275.278C383.349 275.132 384.499 274.402 385.029 273.36C386.214 271.111 384.756 267.892 382.582 267.022ZM421.195 271.845C411.021 268.87 396.123 264.523 384.864 266.402C388.746 269.834 387.838 276.443 382.216 277.032C380.444 277.215 378.856 276.611 377.833 275.406C375.605 272.694 377.005 268.279 379.805 266.492C375.436 266.602 372.537 270.433 371.659 274.821C371.092 277.671 371.33 280.666 371.64 283.224C371.696 283.717 371.348 284.156 370.855 284.21C370.614 284.328 369.963 284.051 369.887 283.442C369.558 280.739 369.302 277.58 369.923 274.493C371.432 266.738 377.651 263.389 382.636 265.123C392.879 261.89 411.584 267.185 421.687 270.128C422.851 270.499 422.266 272.187 421.195 271.845ZM357.01 241.25C353.759 242.93 349.595 242.2 346.891 239.788C347.815 243.483 349.921 247.657 350.525 251.862C350.708 253.046 348.911 253.255 348.772 252.099C347.948 246.5 344.856 242.214 344.571 236.391C341.362 228.069 349.559 220.546 348.809 212.847C348.334 207.787 343.53 203.44 338.397 203.678C337.119 203.531 337.269 201.947 338.343 201.906C344.297 201.705 350.014 206.747 350.581 212.682C351.156 218.693 347.356 223.616 346.051 229.25C347.871 226.078 351.301 224.617 354.946 225.341C363.433 227.191 363.53 237.871 357.01 241.25ZM415.185 244.903C399.011 253.262 384.656 249.869 377.248 241.615C371.165 234.82 370.49 223.989 375.732 217.487C380.142 211.986 387.355 210.056 392.847 207.714C383.546 199.759 385.925 185.479 397.322 184.573C407.641 183.75 410.616 195.998 403.222 203.367C401.267 205.358 398.947 206.838 396.481 208.043C403.845 212.149 416.582 212.114 427.587 204.591C422.198 181.553 409.532 169.832 386.253 170.635C386.893 173.375 387.513 176.17 387.879 178.91C388.244 181.541 386.362 184.573 382.307 187.878C379.404 190.235 375.987 192.006 372.682 193.723C369.302 195.477 365.795 197.303 361.996 197.833C358.179 198.381 353.558 197.486 352.407 194.253C350.414 188.685 349.018 182.16 347.878 178.764C350.134 177.966 352.524 176.745 354.453 175.311C352.772 175.622 351.073 175.915 349.393 176.225C345.466 178.07 341.174 178.818 337.101 178.453C328.186 179.974 321.509 181.163 314.141 186.49C333.19 196.534 338.81 220.516 325.192 234.766L316.023 274.748C312.972 269.178 310.872 263.095 309.794 256.848C307 257.817 304.187 258.784 301.374 259.753C299.109 268.027 298.579 276.831 299.93 285.251C300.99 291.79 304.552 299.589 311.164 300.101C316.118 300.461 320.813 296.339 325.959 295.042C339.45 291.585 355.458 309.526 342.379 326.641H378.71C400.654 326.641 403.107 327.994 406.893 324.868C410.194 322.16 410.582 318.65 409.157 316.485C407.55 314.001 405.468 315.278 403.239 314.567C401.735 314.081 400.617 312.392 401.285 310.383C401.997 308.229 404.555 306.403 405.76 304.796C407.185 302.877 408.573 300.923 409.888 298.914C403.763 288.934 409.623 278.343 420.464 279.168C426.462 265.099 430.056 249.326 430.437 233.451C427.005 237.674 420.005 242.417 415.185 244.903Z" fill="#EE46BC"/>
<path d="M429.75 217.336C430.124 220.57 430.336 223.802 430.426 227.036C428.454 227.072 426.428 226.929 424.598 226.236C419.789 224.396 418.107 218.946 422.769 216.59C424.971 215.469 427.999 215.585 429.75 217.336Z" fill="#EE46BC"/>
<path d="M430.479 230.323C427.496 235.257 419.813 240.406 415.218 242.865C399.529 251.438 385.533 248.215 378.568 240.431C373.042 234.249 372.385 224.461 377.111 218.58C381.29 213.375 388.664 211.505 394.521 208.933C402.27 213.943 416.018 214.325 427.992 206.446C428.207 207.274 428.989 211.252 429.448 214.955C425.087 212.58 418.439 215.253 418.238 220.357C418.113 223.999 421.116 226.823 423.976 227.907C426.091 228.689 428.311 228.848 430.46 228.813C430.479 229.31 430.479 229.825 430.479 230.323Z" fill="#EE46BC"/>
<path d="M402.409 201.649L395.41 186.744C398.253 185.82 401.859 186.305 403.866 188.751C406.887 192.393 405.482 198.255 402.409 201.649Z" fill="#EE46BC"/>
<path d="M441.387 185.376C436.996 202.083 419.912 211.855 406.673 210.728L403.226 203.373C407.341 199.264 408.99 192.162 405.234 187.615C402.688 184.544 398.356 183.897 394.645 185.109L387.842 170.595C389.469 170.754 421.539 169.477 441.387 185.376Z" fill="#EE46BC"/>
<path d="M431.97 227C429.68 227.159 426.755 227.053 424.598 226.236C419.789 224.396 418.107 218.946 422.769 216.59C428.655 213.593 433.955 219.696 431.97 227Z" fill="#EE46BC"/>
<path d="M463.131 225.331C460.066 225.494 474.102 224.746 433.818 226.894C434.725 222.844 433.801 217.887 430.052 215.311C425.373 212.338 418.443 215.164 418.238 220.356C418.092 224.665 422.354 229.391 431.296 228.794C429.512 232.614 426.317 235.404 422.911 237.926C420.299 239.862 417.741 241.515 415.218 242.865C415.271 238.086 415.307 233.36 415.218 228.937L407.526 212.539C421.866 212.988 437.96 203.148 442.897 186.655C447.142 190.333 450.731 194.827 453.396 200.281C457.341 208.382 460.644 216.768 463.131 225.331Z" fill="#EE46BC"/>
<path d="M430.994 286.195C435.755 292.076 436.145 300.266 435.382 306.838C425.473 307.221 415.716 305.911 410.955 297.227C406.589 289.091 410.608 281.161 419.127 280.901C419.309 280.943 426.359 280.48 430.994 286.195Z" fill="#EE46BC"/>
<path d="M382.033 275.269C377.504 275.749 376.953 269.153 382.583 267.026C386.11 268.443 386.843 274.749 382.033 275.269Z" fill="#EE46BC"/>
<path d="M467.768 248.586C451.233 251.893 443.051 272.171 450.322 286.213C452.733 290.775 456.091 294.887 455.013 299.2C453.395 305.778 443.564 306.362 437.176 306.75C439.264 287.662 429.448 278.742 419.073 279.142C408.712 279.413 404.2 289.671 409.888 298.915C415.116 307.494 425.105 308.993 435.151 308.615C434.668 311.511 434.449 312.054 433.179 316.236C431.51 316.094 429.874 315.899 428.329 315.686C419.233 314.407 408.728 314.934 399.827 312.696C382.577 308.344 367.233 299.91 351.244 292.111C353.661 280.883 356.077 269.673 358.492 258.445C367.233 260.507 375.974 262.584 384.715 264.645C384.022 264.752 383.329 264.912 382.636 265.125C377.589 263.35 371.412 266.808 369.915 274.488C369.294 277.579 369.56 280.741 369.881 283.441C369.956 284.073 370.634 284.317 370.858 284.206C371.355 284.152 371.692 283.708 371.639 283.229C371.337 280.67 371.089 277.668 371.656 274.825C372.536 270.433 375.428 266.599 379.811 266.493C377.206 268.013 375.489 272.568 377.839 275.412C380.095 278.104 384.948 277.357 386.616 274.203C387.912 271.68 387.077 268.358 384.856 266.404C386.688 266.112 388.936 266.014 390.791 266.014C402.603 268.205 394.926 264.158 421.187 271.84C422.282 272.178 422.837 270.489 421.685 270.135C417.35 268.874 412.766 267.541 408.059 266.457C410.332 266.28 412.678 266.031 415.129 265.8C414.987 259.245 415.112 252.032 415.183 244.908C418.06 243.416 420.974 241.568 423.958 239.365C427.843 236.475 431.418 233.288 433.232 228.777C433.251 228.759 433.268 228.741 433.268 228.706L463.629 227.089C465.601 234.16 467.004 241.337 467.768 248.586Z" fill="#EE46BC"/>
<path d="M462.599 297.139C457.763 311.136 451.567 317.213 435.009 316.361C435.46 314.547 436.158 313.409 436.962 308.544C444.669 308.117 454.873 307.263 456.736 299.626C458.028 294.479 454.281 289.973 451.904 285.395C445.269 272.617 452.498 253.651 467.946 250.363C469.402 265.942 467.893 281.736 462.599 297.139Z" fill="#EE46BC"/>
<path d="M71.9844 96.9176C69.5209 97.5048 68.1787 100.625 69.4301 102.813C70.0071 103.823 71.5551 102.952 70.9734 101.932C70.3076 100.768 71.0888 98.956 72.3951 98.6477C73.5271 98.3775 73.1414 96.6561 71.9844 96.9176Z" fill="#D0D5DD"/>
<path d="M122.177 85.0686C121.25 83.8822 117.965 84.8986 114.842 87.3379C111.717 89.7794 109.938 92.7199 110.867 93.9085C111.794 95.096 115.078 94.0806 118.203 91.6391C121.326 89.1976 123.105 86.2572 122.177 85.0686Z" fill="#D0D5DD"/>
<path d="M121.028 94.7486C119.948 94.7998 119.147 96.4253 119.24 98.3798C119.333 100.333 120.284 101.876 121.363 101.825C122.443 101.775 123.244 100.148 123.151 98.1946C123.059 96.2411 122.107 94.6985 121.028 94.7486Z" fill="#D0D5DD"/>
<path d="M140.34 104.353C141.419 104.303 142.22 102.677 142.127 100.723C142.035 98.7697 141.085 97.227 140.004 97.2772C138.924 97.3284 138.124 98.9539 138.216 100.908C138.31 102.862 139.26 104.404 140.34 104.353Z" fill="#D0D5DD"/>
<path d="M121.139 123.943C122.249 123.943 122.346 122.293 121.236 122.171C117.936 121.812 116.115 118.053 117.942 115.234C118.582 114.245 117.09 113.284 116.452 114.266C113.733 118.466 117.013 123.943 121.139 123.943Z" fill="#D0D5DD"/>
<path d="M106.182 388.195L102.899 401.853C102.068 395.712 100.877 389.589 99.3016 383.605C99.0064 382.476 97.2828 382.917 97.5835 384.059C101.655 399.533 101.065 405.384 101.855 406.192L100.336 412.514C100.059 413.658 101.791 414.068 102.062 412.928L107.908 388.608C108.183 387.472 106.457 387.043 106.182 388.195Z" fill="#D0D5DD"/>
<path d="M379.079 123.952C379.193 126.671 378.582 129.378 377.311 131.783C376.755 132.83 378.337 133.647 378.881 132.614C380.299 129.931 380.982 126.909 380.854 123.877C380.809 122.759 379.029 122.746 379.079 123.952Z" fill="#D0D5DD"/>
<path d="M337.156 120.619C333.804 118.765 330.516 118.295 329.811 119.57C329.106 120.846 331.252 123.381 334.605 125.235C337.957 127.089 341.247 127.559 341.95 126.284C342.655 125.008 340.511 122.473 337.156 120.619Z" fill="#D0D5DD"/>
<path d="M334.64 131.825C334.43 129.947 333.419 128.518 332.38 128.632C331.343 128.749 330.67 130.365 330.88 132.245C331.089 134.123 332.1 135.551 333.137 135.438C334.177 135.321 334.849 133.705 334.64 131.825Z" fill="#D0D5DD"/>
<path d="M314.656 133.933C313.618 134.049 312.945 135.667 313.154 137.545C313.365 139.423 314.373 140.853 315.413 140.738C316.451 140.623 317.123 139.006 316.915 137.127C316.705 135.247 315.694 133.818 314.656 133.933Z" fill="#D0D5DD"/>
<path d="M337.084 146.019C337.435 147.805 336.277 149.812 334.554 150.403C333.458 150.779 333.998 152.464 335.13 152.083C337.691 151.206 339.351 148.331 338.826 145.676C338.603 144.53 336.855 144.862 337.084 146.019Z" fill="#D0D5DD"/>
<path d="M380.225 138.89C379.86 139.073 379.677 139.476 379.769 139.878C381.102 145.539 382.234 151.347 383.349 156.973C385.812 170.148 387.081 172.931 387.879 178.91C388.244 181.541 386.362 184.573 382.307 187.878C379.404 190.235 375.987 192.006 372.682 193.723C369.302 195.477 365.795 197.303 361.996 197.833C358.179 198.381 353.558 197.486 352.407 194.253C350.414 188.685 349.018 182.16 347.878 178.764C357.229 175.457 363.92 166.981 367.111 157.503C367.5 156.422 365.832 155.82 365.43 156.936C361.055 169.831 350.359 179.642 337.101 178.453C326.491 177.502 320.521 169.52 316.406 159.586C312.679 150.58 310.58 140.663 310.232 130.726C313.335 129.315 317.661 125.615 316.515 123.804C315.821 122.708 313.118 123.128 310.214 124.716C310.288 121.228 310.524 117.758 311.182 114.47C321.064 114.251 332.352 106.981 333.704 97.3556C332.698 104.566 340.042 115.585 351.932 118.542C353.923 119.055 355.968 119.109 357.539 117.612C358.252 116.954 358.435 116.06 359.439 115.858C360.535 115.639 361.923 116.735 362.544 117.502C363.567 118.744 364.024 120.352 364.426 121.903C368.185 135.653 368.097 135.281 368.956 135.348C369.431 135.348 369.869 134.981 369.887 134.489C369.979 131.932 370.088 129.302 370.8 126.854C372.261 121.922 375.841 119.311 381.467 119.073C384.864 118.909 388.134 120.826 389.267 123.603C390.217 125.941 389.759 128.936 388.043 131.42C386.362 133.868 382.728 137.54 380.225 138.89ZM389.504 132.424C392.354 128.277 392.435 122.753 388.262 119.493C386.509 111.128 383.074 102.908 378.143 95.7846C392.185 94.5371 400.947 81.4788 398.856 68.3681C396.402 53.3183 381.351 44.4837 367.824 49.0432C357.32 52.5545 349.608 63.5887 353.175 76.6612C346.306 74.7067 338.891 74.6522 332.133 77.0261C333.1 70.5961 329.064 63.7466 322.945 61.5002C309.63 56.5867 298.926 72.7337 295.127 83.0531C293.026 88.7891 291.62 95.0721 293.209 100.954C295.088 107.891 301.494 113.907 309.374 114.416C308.68 118.105 308.478 121.978 308.405 125.85C303.398 129.446 303.325 133.069 308.478 131.439C308.899 141.374 311.036 151.257 314.762 160.261C319.49 171.68 326.657 180.316 339.11 180.316C341.485 180.316 343.896 179.97 346.234 179.293C346.876 181.218 348.795 189.434 350.727 194.838C352.226 199.049 357.828 200.234 362.252 199.587C366.343 199.02 370.143 197.047 373.503 195.294C376.883 193.54 380.39 191.733 383.422 189.248C388.006 185.522 390.107 181.96 389.65 178.672C388.788 172.642 388.117 172.063 385.084 156.644C384.024 151.201 382.929 145.594 381.65 140.115C384.353 138.434 387.806 134.927 389.504 132.424Z" fill="#FCCEEE"/>
<path d="M381.75 323.078C295.64 326.573 298.813 326.887 295.271 325.718C295.178 325.175 294.59 324.715 293.921 325.167C292.155 324.192 290.555 322.406 290.64 320.244C290.733 317.907 292.688 315.981 294.263 313.947C296.11 311.567 297.427 308.127 295.583 305.612C294.887 304.662 293.457 305.715 294.151 306.661C295.409 308.38 294.309 310.99 292.859 312.86C291.151 315.062 288.983 317.202 288.866 320.172C288.741 323.286 291.081 325.76 293.51 326.942C292.91 360.771 297.016 394.492 305.737 427.187C306.038 428.326 307.759 427.873 307.453 426.731C298.829 394.396 294.742 361.051 295.279 327.595C299.04 328.634 295.807 328.378 381.823 324.855C383.003 324.804 382.916 323.026 381.75 323.078Z" fill="#D0D5DD"/>
<path d="M409.354 324.886C415.453 361.608 411.457 399.323 397.798 433.954C397.369 435.049 399.021 435.699 399.452 434.608C413.228 399.677 417.258 361.635 411.108 324.594C410.913 323.418 409.165 323.737 409.354 324.886Z" fill="#D0D5DD"/>
<path d="M362.382 362.543L358.155 376.477C357.675 371.168 356.736 365.903 355.308 360.773C354.995 359.647 353.28 360.117 353.598 361.252C357.17 374.078 357.724 387.768 355.199 400.843C354.977 401.997 356.721 402.334 356.943 401.179C358.27 394.311 358.748 387.276 358.417 380.278C359.353 379.996 358.641 380.359 364.081 363.06C364.425 361.93 362.72 361.424 362.382 362.543Z" fill="#D0D5DD"/>
<path d="M310.753 257.072L314.956 254.815C315.989 254.262 315.157 252.695 314.116 253.248L308.029 256.518C305.594 257.355 288.075 263.366 285.655 264.372C283.239 265.379 279.595 266.902 277.846 266.264C276.396 265.724 274.054 261.999 275.314 260.311C280.74 254.891 286.66 249.92 292.965 245.554C293.932 244.887 292.922 243.426 291.954 244.095C282.454 250.669 273.267 259.442 272.808 260.359C271.358 261.813 269.995 263.021 268.39 263.899C266.132 265.116 263.678 265.364 261.834 264.561C258.422 263.059 257.453 258.32 258.69 254.831C261.015 248.209 272.009 240.619 280.701 233.876C281.633 233.151 280.529 231.751 279.61 232.473C248.893 256.679 234.64 271.009 230.471 272.441C229.017 272.936 227.03 272.912 225.859 271.742C224.597 270.496 224.662 268.359 225.258 266.896C225.997 265.068 227.474 263.571 228.782 262.246C269.254 220.922 267.083 222.524 268.85 220.773C269.686 219.943 268.431 218.681 267.599 219.51C266.592 220.509 265.567 221.671 264.303 223.092C264.508 220.356 264.531 217.454 263.733 214.678C262.608 210.712 259.598 207.269 255.544 206.748C262.239 204.047 264.633 206.365 264.809 204.569C264.858 204.081 264.501 203.645 264.013 203.597C259.625 203.166 254.674 204.604 250.045 207.649C246.236 209.243 243.281 212.148 239.559 212.987C237.185 213.498 234.084 212.835 233 210.575C231.678 207.81 234.056 204.465 235.139 203.158C244.524 191.818 260.885 190.104 272.384 198.287C281 204.41 284.646 213.75 295.743 218.941C305.602 223.523 318.41 224.091 324.979 233.102C325.013 233.148 325.061 233.175 325.1 233.213C322.898 243.265 317.063 266.195 315.691 272.088C313.357 267.32 311.679 262.291 310.753 257.072ZM214.671 272.483C210.595 270.009 203.91 257.805 173.467 220.792C172.714 219.886 171.35 221.026 172.101 221.926C179.033 230.203 188.994 241.041 189.887 248.218C190.364 252.066 188.309 256.699 184.488 257.464C182.403 257.872 179.948 257.08 177.917 255.325C176.439 254.05 175.275 252.426 174.199 250.755C173.973 249.625 166.283 238.453 158.297 229.889C157.496 229.03 156.197 230.241 156.999 231.102C163.051 237.592 168.563 244.994 171.741 250.185V250.186C172.718 251.762 169.537 255.395 167.774 255.638C165.841 255.876 162.469 253.539 160.233 251.975C158.326 250.639 161.078 252.363 139.117 238.952L133.672 234.29C132.781 233.523 131.623 234.873 132.516 235.638L136.317 238.893C132.176 248.977 127.129 254.144 122.737 259.288C123.229 249.11 124.438 223.195 124.59 212.992C132.818 207.247 134.076 205.914 149.683 204.684C163.077 203.628 166.741 202.06 177.249 194.43C180.788 191.862 184.447 189.204 188.465 187.49C202.311 181.587 218.469 187.373 225.392 200.768C226.21 202.346 227.896 206.298 225.91 208.852C224.291 210.937 220.965 210.922 218.656 209.851C215.058 208.185 212.627 204.513 209.135 202.073C205.101 197.945 200.379 195.375 195.821 194.842C194.627 194.735 194.47 196.474 195.614 196.608C198.373 196.931 201.214 198.102 203.91 199.966C199.602 199.503 195.734 202.354 193.672 206.183C192.235 208.854 191.617 211.861 191.213 214.732C190.307 213.124 189.449 211.568 188.594 210.247C187.954 209.261 186.466 210.228 187.103 211.214C187.288 211.5 194.273 223.413 218.711 262.407C219.804 264.151 220.935 265.956 221.275 267.946C222.014 272.275 218.484 274.798 214.671 272.483ZM164.372 288.716C168.6 307.63 162.526 311.268 163.241 312.84C163.359 313.098 163.593 313.284 163.872 313.341C166.975 313.973 171.021 318.951 169.568 324.715C167.96 330.8 151.576 336.437 147.721 334.78C145.093 329.594 145.784 324.539 145.73 318.258C151.667 318.083 157.638 318.856 162.222 322.629C163.138 323.373 164.256 321.999 163.351 321.255C156.77 315.843 147.515 316.076 139.021 316.975C123.149 318.654 109.511 333.338 89.4921 338.632C58.3061 346.851 38.4331 349.894 32.9993 351.133C28.9662 352.059 24.7977 353.011 21.8207 350.23C20.473 348.971 20.1065 346.882 19.822 344.672C17.155 324.199 21.9281 303.714 20.1092 283.363C18.3947 264.213 10.4901 243.738 5.94641 225.084C1.84119 208.202 -1.44541 190.579 7.18339 176.935C15.3047 164.123 31.4974 159.147 47.3868 155.147C53.2961 153.621 62.7461 150.99 68.3108 153.196C71.7621 154.525 71.1825 155.272 71.5867 158.554C72.0791 162.493 72.6783 166.043 75.0316 169.61C81.5161 179.402 102.491 184.394 110.935 169.94C115.08 162.802 109.94 156.279 118.843 157.632C125.804 158.701 132.637 162.682 137.591 168.554C145.583 178.069 148.214 190.51 148.749 202.976C145.943 203.197 143.075 203.423 140.277 203.868C130.252 205.463 126.365 209.835 124.61 210.871C124.62 205.443 124.249 205.355 123.686 205.242C121.449 204.787 76.0884 202.237 70.4057 201.92L50.6537 162.518C50.1305 161.472 48.5374 162.26 49.0662 163.314L69.0483 203.177C69.1911 203.462 69.4747 203.647 69.7931 203.665C83.3355 204.421 117.746 206.394 122.784 206.913C123.297 213.077 120.675 265.285 120.356 271.511L53.6352 265.813C48.2849 265.357 43.3796 262.622 40.2536 258.432L13.1001 205.705C12.5697 204.666 10.9804 205.467 11.5214 206.519L38.7509 259.369C42.2568 264.091 47.6267 267.084 53.4836 267.583L121.119 273.359C121.656 273.396 122.058 272.994 122.084 272.52C122.087 272.438 122.298 268.322 122.597 262.205C127.668 256.129 133.187 250.891 137.72 240.181C137.92 240.303 152.707 249.333 151.868 248.821C155.014 263.078 161.034 273.833 164.372 288.716ZM126.438 106.215C118.64 114.8 108.04 106.692 109.44 93.5979C110.171 86.7593 114.91 79.0818 121.717 79.7889C131.198 80.8021 134.288 97.5701 126.438 106.215ZM61.7002 99.3525C61.4491 95.3323 63.4491 91.1074 67.2004 89.1529C71.1378 91.76 75.4489 93.1905 79.6967 93.5609C80.3264 95.2692 80.4223 97.1539 79.8372 98.8317C79.4483 99.9419 81.1261 100.526 81.5139 99.4168C82.1643 97.5527 82.1306 95.5306 81.5837 93.6437C95.7402 93.806 106.73 81.2935 106.847 68.5423C116.029 73.8535 127.519 75.8091 138.906 72.8447C139.758 75.0574 140.523 77.3082 141.188 79.5917C137.238 80.7716 133.865 84.5804 132.306 89.6334C131.093 83.3515 127.098 78.5774 121.906 78.0229C114.189 77.1666 108.534 85.3604 107.674 93.4094C106.734 102.193 111.348 111.514 119.353 111.514C125.283 111.514 129.82 106.254 131.656 100.402C131.84 104.415 132.692 109.897 131.87 111.366C131.635 111.787 131.017 112.17 130.638 111.96C129.617 111.382 128.741 112.929 129.768 113.508C131.053 114.228 132.704 113.513 133.421 112.233C134.023 111.154 134.006 109.932 133.991 108.951C133.97 107.429 133.885 106.15 133.784 104.953C136.441 109.347 140.571 110.983 144.483 110.028C143.741 121.048 140.81 135.859 132.131 142.697C120.81 151.619 101.604 147.62 91.8355 129.076C91.2886 128.038 89.7143 128.865 90.2645 129.904C95.0582 139.005 103.222 146.585 113.402 148.491C113.266 148.85 113.487 147.717 112.166 157.871C110.663 160.528 111.687 165.106 109.4 169.047C105.055 176.487 95.6182 179.938 84.1853 174.795C76.5786 171.372 73.8408 165.75 73.2656 157.35C73.1207 155.227 72.6762 155.063 73.0346 149.045C73.2144 146.104 73.0193 143.049 73.1239 140.09C73.965 117.028 75.4314 113.609 73.807 113.046C68.0851 111.069 62.0892 105.728 61.7002 99.3525ZM141.649 81.3098C142.168 83.2339 142.633 85.1731 143.02 87.1319C139.809 85.9912 136.98 85.9934 136.447 87.2376C135.855 88.6234 138.329 91.0104 141.973 92.5705C142.665 92.8669 143.341 93.0957 144 93.2885C144.615 98.2184 144.814 103.197 144.589 108.148C140.803 109.371 137.266 107.454 135.168 103.826C130.565 95.8629 134.284 83.5215 141.649 81.3098ZM150.924 85.6699C154.93 92.6043 152.731 103.468 146.394 107.315C146.553 102.784 146.379 98.2347 145.85 93.7221C151.393 94.5763 150.886 90.8459 144.97 87.9556C144.541 85.6176 144.019 83.3003 143.407 81.008C146.667 80.8479 149.271 82.8122 150.924 85.6699ZM466.552 281.98C464.677 293.067 461.195 306.538 450.832 312.349C444.2 316.066 436.064 315.883 428.958 315.413C397.735 313.366 367.404 305.653 338.806 292.491C332.488 289.578 323.35 286.504 318.187 281.857C315.627 279.553 315.851 279.829 316.674 275.912C317.683 270.835 325.358 241.042 327.801 229.095C340.68 231.512 353.421 235.801 365.752 239.949C371.013 241.721 401.998 251.992 407.485 252.319C410.652 252.511 411.15 251.646 411.748 249.136C412.18 247.327 411.539 249.86 421.327 213.813C421.636 212.673 419.918 212.219 419.614 213.346L410.364 247.35C409.478 250.6 409.992 250.688 407.589 250.547C406.468 250.479 405.228 250.127 404.028 249.787C399.521 248.508 394.71 247.829 366.319 238.266C353.654 234.004 340.559 229.597 327.262 227.191C326.786 227.109 326.328 227.415 326.233 227.89C326.022 228.939 325.787 229.99 325.562 231.041C317.739 222.053 306.442 221.953 296.494 217.33C285.721 212.298 282.34 203.182 273.414 196.839C252.198 181.743 226.804 201.729 231.396 211.342C232.892 214.462 236.826 215.406 239.942 214.721C245.465 213.48 250.174 207.623 255.569 208.529C258.889 209.097 261.204 212.269 262.026 215.166C262.959 218.419 262.645 222.011 262.328 225.221C222.347 265.66 223.408 264.921 223.109 268.392C222.929 265.85 221.559 263.607 220.215 261.463C212.948 249.871 197.201 224.403 192.685 217.226C193.103 213.725 193.568 210.127 195.236 207.026C196.735 204.239 199.791 201.519 203.329 201.677C209.065 201.962 212.498 208.955 217.909 211.463C220.912 212.851 225.108 212.781 227.312 209.943C234.107 201.202 212.699 175.216 187.768 185.856C183.565 187.648 179.824 190.368 176.205 192.993C166.402 200.115 162.871 201.819 150.521 202.834C149.964 189.982 147.196 177.228 138.95 167.41C130.414 157.289 118.086 154.533 114.181 156.113C115.195 147.937 115.115 149.103 115.085 148.728C136.939 151.42 145.04 131.23 146.315 109.372C154.136 105.699 157.207 92.9878 152.461 84.782C150.401 81.2161 147.038 78.8759 142.939 79.2682C142.264 76.9334 141.488 74.6313 140.622 72.3685C150.977 69.2712 162.639 62.1374 161.923 51.1534C161.517 44.9119 156.659 39.2215 150.556 37.8445C144.456 36.4652 137.624 39.5146 134.572 44.9739C136.446 39.3065 133.643 32.1051 125.953 28.2343C114.976 22.6976 99.9521 27.3529 95.5027 40.9919C94.3239 44.6111 94.6475 47.8174 94.8076 51.3212C92.1188 44.7146 86.2161 39.5255 79.2522 37.8815C78.1246 37.5993 77.6888 39.3403 78.8436 39.6127C85.4218 41.163 90.9694 46.1538 93.3466 52.4629C85.0841 49.5334 76.3706 49.4124 68.886 54.9273C63.8739 58.6206 60.4819 64.3752 59.4003 70.5317C58.7469 74.2577 57.7627 78.3933 59.8595 81.7402C61.3765 84.162 63.3837 86.2647 65.6459 88.0155C61.6571 90.5082 59.6549 95.109 59.9273 99.4614C60.3518 106.431 66.6162 112.251 72.7448 114.552C72.8832 117.932 71.2076 131.965 71.3274 144.079C71.3895 150.695 71.1716 147.396 71.1498 152.658C65.0097 148.48 54.1512 151.575 46.9534 153.425C30.7161 157.512 14.1542 162.62 5.68243 175.983C-11.3852 202.975 15.1284 247.673 18.3398 283.52C20.1507 303.772 15.3601 324.172 18.0597 344.9C18.387 347.444 18.8285 349.865 20.6077 351.528C24.1252 354.815 28.8077 353.913 33.3952 352.865C34.7569 352.552 34.5849 352.565 39.6182 351.632C34.6971 373.698 29.5171 396.152 27.6044 418.696C27.504 419.866 29.2735 420.032 29.3739 418.846C31.9546 388.448 41.3466 353.881 41.4858 351.282C58.3973 348.093 74.4574 344.431 89.9453 340.35C99.8377 337.734 109.627 332.114 119.182 326.599C127.645 321.663 132.68 318.997 143.953 318.335C144.002 324.758 143.298 330.199 146.324 335.91C149.317 341.199 151.761 344.231 154.301 355.132C157.896 370.518 160.207 386.231 161.819 398.2C161.977 399.374 163.736 399.132 163.579 397.965C161.962 385.954 159.644 370.189 156.031 354.729C154.321 347.388 152.113 341.849 148.907 336.824C155.466 337.113 169.517 331.854 171.289 325.16C171.816 323.071 171.778 320.79 171.186 318.901C170.333 316.205 168.073 313.085 165.33 311.942C173.422 295.417 158.182 267.589 154.008 250.128C157.755 252.465 156.732 251.696 159.216 253.43C161.971 255.359 165.415 257.762 168.017 257.396C169.749 257.157 172.34 254.98 173.314 252.643C174.297 254.096 175.391 255.493 176.755 256.67C184.898 263.705 193.86 255.841 191.265 246.034C211.316 272.169 211.17 272.437 213.749 274.003C217.868 276.502 222.67 274.745 223.099 269.594C223.445 273.685 227.304 275.407 231.048 274.12C233.772 273.185 233.919 272.729 257.684 252.651C254.81 258.462 257.017 264.382 261.121 266.19C263.466 267.207 266.5 266.938 269.239 265.46C270.736 264.64 272.065 263.543 273.237 262.432C273.713 264.879 275.706 267.364 277.232 267.932C279.628 268.806 283.351 267.257 286.338 266.014C288.751 265.005 307.889 258.444 309.107 258.026C310.218 263.911 312.234 269.569 315.083 274.872C313.984 280.151 313.618 280.133 316.999 283.176C322.417 288.056 331.647 291.153 338.064 294.103C366.86 307.358 397.402 315.125 428.843 317.186C436.661 317.698 444.802 317.766 451.701 313.897C462.721 307.719 466.363 293.752 468.304 282.275C468.499 281.124 466.752 280.811 466.552 281.98Z" fill="#BE4FFE"/>
<path d="M329.134 146.128C328.483 146.701 327.414 147.607 326.731 147.075C326.221 146.687 326.304 146.02 325.294 137.594C325.159 136.432 323.392 136.629 323.529 137.801C324.65 144.521 323.718 148.989 327.227 148.989C328.48 148.989 329.391 148.272 330.31 147.458C331.19 146.68 330.014 145.348 329.134 146.128Z" fill="#D0D5DD"/>
<path d="M40.1127 63.1289C42.2414 76.1589 20.1365 76.8082 19.9058 57.1281C28.9296 51.1534 38.7061 54.5003 40.1127 63.1289ZM24.8012 97.3305C25.9316 97.7107 26.4742 96.0253 25.3773 95.6495C18.2434 93.2025 12.6291 86.852 11.0764 79.4698C9.42112 71.6125 12.497 63.2204 18.1747 58.4256C19.3899 79.4491 44.3414 77.9979 41.8661 62.8412C40.1962 52.6002 29.1038 49.65 19.962 54.9829C21.3507 32.5944 43.017 11.2343 68.0236 11.0883C68.514 11.085 68.9092 10.6852 68.9065 10.1949C68.9018 9.32117 67.8302 9.23075 68.0129 9.31245C41.5214 9.46716 18.6161 32.6979 18.1346 56.1868C11.1932 61.3214 7.45932 70.9174 9.33723 79.8369C11.0175 87.8173 17.0866 94.6853 24.8012 97.3305Z" fill="#D0D5DD"/>
<path d="M407.182 39.4253L417.607 1.11526C417.916 -0.0264969 416.197 -0.472099 415.893 0.648964L405.468 38.9579C405.16 40.0953 406.872 40.5562 407.182 39.4253Z" fill="#D0D5DD"/>
<path d="M414.271 47.1541L442.709 31.4396C443.737 30.8709 442.88 29.3162 441.85 29.8838L413.41 45.5983C412.373 46.1724 413.249 47.7151 414.271 47.1541Z" fill="#D0D5DD"/>
<path d="M419.356 62.936C472.993 66.8004 464.829 66.2698 465.649 66.2698C466.783 66.2698 466.843 64.5778 465.712 64.495L419.484 61.1634C418.325 61.0534 418.171 62.85 419.356 62.936Z" fill="#D0D5DD"/>
<path d="M238.516 178.634C253.555 170.517 273.759 172.854 286.553 184.192C287.425 184.964 288.616 183.65 287.732 182.861C274.401 171.049 253.348 168.613 237.672 177.072C236.63 177.631 237.495 179.199 238.516 178.634Z" fill="#D0D5DD"/>
<path d="M249.852 163.925C259.518 163.048 269.459 165.224 277.862 170.061C278.88 170.645 279.768 169.11 278.749 168.521C270.031 163.503 259.706 161.246 249.692 162.156C248.525 162.263 248.677 164.022 249.852 163.925Z" fill="#D0D5DD"/>
</svg>
