<svg width="506" height="436" viewBox="0 0 506 436" fill="none" xmlns="http://www.w3.org/2000/svg">
<path d="M207.563 118.486C206.816 119.411 206.049 120.355 205.026 120.906C203.983 121.476 202.626 121.574 201.702 120.847C201.014 120.312 201.949 122.205 187.03 91.0109C185.988 88.8279 184.906 86.507 185.201 84.1076C185.476 81.7081 187.738 79.3873 190.079 79.9971L190.098 80.0365C189.115 81.3542 188.859 83.144 189.587 84.7174C194.071 94.4135 205.144 118.428 205.144 118.428L206.914 117.071L207.563 118.486Z" fill="black"/>
<path d="M366.812 355.205L313.473 356.641C312.725 343.071 312.707 344.182 312.253 334.22L364.884 329.224L366.812 355.205Z" fill="#D1816C"/>
<path d="M420.858 231.772L382.959 276.634L366.339 259.621L386.361 210.944L420.858 231.772Z" fill="#D1816C"/>
<path d="M188.151 436C114.308 436 54.2334 410.987 54.2334 380.242C54.2334 364.902 68.7443 350.637 95.0906 340.073C106.438 335.518 119.532 331.859 134.005 329.201C134.201 329.166 134.395 329.189 134.576 329.266C178.142 348.158 230.704 359.922 277.974 353.646C272.504 346.155 265.869 339.767 258.229 334.643C257.322 334.034 257.942 332.606 259.023 332.874C275.906 337.241 295.842 344.655 308.946 356.036C309.256 356.305 309.365 356.738 309.223 357.122C309.217 357.138 309.212 357.152 309.204 357.167C308.742 406.704 309.199 404.23 308.545 404.788C285.969 424.041 239.836 436 188.151 436ZM134.068 331.191C119.84 333.821 106.974 337.423 95.8249 341.898C70.2723 352.143 56.2015 365.761 56.2015 380.242C56.2015 409.901 115.394 434.032 188.151 434.032C238.352 434.032 284.885 422.09 306.926 403.58L307.236 357.161C295.572 347.215 278.497 340.435 263.757 336.204C270.176 341.173 275.804 347.085 280.528 353.835C280.949 354.43 280.593 355.269 279.861 355.373C231.595 362.207 178.095 350.232 134.068 331.191Z" fill="black"/>
<path d="M302.518 213.343C281.179 187.185 254.372 166.141 229.473 143.326C213.562 128.773 198.123 113.235 179.183 102.91C155.582 90.0472 118.567 91.0501 104.073 91.2074C57.4649 91.7366 24.9693 113.411 8.86179 148.696C2.35197 162.955 -0.10648 175.876 1.21112 191.414C9.10052 283.767 87.2953 364.173 201.427 378.491C249.047 384.444 275.003 374.537 301.909 351.881C317.288 338.901 330.348 323.147 340.083 305.545C356.447 276.004 323.857 239.521 302.518 213.343ZM279.723 354.399C241.326 359.833 201.612 353.533 164.55 341.575C93.1203 318.45 51.026 282.098 22.1178 232.519C26.8408 224.459 37.7452 221.24 47.0367 220.836C44.6871 206.114 54.8771 186.759 66.9793 178.059C77.8475 169.477 95.1568 164.359 107.711 164.39C128.492 164.447 149.643 173.335 165.121 190.411L206.442 235.961C205.9 236.813 181.65 271.502 165.042 295.298C174.846 296.927 187.339 305.421 195.448 321.79C226.384 313.926 260.994 327.643 279.723 354.399Z" fill="#FCCEEE"/>
<path d="M50.0858 198.267C33.3896 179.82 25.3922 155.947 17.6718 132.661C17.5008 132.145 17.7794 131.589 18.2963 131.418C18.8096 131.247 19.3687 131.526 19.5399 132.042C27.1977 155.141 35.1184 178.797 51.5464 196.946C51.9097 197.349 51.8789 197.972 51.4773 198.336C51.0724 198.704 50.4466 198.667 50.0858 198.267Z" fill="black"/>
<path d="M165.665 188.376C138.914 162.438 124.303 127.268 112.959 91.931C112.794 91.4131 113.078 90.8596 113.597 90.6933C114.114 90.5279 114.668 90.8124 114.835 91.3295C126.126 126.524 140.621 161.352 167.034 186.964C167.424 187.342 167.434 187.965 167.057 188.355C166.673 188.749 166.05 188.751 165.665 188.376Z" fill="black"/>
<path d="M185.529 158.353C172.108 138.861 161.675 117.535 154.518 94.9705C154.353 94.4515 154.641 93.899 155.158 93.7346C155.685 93.5655 156.229 93.8576 156.394 94.3746C163.492 116.755 173.84 137.905 187.151 157.236C187.459 157.684 187.345 158.297 186.898 158.605C186.462 158.909 185.845 158.808 185.529 158.353Z" fill="black"/>
<path d="M90.7624 240.888L118.781 219.069L93.5397 193.561C93.1572 193.174 93.161 192.552 93.5473 192.169C93.9355 191.788 94.5583 191.791 94.9388 192.177L120.958 218.472C121.369 218.887 121.332 219.574 120.864 219.94L91.9731 242.441C90.9402 243.238 89.7375 241.688 90.7624 240.888Z" fill="black"/>
<path d="M46.0632 220.991C43.621 205.621 53.8152 183.485 73.2687 172.714C73.7453 172.453 74.3412 172.622 74.6064 173.099C74.8697 173.574 74.6967 174.173 74.222 174.436C66.9736 178.45 61.3737 183.79 56.7455 190.256C56.6015 190.454 56.4594 190.649 56.6033 190.451C50.6814 199.204 46.4284 210.789 48.0082 220.682C48.0927 221.219 47.7276 221.723 47.1894 221.808C46.6638 221.896 46.1493 221.534 46.0632 220.991Z" fill="black"/>
<path d="M204.251 118.839C204.251 118.839 193.178 94.8264 188.692 85.131C187.437 82.4092 188.598 79.1714 191.222 77.8246L209.924 68.1485C212.844 66.6364 216.447 67.9744 217.678 71.0122C221.456 80.3165 229.461 100.202 229.461 100.202C229.627 100.612 229.498 101.083 229.146 101.351L205.742 119.208C205.239 119.595 204.512 119.407 204.251 118.839ZM210.828 69.8975C191.128 80.223 191.704 79.4856 190.897 80.6096C190.084 81.7012 189.928 83.111 190.48 84.3055C194.385 92.7487 203.29 112.054 205.523 116.897L227.355 100.241C225.908 96.6473 219.211 80.0204 215.856 71.7521C215.032 69.7291 212.668 68.943 210.828 69.8975Z" fill="black"/>
<path d="M225.393 97.21C223.731 96.5103 223.265 94.123 224.233 92.6009C225.2 91.0788 227.168 90.424 228.964 90.5874C230.76 90.7509 232.419 91.5983 233.963 92.5308C243.216 98.1203 250.131 107.548 252.408 118.116C253.642 123.845 253.55 129.773 253.212 135.624C252.58 146.592 251.903 158.485 247.832 168.721C229.989 213.588 228.911 216.876 224.727 224.668C220.557 232.431 215.953 239.961 210.941 247.21C211.624 244.002 212.307 240.795 212.99 237.588C211.726 238.148 210.581 239.27 209.199 239.27L198.412 227.698C207.546 204.195 216.517 179.901 216.347 154.687L225.393 97.21Z" fill="#D1816C"/>
<path d="M242.335 134.24C239.818 138.803 236.219 141.911 232.639 145.549C217.377 161.008 206.993 179.377 198.85 199.32L175.879 255.511C173.145 268.176 166.222 279.918 156.801 288.827C151.186 294.161 145.445 297.548 137.96 296.439C137.207 276.568 119.175 263.48 101.26 266.721C100.316 258.244 97.1691 250.063 92.3506 243.041L118.43 222.607L136.19 238.341C138.3 233.597 163.98 175.67 174.639 151.666C178.278 143.491 183.448 128.655 190.177 122.027C192.557 119.706 194.956 116.913 198.496 116.52C200.306 116.323 202.213 116.775 203.944 116.166C205.611 115.576 205.692 115.255 216.984 104.031C219.541 101.494 222.491 97.0293 226.621 97.6193C228.962 97.9536 230.948 100.609 229.906 102.752C232.423 102.713 234.882 104.267 235.924 106.548C236.966 108.83 236.534 111.701 234.842 113.57C237.34 113.55 239.759 115.202 240.644 117.543C241.529 119.883 240.821 122.715 238.933 124.367C241.057 123.6 243.417 125.528 243.869 127.75C244.341 129.972 243.417 132.254 242.335 134.24Z" fill="#D1816C"/>
<path d="M207.785 124.924C207.382 124.56 207.349 123.938 207.714 123.535C214.522 115.992 221.818 108.742 229.398 101.987C229.805 101.625 230.426 101.661 230.787 102.067C231.149 102.473 231.114 103.094 230.709 103.456C223.18 110.164 215.936 117.363 209.175 124.853C208.809 125.258 208.187 125.287 207.785 124.924Z" fill="black"/>
<path d="M216.242 134.819C215.783 134.527 215.646 133.919 215.938 133.46C221.005 125.474 227.251 118.344 234.503 112.269C234.92 111.918 235.539 111.974 235.888 112.391C236.238 112.808 236.184 113.429 235.767 113.778C228.671 119.723 222.558 126.699 217.599 134.515C217.308 134.976 216.697 135.108 216.242 134.819Z" fill="black"/>
<path d="M226.509 138.633C226.09 138.287 226.031 137.667 226.377 137.248C230.32 132.475 234.478 127.78 238.737 123.291C239.112 122.896 239.736 122.882 240.126 123.254C240.522 123.628 240.538 124.251 240.163 124.646C235.937 129.101 231.808 133.763 227.895 138.501C227.541 138.926 226.92 138.975 226.509 138.633Z" fill="black"/>
<path d="M205.005 83.8781L200.015 86.1298C199.243 86.4784 198.334 86.1347 197.985 85.3622L197.628 84.5703C197.279 83.7978 197.623 82.8888 198.396 82.5402L203.385 80.2885C204.158 79.94 205.067 80.2836 205.415 81.0561L205.773 81.848C206.122 82.6206 205.778 83.5294 205.005 83.8781Z" fill="black"/>
<path d="M240.611 301.017C262.552 301.669 284.647 295.516 303.093 283.618L302.261 336.355L368.253 335.689C368.253 335.577 368.253 335.466 368.253 335.355L362.254 246.365C354.259 228.804 342.969 208.843 324.399 203.662C311.454 200.05 297.231 204.621 286.682 212.949C262.868 231.748 250.622 272.832 240.611 301.017Z" fill="#EE46BC"/>
<path d="M399.263 204.021C398.968 205.024 398.693 206.027 398.397 207.03L367.401 264.754L302.774 212.635V212.202L254.549 299.644C248.786 309.026 240.368 316.716 230.495 321.534C219.049 318.879 207.13 318.82 195.448 321.79C187.68 306.111 176.092 297.77 166.064 295.514C167.028 293.37 168.405 291.168 170.018 288.807C179.006 275.622 177.919 276.933 235.51 191.335C248.648 171.785 260.783 147.457 282.339 136.285C296.149 129.099 306.029 129.992 317.485 136.58C321.497 138.882 324.762 142.953 329.049 144.565L399.263 204.021Z" fill="#EE46BC"/>
<path d="M431.904 328.053C355.95 265.701 383.659 288.447 377.359 283.276C377.155 283.108 377.028 282.866 377.003 282.604C376.98 282.341 377.063 282.08 377.232 281.879C425.278 225.219 422.211 228.152 423.081 228.152C430.927 228.152 439.113 231.184 446.165 228.605C456.205 224.914 464.191 216.041 475.079 214.473C484.405 213.12 492.449 217.98 492.252 217.908C496.928 220.467 501.249 224.211 505.462 229.358C505.748 229.707 505.76 230.206 505.491 230.567L433.39 327.941C433.04 328.418 432.338 328.482 431.904 328.053ZM379.381 282.387L432.462 325.889L503.452 230.016C499.558 225.372 495.581 221.972 491.311 219.636C471.926 209.107 461.234 225.159 446.844 230.453C439.325 233.201 431.198 230.241 423.534 230.124L379.381 282.387Z" fill="white"/>
<path d="M502.921 230.092L432.145 326.91C427.638 322.868 418.968 315.093 419.277 315.37L468.484 253.066C460.878 244.655 458.564 231.181 466.525 218.823C469.113 217.565 471.797 216.574 474.675 216.162C485.882 214.52 495.777 221.359 502.921 230.092Z" fill="black"/>
<path d="M307.749 426.58C307.488 426.58 307.238 426.476 307.053 426.291C306.498 425.736 306.846 430.05 307.238 356.778C307.238 356.235 307.678 355.794 308.222 355.794L371.211 354.103C371.555 354.106 371.904 354.28 372.085 354.588L385.322 377.108C391.727 388.102 405.047 385.305 418.172 391.528C418.187 391.534 418.203 391.542 418.216 391.55C430.405 397.382 438.185 411.016 437.142 424.707C437.102 425.217 436.679 425.612 436.167 425.616L307.757 426.579C307.755 426.58 307.751 426.58 307.749 426.58ZM309.2 357.738L308.741 424.604L435.233 423.654C435.819 411.062 428.572 398.685 417.365 393.324V393.323C417.351 393.317 417.338 393.31 417.324 393.303C404.471 387.213 390.591 390.068 383.625 378.102L370.684 356.086L309.2 357.738Z" fill="white"/>
<path d="M366.807 383.699C366.609 383.193 366.859 382.622 367.365 382.423C372.521 380.396 377.101 376.776 380.265 372.228C380.572 371.781 381.186 371.671 381.633 371.982C382.079 372.292 382.191 372.905 381.879 373.352C378.499 378.215 373.598 382.087 368.083 384.255C367.583 384.452 367.009 384.208 366.807 383.699Z" fill="black"/>
<path d="M379.813 395.788C379.515 395.332 379.642 394.723 380.098 394.425C383.817 391.992 387.219 389.092 390.211 385.806C391.103 384.845 392.538 386.172 391.668 387.132C388.562 390.54 385.031 393.548 381.174 396.072C380.728 396.365 380.114 396.249 379.813 395.788Z" fill="black"/>
<path d="M164.249 342.513C100.666 321.925 54.0071 289.166 21.2677 233.015C21.089 232.708 21.089 232.328 21.2677 232.021C29.2138 218.465 59.2107 213.802 81.1928 230.056C92.8689 238.657 100.317 251.998 102.113 265.585C122.418 262.612 140.744 279.355 138.865 300.459C147.314 293.108 160.325 291.794 171.028 296.036C181.095 300.069 189.93 308.792 195.975 320.645C227.359 313.018 261.881 327.196 280.528 353.835C280.949 354.43 280.593 355.269 279.861 355.373C241.435 360.814 201.351 354.483 164.249 342.513ZM23.2647 232.531C52.4374 282.308 94.7227 317.938 164.854 340.64C209.99 355.201 247.762 357.657 277.974 353.646C259.449 328.277 225.905 315.065 195.69 322.743C195.243 322.858 194.772 322.644 194.566 322.227C186.605 306.155 174.348 297.855 164.879 296.268C153.731 293.986 143.423 297.826 138.25 303.79C137.585 304.557 136.329 303.928 136.546 302.936C136.84 301.556 137.099 298.949 136.978 296.487C136.253 277.486 119.08 264.502 101.435 267.69C100.902 267.792 100.349 267.417 100.282 266.83C98.7548 253.099 91.2826 239.933 80.0244 231.639C68.5375 223.144 53.4406 220.058 40.4586 222.59C32.592 224.063 26.3687 227.67 23.2647 232.531Z" fill="black"/>
<path d="M74.1811 173.947C70.6846 165.6 68.2588 156.805 66.9819 147.845C59.3119 144.014 51.8561 137.567 48.6873 129.6C45.5185 121.633 46.2145 111.969 51.4211 105.157C57.3456 97.4055 68.3292 94.4755 77.785 96.877C94.0776 101.015 105.431 119.185 104.147 132.125C103.552 138.118 100.085 144.023 94.5823 146.471C97.4723 155.134 100.978 163.243 105.788 171.006C95.2257 174.688 84.6898 175.682 74.1811 173.947Z" fill="#D1816C"/>
<path d="M84.122 134.757C83.1908 133.854 84.5553 132.438 85.4942 133.345C86.8558 134.671 89.1806 133.629 89.0884 131.718C88.9417 128.787 84.3128 128.273 81.214 122.104C80.9719 121.619 81.1679 121.027 81.6522 120.784C82.1327 120.541 82.7285 120.734 82.9745 121.222C85.9483 127.148 90.8453 127.363 91.0525 131.621C91.1352 133.257 90.1493 134.873 88.6558 135.548C87.1408 136.233 85.2833 135.883 84.122 134.757Z" fill="black"/>
<path d="M91.9713 118.363C93.0191 117.758 93.0996 115.935 92.1511 114.293C91.2026 112.65 89.5842 111.808 88.5364 112.413C87.4886 113.018 87.4081 114.841 88.3566 116.483C89.3052 118.126 90.9235 118.968 91.9713 118.363Z" fill="black"/>
<path d="M75.6225 124.914C76.571 126.557 76.4905 128.379 75.4427 128.984C74.3949 129.589 72.7766 128.748 71.828 127.105C70.8794 125.462 70.96 123.64 72.0078 123.035C73.0556 122.43 74.6741 123.271 75.6225 124.914Z" fill="black"/>
<path d="M74.9695 105.581C81.7079 110.181 82.8676 108.443 87.2661 107.799C90.298 107.354 93.4943 108.162 95.9507 109.994C94.121 108.091 92.4377 106.047 90.9208 103.886C89.2044 101.441 89.8739 100.608 91.5931 98.7617C97.1758 92.7646 96.1581 80.5027 87.8434 77.3805C82.7307 75.4607 76.3612 77.992 73.9611 82.8978C73.3689 77.3259 68.9364 72.4785 63.5321 70.9989C52.8053 68.062 41.5563 77.1414 41.9835 90.2852C36.8793 86.7237 29.0734 87.8895 25.2324 92.7867C21.3915 97.6841 22.1194 105.543 26.7946 109.651C21.6462 107.971 15.529 109.906 12.2823 114.24C9.03569 118.575 8.89974 124.989 11.96 129.457C15.0201 133.925 21.0499 136.117 26.2648 134.656C22.8057 136.742 21.5807 141.672 23.3502 145.303C25.1198 148.934 29.4451 151.001 33.4495 150.471C37.4538 149.942 40.9618 147.048 42.6223 143.367C41.0611 146.586 42.4468 150.822 45.4434 152.777C48.4401 154.732 52.6318 154.423 55.5286 152.323C60.9864 148.366 61.6817 139.683 55.7717 133.343C60.1655 133.626 63.8323 129.468 64.6102 125.134C65.3882 120.8 64.037 116.399 62.7017 112.204C67.6888 113.401 73.3344 110.416 75.1525 105.62" fill="black"/>
<path d="M60.6239 133.263C58.1397 131.824 54.6445 132.661 52.95 134.979C51.2555 137.296 51.4508 140.754 53.2685 142.976C55.0861 145.198 58.3082 146.09 61.0641 145.285C63.82 144.48 66.0108 142.099 66.7625 139.329" fill="#D1816C"/>
<path d="M59.0076 146.559C52.0093 146.559 48.6847 139.145 52.1558 134.398C55.4982 129.828 62.6951 131.656 61.4755 133.756C61.2007 134.228 60.5971 134.385 60.1301 134.114C58.1043 132.938 55.1791 133.599 53.7434 135.56C52.35 137.468 52.475 140.452 54.0298 142.352C55.5712 144.235 58.3542 145.051 60.7874 144.34C63.1611 143.648 65.133 141.579 65.8133 139.071C65.9555 138.547 66.4937 138.235 67.0203 138.379C67.545 138.521 67.8544 139.061 67.7122 139.586C66.6856 143.374 63.224 146.554 59.0076 146.559Z" fill="black"/>
<path d="M78.8366 142.946C77.6326 142.443 78.401 140.622 79.5977 141.131C81.9043 142.097 84.5797 141.438 86.1689 139.505C86.5168 139.084 87.1357 139.025 87.5546 139.37C87.9755 139.715 88.0351 140.335 87.691 140.755C85.5044 143.411 81.8793 144.223 78.8366 142.946Z" fill="black"/>
<path d="M209.536 176.685C209.042 176.458 208.825 175.875 209.052 175.381C214.743 162.957 222.646 153.231 232.644 144.765C237.007 141.073 241.916 136.871 242.575 130.94C242.692 129.89 242.687 128.383 241.985 127.168C241.372 126.109 240.202 125.445 239.233 125.558C238.381 125.666 237.804 124.651 238.36 123.962C241.324 120.28 239.442 114.704 234.833 113.589C234.181 113.433 233.869 112.677 234.234 112.106C236.279 108.889 234.344 104.57 230.563 103.975C230.029 103.89 229.663 103.391 229.744 102.856C230.026 100.965 228.053 99.2046 226.114 99.0391C223.725 98.8431 221.524 100.307 220.096 101.573C219.686 101.932 219.066 101.897 218.706 101.491C218.345 101.084 218.383 100.462 218.789 100.101C220.505 98.5778 223.223 96.7989 226.279 97.0786C228.985 97.3067 231.564 99.5166 231.73 102.221C235.895 103.422 238.161 107.959 236.467 112.058C240.998 113.928 243.136 119.205 240.797 123.797C245.283 125.254 246.809 132.946 239.727 140.867C234.869 146.301 220.702 154.677 210.84 176.199C210.614 176.693 210.032 176.911 209.536 176.685Z" fill="black"/>
<path d="M233.451 321.621C233.08 321.223 233.102 320.6 233.499 320.229C247.651 307.017 258.96 291.022 266.202 273.973C302.816 207.856 300.404 210.846 301.52 210.846C302.507 210.846 303.347 211.211 304.113 211.345C304.609 211.434 300.345 208.072 367.134 264.09L397.716 205.275C375.842 186.154 348.301 163.464 326.569 144.441C326.16 144.083 326.117 143.461 326.477 143.052C326.836 142.641 327.457 142.602 327.864 142.959C349.812 162.169 377.708 185.144 399.594 204.303C399.936 204.602 400.029 205.095 399.819 205.497L368.314 266.086C368.178 266.351 367.926 266.54 367.634 266.597C367.344 266.661 367.038 266.577 366.809 266.386L303.503 213.23C303.018 213.123 302.483 212.954 302.068 212.874L267.97 274.832C260.665 292.042 249.194 308.269 234.841 321.669C234.452 322.034 233.828 322.023 233.451 321.621Z" fill="black"/>
<path d="M436.159 424.632L307.749 425.595L307.848 412.418L402.666 410.727C405.44 402.824 409.945 395.465 417.75 392.416C417.77 392.416 417.77 392.436 417.79 392.436C429.669 398.12 437.162 411.494 436.159 424.632Z" fill="black"/>
<path d="M164.249 342.513C81.064 315.63 30.5015 268.187 0.108845 188.381C-0.468929 187.156 1.41669 186.315 1.93284 187.642H1.93472C32.0912 266.875 82.192 313.927 164.852 340.64C210.345 355.316 258.856 361.172 304.845 348.123C305.373 347.973 305.914 348.279 306.061 348.8C306.21 349.324 305.906 349.868 305.383 350.016C258.864 363.215 209.906 357.243 164.249 342.513Z" fill="black"/>
<path d="M303.011 285.633C303.006 285.633 303 285.633 302.994 285.633C302.45 285.623 302.018 285.175 302.027 284.631L303.021 227.33C303.044 225.996 305.012 226.081 304.989 227.364L303.995 284.666C303.986 285.203 303.548 285.633 303.011 285.633Z" fill="black"/>
<path d="M151.786 46.5622C152.219 47.8995 152.848 49.178 153.674 50.417H116.64C113.139 50.417 109.914 48.7059 107.947 45.9722C110.898 47.0074 109.283 46.3665 151.786 46.5622Z" fill="black"/>
<path d="M186.951 50.4169H181.169C172.378 54.2718 173.145 60.0736 174.639 66.0133C169.644 63.7516 165.593 61.2735 162.583 58.5396C164.629 59.8181 166.91 61.0177 169.447 62.1781C167.953 56.2189 167.186 50.4169 175.997 46.5621H181.779C189.213 31.3001 190.649 16.0381 183.687 0.834961H186.951C196.038 17.3361 195.015 33.8569 186.951 50.4169Z" fill="black"/>
<path d="M181.779 5H111.389C106.767 5 102.617 7.96967 101.24 12.3754C97.5624 24.0579 97.7199 35.6617 101.299 47.1673C102.666 51.5056 106.758 54.5622 111.448 54.5622H151.786C152.219 55.8996 152.848 57.178 153.674 58.417H156.978C157.922 61.3474 159.81 64.0419 162.583 66.5398C164.629 67.8182 166.91 69.0179 169.447 70.1782C167.953 64.219 167.185 58.417 175.996 54.5622H181.779C189.841 38.0116 190.838 21.3614 181.779 5ZM161.168 24.8051C160.892 27.0275 159.948 29.309 158.807 31.2167C153.123 40.6768 144.548 45.2791 144.745 44.9643C139.198 42.1913 134.4 38.0021 130.919 32.8885C121.666 19.353 135.824 12.4432 142.464 21.4421C144.489 19.4557 146.594 17.5872 149.308 16.8006C156.348 14.8106 161.853 19.6793 161.168 24.8051Z" fill="#BE4FFE"/>
<path d="M162.583 58.5397C158.591 56.0616 155.582 53.3671 153.674 50.417H156.978C157.922 53.3474 159.81 56.0419 162.583 58.5397Z" fill="#EE46BC"/>
</svg>
