<svg width="527" height="436" viewBox="0 0 527 436" fill="none" xmlns="http://www.w3.org/2000/svg">
<path d="M260.587 254.336C252.406 253.474 244.009 251.106 237.335 245.939C236.66 245.399 235.732 245.114 234.763 244.975C234.889 245.08 235.016 245.186 235.142 245.289L236.024 246.006L235.118 246.691C229.423 251.003 226.024 253.031 221.479 255.639C213.54 260.041 200.972 265.82 197.31 267.486L196.664 267.78L196.233 267.216C194.793 265.334 191.104 261.726 182.58 258.707C180.82 258.084 178.918 257.511 176.928 257.004L176.889 256.995L176.857 256.991C176.214 256.907 175.547 256.743 174.875 256.505C171.205 255.206 167.673 251.832 164.368 248.487C163.796 247.907 162.684 247.073 161.431 246.629C160.656 246.355 159.932 246.266 159.279 246.365C158.12 246.543 157.204 247.268 156.563 248.507C156.55 248.532 156.537 248.557 156.529 248.585L156.5 248.669C156.5 248.669 156.44 248.785 156.425 248.812C153.892 253.824 157.272 260.546 166.201 268.253L167.626 269.483L165.771 269.806C163.185 270.256 159.261 270.993 155.255 271.948C145.717 274.222 140.058 276.644 138.435 279.144C137.948 279.898 137.801 280.674 137.998 281.451L138.006 281.483L138.012 281.515C138.145 282.268 138.547 282.877 139.204 283.321C139.479 283.506 139.799 283.664 140.181 283.799L142.175 284.505L140.276 285.439C138.228 286.446 136.843 287.55 136.043 288.813C135.251 290.071 135.047 291.476 135.437 292.991C135.662 293.866 136.333 294.507 137.432 294.896C137.621 294.963 137.843 295.025 138.112 295.087L139.418 295.385L138.639 296.474C138.008 297.355 137.732 298.348 137.862 299.287C137.963 300.123 138.403 300.832 139.133 301.336C139.471 301.568 139.839 301.753 140.258 301.901C141.785 302.442 144.165 302.555 147.332 302.237L148.864 302.083L148.234 303.488C148.099 303.791 148.032 304.118 147.973 304.515L147.942 304.72C147.934 304.766 147.931 304.808 147.931 304.844C147.961 305.734 148.327 306.456 149.014 306.986C149.331 307.227 149.716 307.429 150.158 307.586C153.04 308.606 158.757 308.003 169.277 305.571C181.008 302.858 232.724 289.249 238.606 287.7C241.355 287.054 244.184 286.199 247.012 285.157L251.091 283.447C252.801 281.674 255.323 281.27 257.473 280.085C259.421 278.875 261.925 276.579 263.816 276.062C263.896 275.857 263.969 275.648 264.032 275.436C266.185 268.761 263.171 261.01 260.587 254.336Z" fill="white"/>
<path d="M169.081 270.207C169.007 270.207 168.932 270.182 168.869 270.133C161.979 264.652 157.771 259.656 156.364 255.282C155.223 251.733 156.27 249.678 156.665 248.905C156.7 248.835 156.74 248.756 156.753 248.724C156.759 248.694 156.769 248.664 156.784 248.636C157.393 247.459 158.245 246.779 159.316 246.616C161.347 246.307 163.522 247.991 164.189 248.666C168.159 252.686 172.405 256.661 176.826 257.241C176.839 257.243 176.853 257.246 176.866 257.249C185.429 259.429 190.353 262.323 192.976 264.367C195.194 266.097 196.191 267.517 196.546 268.109C199.056 266.976 217.338 258.671 225.08 253.832C225.24 253.733 225.45 253.781 225.55 253.94C225.649 254.1 225.601 254.31 225.441 254.41C217.122 259.609 196.744 268.768 196.54 268.859C196.37 268.936 196.17 268.861 196.092 268.692C196.084 268.677 195.277 267.011 192.5 264.86C189.932 262.872 185.109 260.053 176.717 257.914C172.09 257.296 167.752 253.243 163.704 249.144C163.146 248.579 161.16 247.024 159.419 247.289C158.585 247.416 157.909 247.962 157.407 248.913C157.384 248.993 157.339 249.081 157.271 249.214C156.912 249.919 155.957 251.792 157.013 255.073C158.378 259.317 162.51 264.204 169.293 269.6C169.441 269.717 169.465 269.931 169.348 270.078C169.281 270.163 169.181 270.207 169.081 270.207ZM156.751 248.733C156.75 248.739 156.749 248.744 156.749 248.748C156.749 248.743 156.75 248.738 156.751 248.733Z" fill="#131313"/>
<path d="M153.667 307.799C151.504 307.799 150.048 307.458 149.174 306.786C148.545 306.303 148.213 305.647 148.186 304.837C148.185 304.813 148.186 304.79 148.19 304.768C148.203 304.695 148.213 304.623 148.224 304.552C148.499 302.701 148.736 301.103 169.153 296.77C169.337 296.731 169.517 296.849 169.556 297.033C169.595 297.217 169.478 297.398 169.294 297.437C149.341 301.671 149.115 303.186 148.898 304.651C148.888 304.716 148.879 304.781 148.868 304.847C148.895 305.437 149.131 305.895 149.589 306.247C152.177 308.235 161.358 306.444 169.068 304.661C181.539 301.777 238.862 286.667 239.439 286.515C239.622 286.468 239.807 286.576 239.855 286.757C239.903 286.939 239.795 287.125 239.613 287.174C239.035 287.326 181.702 302.438 169.221 305.325C162.041 306.985 157.009 307.799 153.667 307.799Z" fill="#131313"/>
<path d="M144.197 302.167C141.914 302.167 140.283 301.82 139.28 301.128C138.596 300.656 138.203 300.021 138.112 299.241C137.858 297.438 139.248 295.067 142.904 294.142C152.688 291.665 169.232 287.667 169.398 287.627C169.581 287.583 169.765 287.696 169.809 287.878C169.853 288.061 169.741 288.245 169.558 288.289C169.392 288.329 152.852 292.326 143.071 294.802C139.823 295.624 138.573 297.634 138.787 299.154C138.857 299.747 139.144 300.206 139.667 300.567C142.055 302.215 148.855 301.649 159.876 298.885L169.148 296.771C169.331 296.73 169.514 296.844 169.556 297.028C169.597 297.211 169.483 297.394 169.299 297.435L160.034 299.547C153.064 301.296 147.813 302.167 144.197 302.167Z" fill="#131313"/>
<path d="M140.265 295.056C137.72 295.056 136.037 294.307 135.683 292.928C135.311 291.483 135.505 290.145 136.258 288.951C138.955 284.682 148.19 282.886 157.122 281.149C161.099 280.376 164.856 279.645 167.691 278.738C167.871 278.681 168.062 278.78 168.119 278.959C168.177 279.138 168.078 279.33 167.899 279.387C165.025 280.306 161.249 281.04 157.252 281.818C148.872 283.447 139.373 285.295 136.834 289.315C136.175 290.358 136.015 291.484 136.343 292.758C136.706 294.175 139.354 294.729 142.932 294.136C143.118 294.105 143.293 294.231 143.323 294.416C143.354 294.602 143.229 294.777 143.043 294.808C142.035 294.975 141.103 295.056 140.265 295.056Z" fill="#131313"/>
<path d="M189.808 285.19C181.418 285.191 176.16 281.107 173.214 277.655C170.45 274.416 169.186 271.201 168.85 270.246C166.004 270.685 142.586 274.447 139.22 279.653C138.865 280.202 138.765 280.729 138.917 281.262C138.921 281.276 138.924 281.29 138.926 281.305C139.004 281.828 139.268 282.234 139.731 282.548C142.656 284.529 152.408 282.23 160.244 280.383C163.007 279.731 165.617 279.116 167.733 278.728C167.917 278.694 168.095 278.816 168.129 279.001C168.163 279.186 168.041 279.363 167.856 279.397C165.757 279.783 163.155 280.396 160.4 281.045C152.02 283.021 142.522 285.261 139.349 283.112C138.734 282.696 138.367 282.129 138.256 281.427C138.059 280.711 138.191 279.99 138.648 279.283C142.381 273.51 167.945 269.689 169.032 269.529C169.198 269.505 169.357 269.605 169.407 269.766C169.418 269.803 170.606 273.558 173.749 277.232C176.637 280.609 181.82 284.609 190.126 284.507C190.128 284.507 190.129 284.507 190.131 284.507C190.317 284.507 190.469 284.657 190.471 284.843C190.473 285.032 190.323 285.186 190.135 285.188C190.026 285.19 189.916 285.19 189.808 285.19Z" fill="#131313"/>
<path d="M227.929 288.838C227.015 288.838 226.462 288.783 226.322 288.733C220.562 286.713 217.32 281.732 215.616 277.908C212.776 271.538 212.2 263.73 213.46 260.708C213.487 260.641 213.536 260.585 213.597 260.548C216.461 258.808 218.797 257.469 220.858 256.288C225.877 253.412 229.502 251.333 236.322 246.093C236.471 245.978 236.684 246.006 236.799 246.155C236.914 246.304 236.886 246.518 236.736 246.633C229.881 251.901 226.238 253.989 221.197 256.878C219.162 258.044 216.86 259.364 214.048 261.071C213.051 263.664 213.251 270.932 216.238 277.631C217.888 281.332 221.016 286.151 226.55 288.091C226.869 288.176 231.104 288.415 237.916 286.879C243.998 285.507 253.554 282.371 264.537 275.223C264.694 275.12 264.905 275.165 265.008 275.323C265.11 275.48 265.066 275.691 264.908 275.794C253.77 283.043 244.077 286.204 237.906 287.579C233.333 288.598 229.842 288.838 227.929 288.838Z" fill="#131313"/>
<path d="M249.112 296.7L201.859 317.134L211.694 426.321C212.728 427.41 213.762 428.51 214.795 429.62L314.054 429.746C290.263 372.161 253.843 302.064 249.112 296.7Z" fill="#EE46BC"/>
<path d="M314.245 429.538C314.117 429.538 313.996 429.462 313.945 429.337C300.081 395.642 283.367 361.181 274.638 343.638C261.126 316.484 251.607 299.298 249.51 296.914C249.391 296.779 249.404 296.574 249.539 296.456C249.674 296.337 249.879 296.351 249.997 296.485C254.964 302.132 291.529 373.153 314.545 429.09C314.613 429.256 314.534 429.445 314.368 429.513C314.328 429.53 314.286 429.538 314.245 429.538Z" fill="#131313"/>
<path d="M314.245 429.213L355.258 428.802L333.612 287.566L284.516 291.317C284.516 291.317 266.5 354.974 255.917 429.398L314.245 429.746L314.245 429.213Z" fill="#BE4FFE"/>
<path d="M256.511 430.071C256.496 430.071 256.48 430.07 256.464 430.067C256.287 430.041 256.164 429.877 256.19 429.699C260.413 400.755 264.734 375.021 269.032 353.212C273.985 328.085 279.09 307.227 284.207 291.218C284.261 291.047 284.444 290.953 284.615 291.007C284.786 291.062 284.88 291.245 284.825 291.415C275.164 321.644 266.008 366.908 256.832 429.793C256.809 429.954 256.67 430.071 256.511 430.071Z" fill="#131313"/>
<path d="M356.748 276.221L304.914 280.476L308.482 337.995C313.729 344.107 316.076 352.742 317.349 359.745C318.928 368.431 321.562 395.998 324.415 429.746L414.014 428.877C405.378 378.776 396.764 315.046 356.748 276.221Z" fill="#BE4FFE"/>
<path d="M414.239 430.071C414.084 430.071 413.947 429.959 413.92 429.801C413.288 426.109 412.667 422.379 412.01 418.43C404.005 370.34 394.042 310.49 356.53 276.461C356.397 276.341 356.387 276.136 356.507 276.003C356.628 275.87 356.833 275.86 356.966 275.981C373.716 291.175 386.474 312.806 395.97 342.108C404.181 367.447 408.68 394.476 412.65 418.323C413.307 422.271 413.928 426 414.56 429.691C414.59 429.868 414.471 430.036 414.295 430.066C414.276 430.069 414.258 430.071 414.239 430.071Z" fill="#131313"/>
<path d="M324.415 430.071C324.248 430.071 324.106 429.943 324.092 429.773C320.841 391.239 318.465 367.698 317.03 359.803C315.268 350.112 312.392 343.048 308.236 338.206C308.119 338.07 308.135 337.866 308.271 337.749C308.407 337.632 308.612 337.647 308.728 337.784C312.962 342.715 315.886 349.88 317.668 359.687C319.107 367.602 321.486 391.164 324.739 429.719C324.754 429.898 324.622 430.054 324.443 430.069C324.434 430.07 324.424 430.071 324.415 430.071Z" fill="#131313"/>
<path d="M217.685 369.64L229.977 286.692L165.703 265.509C165.703 265.509 132.179 306.36 134.363 393.147C134.573 395.394 134.967 409.325 135.455 429.645L214.447 429.746L217.685 369.64Z" fill="#EE46BC"/>
<path d="M214.387 430.071C214.381 430.071 214.375 430.071 214.369 430.07C214.19 430.061 214.052 429.907 214.062 429.729L217.36 368.915C217.364 368.852 217.385 368.792 217.422 368.742L229.714 351.775C229.819 351.63 230.022 351.597 230.167 351.703C230.312 351.808 230.345 352.011 230.24 352.156L218.003 369.045L214.71 429.764C214.701 429.937 214.558 430.071 214.387 430.071Z" fill="#131313"/>
<path d="M135.484 430.071C135.308 430.071 135.164 429.93 135.16 429.754C134.613 406.993 134.236 394.394 134.04 392.307C134.039 392.298 134.039 392.288 134.039 392.279C133.962 376.082 134.83 360.68 136.619 346.498C138.051 335.149 140.073 324.551 142.628 314.999C146.983 298.718 151.447 291.009 151.492 290.933C151.583 290.778 151.782 290.727 151.936 290.817C152.091 290.908 152.143 291.107 152.052 291.261C152.008 291.337 147.577 298.995 143.244 315.206C139.246 330.168 134.515 355.68 134.688 392.261C134.886 394.406 135.263 407.015 135.809 429.738C135.813 429.917 135.671 430.066 135.492 430.07C135.489 430.071 135.487 430.071 135.484 430.071Z" fill="#131313"/>
<path d="M162.008 430.071C162.005 430.071 162.001 430.071 161.998 430.071C161.819 430.065 161.678 429.916 161.684 429.737C163.11 381.925 166.332 343.968 171.262 316.923C171.294 316.746 171.464 316.629 171.64 316.662C171.816 316.694 171.933 316.863 171.901 317.039C166.977 344.053 163.758 381.976 162.332 429.756C162.327 429.932 162.183 430.071 162.008 430.071Z" fill="#131313"/>
<path d="M165.18 369.578C165.015 369.578 164.874 369.453 164.857 369.285C164.839 369.107 164.97 368.948 165.148 368.93C170.09 368.441 174.325 365.596 177.734 360.473C180.485 356.339 182.708 350.725 184.341 343.79C187.129 331.952 187.224 320.231 187.225 320.114C187.226 319.936 187.371 319.792 187.549 319.792C187.55 319.792 187.55 319.792 187.551 319.792C187.73 319.793 187.875 319.939 187.874 320.118C187.873 320.236 187.777 332.03 184.973 343.939C183.322 350.95 181.068 356.634 178.274 360.832C174.752 366.125 170.358 369.067 165.212 369.576C165.201 369.577 165.19 369.578 165.18 369.578Z" fill="#131313"/>
<path d="M185.762 138.236C185.762 138.236 151.374 139.046 143.446 174.447C143.274 175.255 140.598 197.582 145.312 224.301C145.397 225.123 146.227 305.642 146.227 305.642C146.227 305.642 208.991 344.515 249.754 296.7L253.42 214.346L259.266 192.602L258.083 148.557C258.083 148.557 234.463 136.235 214.611 136.608C214.611 136.608 210.835 156.37 185.762 138.236Z" fill="#BE4FFE"/>
<path d="M395.861 133.195C396.77 132.412 397.283 131.882 397.283 131.882C397.283 131.882 396.873 132.542 396.1 133.51L395.861 133.195Z" fill="white"/>
<path d="M245.717 67.8121C245.717 67.8121 247.381 120.806 223.854 121.117C222.402 121.111 216.94 120.311 216.94 120.311L214.611 138.236C214.611 138.236 206.823 156.727 185.816 137.734C185.917 136.954 191.613 92.9745 191.613 92.9745C191.613 92.9745 175.056 93.2563 182.891 76.6253L195.719 71.9107L209.19 53.2749L245.717 67.8121Z" fill="white"/>
<path d="M250.266 62.802C250.41 63.018 253.146 75.6424 244.291 78.9774C244.699 78.2066 243.931 66.2577 243.931 66.2577L250.266 62.802Z" fill="#131313"/>
<path d="M248.274 48.1738C248.387 35.8042 230.15 41.0944 230.15 41.0944C216.379 29.1807 194.183 32.9245 190.673 47.0604C185.933 45.0194 172.542 55.4351 182.282 66.8579C181.08 66.7617 175.2 74.8256 182.892 76.6251C187.915 70.2076 194.887 78.4612 194.887 78.4612L195.12 78.5831C197.217 79.6809 199.77 78.3762 200.107 76.0335C201.03 69.6172 205.677 59.4341 206.903 59.8489H206.901C206.901 59.8489 222.789 74.0075 227.269 64.9724C228.733 65.9979 240.464 74.902 249.361 64.715C258.573 65.7915 258.072 59.985 256.925 56.3745C264.305 46.0273 248.274 48.1738 248.274 48.1738Z" fill="#131313"/>
<path d="M222.882 121.441C222.267 121.441 221.641 121.415 221.004 121.361C220.588 121.337 210.539 120.649 202.845 111.623C202.729 111.487 202.745 111.282 202.882 111.166C203.018 111.05 203.223 111.066 203.339 111.202C210.855 120.02 220.637 120.689 221.05 120.714C221.668 120.766 222.275 120.791 222.87 120.791C227.632 120.792 231.661 119.129 234.874 115.837C241.436 109.111 243.537 96.6481 244.144 87.3775C244.804 77.297 243.887 68.7061 243.878 68.6206C243.858 68.4425 243.987 68.2822 244.165 68.2627C244.343 68.2431 244.504 68.3719 244.523 68.5501C244.532 68.6361 245.455 77.2745 244.792 87.4097C244.403 93.369 243.55 98.6755 242.256 103.181C240.633 108.838 238.306 113.249 235.339 116.289C231.999 119.713 227.815 121.441 222.882 121.441Z" fill="#131313"/>
<path d="M190.862 93.3142C187.136 93.3143 184.348 92.2908 182.557 90.2604C179.596 86.9048 180.403 81.9018 180.721 80.4484C181.047 78.9551 181.711 77.5623 182.64 76.4203C184.006 74.7402 185.612 73.884 187.412 73.8755C187.421 73.8755 187.43 73.8755 187.439 73.8755C191.46 73.8755 194.989 78.0748 195.137 78.254C195.251 78.3919 195.232 78.5964 195.094 78.7109C194.956 78.8254 194.752 78.8062 194.638 78.6684C194.603 78.6269 191.153 74.5246 187.439 74.5246C187.43 74.5246 187.422 74.5246 187.413 74.5246C185.818 74.5326 184.381 75.3083 183.143 76.8298C182.278 77.8933 181.66 79.1926 181.355 80.5869C181.054 81.9649 180.285 86.7041 183.044 89.8308C185.012 92.0616 188.327 92.9828 192.899 92.5686C193.078 92.5529 193.235 92.684 193.251 92.8626C193.268 93.0411 193.136 93.1989 192.957 93.2151C192.229 93.2812 191.53 93.3141 190.862 93.3142Z" fill="#131313"/>
<path d="M193.44 87.8567C193.433 87.8567 193.425 87.8564 193.417 87.8559C193.271 87.8456 193.154 87.7396 193.123 87.6032C193.035 87.4394 192.483 86.7027 189.459 83.4255C187.602 81.4127 185.717 79.4237 185.698 79.4038C185.575 79.2737 185.58 79.0683 185.71 78.9449C185.841 78.8217 186.046 78.8271 186.169 78.9572C186.188 78.9771 188.076 80.9695 189.936 82.9853C193.791 87.1635 193.778 87.3536 193.764 87.5549C193.752 87.7259 193.609 87.8567 193.44 87.8567ZM193.116 87.5094C193.116 87.5095 193.116 87.5096 193.116 87.5098C193.116 87.5096 193.116 87.5095 193.116 87.5094Z" fill="#131313"/>
<path d="M187.432 86.2204C187.359 86.2204 187.284 86.1954 187.224 86.1442C187.086 86.0288 187.069 85.824 187.184 85.6869L189.449 82.9965C189.564 82.8593 189.769 82.8416 189.906 82.9572C190.043 83.0726 190.061 83.2773 189.946 83.4145L187.681 86.1049C187.617 86.1811 187.525 86.2204 187.432 86.2204Z" fill="#131313"/>
<path d="M209.19 76.5092C209.086 76.5092 208.983 76.4592 208.921 76.3665C208.82 76.218 208.859 76.0163 209.008 75.9158C212.816 73.3396 216.7 73.4595 219.286 74.0138C222.079 74.6124 223.951 75.8019 224.029 75.8522C224.18 75.9491 224.224 76.1497 224.127 76.3005C224.03 76.4513 223.829 76.495 223.678 76.3983C223.66 76.3865 221.811 75.2145 219.127 74.6437C215.553 73.8832 212.27 74.4923 209.371 76.4535C209.316 76.4912 209.252 76.5092 209.19 76.5092Z" fill="#131313"/>
<path d="M227.269 100.965C227.145 100.965 227.027 100.893 226.973 100.773C226.899 100.609 226.973 100.417 227.136 100.344C227.17 100.328 230.567 98.8063 232.295 97.9978C232.505 97.6495 231.745 95.5677 231.134 93.8924C229.312 88.8979 226.557 81.3501 230.348 77.713C233.645 74.5498 240.668 78.339 240.966 78.5019C241.123 78.5879 241.18 78.7851 241.094 78.9424C241.008 79.0995 240.811 79.1573 240.654 79.0713C240.585 79.0337 233.752 75.3465 230.797 78.1816C227.312 81.5255 229.979 88.8339 231.744 93.6701C232.844 96.6854 233.397 98.199 232.582 98.5803C230.854 99.3896 227.436 100.921 227.402 100.936C227.359 100.955 227.313 100.965 227.269 100.965Z" fill="#131313"/>
<path d="M218.147 83.7177C218.437 82.0081 217.881 80.4876 216.904 80.3216C215.927 80.1557 214.9 81.407 214.609 83.1166C214.319 84.8262 214.875 86.3467 215.852 86.5127C216.829 86.6786 217.857 85.4273 218.147 83.7177Z" fill="#131313"/>
<path d="M237.398 87.1874C237.688 85.4778 237.132 83.9573 236.155 83.7914C235.178 83.6254 234.151 84.8768 233.86 86.5864C233.57 88.296 234.126 89.8164 235.103 89.9824C236.08 90.1484 237.108 88.897 237.398 87.1874Z" fill="#131313"/>
<path d="M185.816 138.059C185.803 138.059 185.789 138.058 185.774 138.056C185.597 138.033 185.471 137.87 185.494 137.692L191.291 92.9325C191.314 92.7548 191.477 92.6284 191.655 92.6523C191.833 92.6754 191.958 92.838 191.935 93.0159L186.138 137.776C186.117 137.94 185.977 138.059 185.816 138.059Z" fill="#131313"/>
<path d="M244.707 79.302C244.593 79.302 244.483 79.2423 244.423 79.1363C244.335 78.98 244.391 78.7823 244.547 78.6944C248.228 76.6263 250.224 73.6971 250.481 69.988C250.673 67.202 249.761 64.9918 249.751 64.9698C249.682 64.8046 249.759 64.6144 249.925 64.5448C250.09 64.4753 250.28 64.5526 250.35 64.7177C250.39 64.8124 251.326 67.0718 251.13 70.0063C250.948 72.7242 249.714 76.5361 244.865 79.2603C244.815 79.2887 244.76 79.302 244.707 79.302Z" fill="#131313"/>
<path d="M196.711 79.3046C196.116 79.3046 195.522 79.1598 194.969 78.8706L194.736 78.7487C194.699 78.7293 194.666 78.7027 194.639 78.6708C194.603 78.6284 191.009 74.4405 187.278 74.5073C185.717 74.537 184.327 75.3168 183.147 76.8252C183.069 76.9247 182.94 76.97 182.817 76.9412C178.724 75.9836 178.508 73.3128 178.743 71.806C179.079 69.6556 180.676 67.3767 181.744 66.7199C176.056 59.7355 179.222 53.8357 180.873 51.5991C183.47 48.0784 187.824 45.8582 190.448 46.6352C191.946 41.1564 196.405 36.8816 202.738 34.8732C207.071 33.4989 211.895 33.2722 216.688 34.2174C221.721 35.2098 226.399 37.462 230.229 40.7351C231.651 40.3461 240.948 37.9972 245.772 41.6555C247.592 43.0354 248.541 45.1043 248.597 47.8091C250.26 47.6308 256.945 47.1164 258.745 50.1047C259.657 51.6184 259.165 53.7462 257.282 56.4311C257.93 58.5401 258.341 61.3801 256.793 63.2569C255.489 64.8377 253.033 65.4428 249.493 65.0567C246.637 68.2688 243.25 69.8841 239.391 69.8843C238.254 69.8843 237.077 69.7442 235.859 69.4633C231.806 68.5283 228.589 66.3088 227.383 65.4517C226.536 66.9607 225.296 67.8821 223.692 68.1927C223.275 68.2734 222.842 68.3113 222.398 68.3113C216.26 68.3116 207.84 61.1048 206.781 60.1768C206.416 60.3474 205.253 61.8404 203.561 65.8069C201.997 69.4718 200.826 73.312 200.428 76.0797C200.252 77.3017 199.521 78.3249 198.422 78.887C197.877 79.1655 197.294 79.3046 196.711 79.3046ZM195.093 78.2026L195.27 78.2957C196.175 78.7695 197.216 78.7747 198.126 78.3092C199.035 77.8442 199.64 76.9979 199.785 75.9873C200.622 70.1763 204.677 60.7111 206.419 59.6414C206.627 59.5136 206.824 59.48 207.006 59.5418C207.057 59.5591 207.102 59.5882 207.137 59.6253C207.663 60.0875 217.588 68.7151 223.569 67.5555C225.079 67.263 226.226 66.3455 226.978 64.8284C227.02 64.7437 227.097 64.6815 227.189 64.6581C227.28 64.6346 227.378 64.6524 227.455 64.7068C227.502 64.7397 227.56 64.7806 227.627 64.8287C232.508 68.3078 241.789 72.8916 249.117 64.5017C249.187 64.4211 249.293 64.3802 249.399 64.3928C252.798 64.7899 255.117 64.2687 256.292 62.8438C257.693 61.1461 257.241 58.4423 256.615 56.4729C256.584 56.3755 256.601 56.2694 256.66 56.1861C258.455 53.6693 258.97 51.736 258.189 50.4398C256.391 47.4541 248.398 48.4846 248.317 48.4955C248.224 48.5078 248.13 48.4793 248.059 48.417C247.989 48.3546 247.949 48.2649 247.95 48.1708C247.974 45.5021 247.11 43.4841 245.381 42.1731C240.52 38.486 230.343 41.3763 230.24 41.406C230.135 41.4364 230.021 41.4115 229.937 41.3397C222.533 34.9334 211.933 32.6378 202.934 35.4917C196.688 37.4724 192.334 41.7176 190.987 47.1385C190.964 47.231 190.902 47.3087 190.817 47.3511C190.731 47.3934 190.632 47.3962 190.544 47.3584C188.489 46.4736 184.14 48.2637 181.395 51.9843C179.809 54.1335 176.745 59.8646 182.529 66.6473C182.614 66.7472 182.631 66.8885 182.571 67.0055C182.511 67.1225 182.388 67.1927 182.256 67.1814C181.805 67.2053 179.575 69.645 179.343 72.2383C179.161 74.2794 180.313 75.632 182.767 76.2607C184.047 74.698 185.56 73.8901 187.268 73.8582C187.303 73.8576 187.338 73.8573 187.373 73.8573C191.194 73.8573 194.652 77.6952 195.093 78.2026Z" fill="#131313"/>
<path d="M203.541 146.404C198.611 146.404 192.602 143.587 185.613 137.988C185.473 137.876 185.451 137.671 185.563 137.531C185.675 137.392 185.879 137.369 186.019 137.481C194.71 144.444 201.797 147.032 207.084 145.174C212.751 143.183 214.28 136.603 214.294 136.537C214.333 136.362 214.508 136.252 214.682 136.291C214.857 136.33 214.967 136.504 214.928 136.679C214.864 136.963 213.303 143.677 207.299 145.787C206.127 146.199 204.873 146.404 203.541 146.404Z" fill="#131313"/>
<path d="M197.494 321.064C193.627 321.064 189.695 320.775 185.709 320.197C173.029 318.356 159.692 313.555 146.068 305.925C145.973 305.872 145.911 305.775 145.903 305.667C145.833 304.766 145.77 300.05 145.674 292.911C145.355 269.156 144.692 219.726 142.332 200.023C140.009 180.625 143.528 165.186 152.793 154.134C159.552 146.072 168.163 141.955 174.197 139.92C180.732 137.717 185.748 137.413 185.798 137.41C185.977 137.401 186.13 137.537 186.14 137.716C186.15 137.895 186.013 138.048 185.834 138.059C185.785 138.061 180.84 138.362 174.382 140.543C168.432 142.552 159.942 146.614 153.285 154.558C144.144 165.465 140.676 180.736 142.976 199.946C145.34 219.683 146.004 269.137 146.323 292.903C146.414 299.651 146.475 304.231 146.539 305.445C182.026 325.266 208.342 321.75 224.175 315.302C232.843 311.771 239.143 307.094 242.902 303.792C247.221 299.999 249.24 297.148 249.429 296.704C249.429 296.701 249.429 296.698 249.429 296.695C249.617 284.22 254.214 185.774 254.26 184.781C254.269 184.602 254.42 184.465 254.599 184.472C254.778 184.48 254.917 184.632 254.908 184.811C254.862 185.803 250.281 283.927 250.079 296.645C250.119 296.839 249.983 297.11 249.597 297.662C249.339 298.03 248.869 298.655 248.094 299.546C245.264 302.797 234.595 313.785 216.089 318.689C210.121 320.271 203.899 321.064 197.494 321.064ZM249.493 296.893C249.493 296.893 249.493 296.894 249.494 296.894C249.493 296.894 249.493 296.893 249.493 296.893ZM249.492 296.892C249.492 296.892 249.492 296.893 249.493 296.893C249.492 296.892 249.492 296.892 249.492 296.892Z" fill="#131313"/>
<path d="M214.611 136.932C214.597 136.932 214.583 136.931 214.568 136.929C214.39 136.906 214.265 136.742 214.289 136.565C215.459 127.798 216.607 120.336 216.619 120.262C216.646 120.085 216.812 119.963 216.989 119.991C217.166 120.018 217.287 120.184 217.26 120.361C217.249 120.435 216.102 127.891 214.933 136.651C214.911 136.814 214.771 136.932 214.611 136.932Z" fill="#131313"/>
<path d="M342.758 179.21L352.091 144.119C352.091 144.119 352.362 133.026 360.145 124.06C361.017 122.824 366.593 107.314 371.484 109.092C372.121 110.245 373.403 118.29 371.484 123.695C372.344 124.501 386.122 112.637 392.063 106.751C393.321 105.349 399.249 97.4293 400.963 102.806C401.909 104.151 392.438 118.783 387.191 122.986C388.009 123.965 401.84 115.783 408.594 107.567C409.032 107.198 419.246 101.35 412.306 114.75C412.306 114.75 426.754 109.836 412.124 130.128C411.869 130.412 411.709 133.812 411.709 133.812C411.709 133.812 419.297 125.468 420.778 131.32C420.667 131.937 417.943 146.931 383.048 159.906C382.951 159.906 377.809 192.602 377.809 192.602C377.809 192.602 351.953 191.106 342.758 179.21Z" fill="white"/>
<path d="M257.074 148.036C257.074 148.036 311.352 185.347 330.809 204.456C330.625 204.295 336.69 200.541 342.758 179.21C344.727 180.837 359.277 191.877 377.809 192.602C377.809 192.602 357.482 253.535 338.476 259.703C338.96 259.531 313.482 261.968 253.656 214.773C253.775 214.858 257.074 148.036 257.074 148.036Z" fill="#BE4FFE"/>
<path d="M349.555 184.077C349.832 184.306 350.59 184.64 351.76 185.051C346.851 182.405 343.614 179.917 342.758 179.21C336.69 200.542 326.904 208.569 330.615 205.52C250.183 129.542 214.611 136.608 214.611 136.608C214.611 136.608 268.807 149.199 330.485 217.653C334.438 215.07 341.05 203.791 349.555 184.077Z" fill="white"/>
<path d="M332.018 205.845C331.941 205.845 331.864 205.818 331.802 205.763C331.506 205.5 301.791 179.17 268.692 155.436C258.256 147.954 246.855 143.514 239.128 141.107C229.898 138.231 220.738 136.67 214.624 136.932C214.446 136.938 214.294 136.801 214.286 136.622C214.279 136.442 214.417 136.291 214.597 136.283C220.78 136.019 230.023 137.59 239.321 140.487C247.093 142.908 258.564 147.375 269.07 154.909C302.198 178.662 331.937 205.014 332.233 205.277C332.367 205.396 332.379 205.602 332.26 205.736C332.196 205.808 332.107 205.845 332.018 205.845Z" fill="#131313"/>
<path d="M377.533 192.88C377.526 192.88 377.519 192.88 377.512 192.879C377.459 192.876 372.099 192.515 365.151 190.69C358.733 189.004 349.6 185.685 342.543 179.453C342.409 179.335 342.396 179.13 342.515 178.995C342.633 178.861 342.839 178.848 342.973 178.967C349.931 185.111 358.956 188.39 365.302 190.059C372.192 191.87 377.501 192.228 377.553 192.231C377.732 192.243 377.868 192.397 377.857 192.576C377.846 192.748 377.703 192.88 377.533 192.88Z" fill="#131313"/>
<path d="M337.712 261.74C336.833 261.74 335.887 261.667 334.869 261.521C330.848 260.945 325.616 259.176 319.318 256.263C304.254 249.294 282.019 235.28 253.23 214.609C253.084 214.505 253.051 214.302 253.156 214.156C253.26 214.011 253.463 213.977 253.608 214.082C282.364 234.728 304.564 248.722 319.591 255.674C331.038 260.969 338.555 262.362 342.571 259.931C348.948 254.782 356.433 244.441 363.11 231.554C369.789 218.664 375.031 204.442 377.491 192.536C377.528 192.361 377.701 192.248 377.875 192.284C378.05 192.32 378.163 192.492 378.127 192.668C372.918 217.872 356.485 249.546 342.962 260.45C342.951 260.459 342.939 260.467 342.927 260.474C341.539 261.321 339.818 261.74 337.712 261.74Z" fill="#131313"/>
<path d="M328.558 212.254C328.502 212.254 328.446 212.24 328.395 212.21C328.24 212.12 328.187 211.921 328.278 211.766C336.216 198.152 342.155 180.468 345.739 168.03C349.624 154.549 351.655 144.16 351.675 144.057C351.709 143.881 351.88 143.766 352.055 143.8C352.231 143.834 352.346 144.005 352.312 144.181C352.292 144.284 350.255 154.701 346.362 168.21C342.768 180.683 336.81 198.421 328.838 212.093C328.778 212.197 328.669 212.254 328.558 212.254Z" fill="#131313"/>
<path d="M377.533 192.88C377.51 192.88 377.487 192.878 377.464 192.873C377.289 192.835 377.178 192.662 377.215 192.487C380.699 176.365 382.61 160.032 382.629 159.869C382.649 159.691 382.809 159.563 382.988 159.584C383.166 159.604 383.294 159.765 383.273 159.944C383.254 160.107 381.341 176.471 377.85 192.624C377.817 192.776 377.683 192.88 377.533 192.88Z" fill="#131313"/>
<path d="M383.048 160.231C382.916 160.231 382.792 160.15 382.744 160.019C382.682 159.851 382.768 159.664 382.936 159.602C393.564 155.666 397.689 154 406.527 147.991C416.693 141.079 420.779 133.588 420.433 130.477C420.347 129.703 420 129.19 419.401 128.954C419.38 128.946 419.36 128.935 419.341 128.922C418.538 128.388 416.989 129.734 414.845 131.595C410.876 135.042 404.879 140.251 395.362 141.507C395.183 141.531 395.021 141.406 394.998 141.228C394.974 141.051 395.099 140.887 395.277 140.864C404.601 139.633 410.509 134.501 414.419 131.105C416.848 128.996 418.459 127.597 419.671 128.363C420.48 128.695 420.966 129.4 421.078 130.405C421.293 132.344 420.103 135.246 417.813 138.366C415.982 140.858 412.602 144.645 406.892 148.527C397.992 154.578 393.844 156.255 383.161 160.21C383.124 160.224 383.086 160.231 383.048 160.231Z" fill="#131313"/>
<path d="M396.042 141.126C395.912 141.126 395.79 141.048 395.74 140.92C395.674 140.753 395.756 140.565 395.923 140.499C399.533 139.082 401.635 138.083 405.31 135.57C413.986 129.981 418 121.392 418.082 117.078C418.108 115.717 417.771 114.752 417.108 114.288C417.102 114.284 417.095 114.279 417.089 114.273C415.639 113.084 413.404 115.1 411.781 117.005C408.029 121.97 402.541 126.043 398.598 128.585C396.69 129.815 394.675 130.985 392.922 131.878C390.49 133.119 390.225 133.027 390.111 132.987C389.969 132.938 389.875 132.805 389.877 132.657C389.88 132.479 390.025 132.337 390.201 132.337C390.203 132.337 390.205 132.337 390.207 132.337C390.236 132.337 390.264 132.342 390.29 132.349C390.904 132.201 394.317 130.599 398.527 127.857C402.337 125.376 407.641 121.409 411.269 116.606C411.272 116.601 411.276 116.596 411.281 116.591C413.91 113.502 415.999 112.551 417.491 113.764C418.332 114.359 418.761 115.509 418.731 117.09C418.682 119.677 417.449 123.063 415.348 126.38C413.641 129.074 410.577 132.949 405.669 136.111C401.949 138.655 399.819 139.667 396.16 141.103C396.122 141.119 396.081 141.126 396.042 141.126Z" fill="#131313"/>
<path d="M390.202 132.986C390.079 132.986 389.962 132.916 389.907 132.798C389.832 132.635 389.903 132.442 390.066 132.367C397.013 129.17 406.401 123.569 411.677 115.043C411.89 114.698 412.003 114.516 412.125 114.442C414.702 110.729 414.707 107.372 413.712 106.455C413.707 106.451 413.703 106.446 413.698 106.442C413.311 106.041 412.891 105.843 412.412 105.835C412.403 105.835 412.393 105.835 412.384 105.835C410.725 105.835 408.404 108.097 405.719 110.714C404.552 111.853 403.344 113.029 402.012 114.214C396.216 119.771 389.036 124.462 384.154 125.876C383.982 125.927 383.802 125.827 383.752 125.655C383.702 125.483 383.801 125.303 383.974 125.253C388.764 123.865 395.836 119.237 401.572 113.737C402.902 112.554 404.104 111.382 405.266 110.249C408.166 107.423 410.461 105.186 412.384 105.186C412.397 105.186 412.409 105.186 412.422 105.186C413.07 105.196 413.655 105.465 414.159 105.984C415.542 107.272 415.235 111.171 412.57 114.937C412.537 114.984 412.494 115.02 412.444 115.043C412.391 115.123 412.308 115.256 412.229 115.385C411.608 116.389 409.958 119.055 406.565 122.305C402.322 126.369 396.863 129.953 390.337 132.957C390.293 132.977 390.247 132.986 390.202 132.986Z" fill="#131313"/>
<path d="M384.064 125.889C383.967 125.889 383.87 125.845 383.806 125.761C383.697 125.619 383.725 125.415 383.867 125.306C388.338 121.891 392.486 117.57 396.196 112.462C399.24 108.473 401.037 104.204 400.569 102.073C400.457 101.562 400.213 101.204 399.846 101.009C399.828 101 399.812 100.989 399.796 100.976C398.555 99.9913 395.942 102.909 392.916 106.286C390.655 108.81 388.093 111.67 385.243 113.974C378.505 120.17 373.191 123.572 371.569 124.008C371.395 124.055 371.218 123.952 371.171 123.779C371.124 123.606 371.227 123.428 371.4 123.382C372.914 122.974 378.224 119.548 384.812 113.49C384.817 113.485 384.822 113.48 384.827 113.476C387.64 111.203 390.186 108.361 392.432 105.853C395.927 101.953 398.456 99.1292 400.176 100.45C400.705 100.74 401.05 101.239 401.203 101.934C401.717 104.274 399.914 108.661 396.717 112.85C392.974 118.002 388.782 122.369 384.261 125.822C384.202 125.867 384.133 125.889 384.064 125.889Z" fill="#131313"/>
<path d="M352.09 144.443C351.944 144.443 351.812 144.344 351.776 144.197C351.711 143.935 350.301 137.634 359.521 124.31C359.528 124.3 359.536 124.29 359.545 124.28C361.556 122.005 365.218 114.648 367.222 110.465C367.792 109.276 369.005 108.62 370.311 108.795C371.619 108.97 372.618 109.923 372.856 111.223C373.589 115.237 372.585 121.287 369.873 129.205C369.815 129.375 369.63 129.465 369.461 129.407C369.291 129.349 369.201 129.165 369.259 128.995C371.935 121.183 372.93 115.243 372.217 111.339C371.992 110.104 371.04 109.547 370.225 109.438C369.411 109.33 368.349 109.615 367.807 110.746C365.347 115.881 362.006 122.464 360.044 124.695C355.336 131.501 353.51 136.402 352.807 139.314C352.047 142.465 352.403 144.027 352.406 144.042C352.448 144.216 352.341 144.391 352.167 144.433C352.142 144.44 352.116 144.443 352.09 144.443Z" fill="#131313"/>
<path d="M368.5 151.567C368.426 151.567 368.352 151.542 368.291 151.491C368.154 151.375 368.136 151.171 368.252 151.034C372.233 146.306 373.622 141.213 372.38 135.896C371.453 131.93 369.336 129.333 369.315 129.307C369.201 129.169 369.221 128.964 369.359 128.85C369.497 128.736 369.701 128.756 369.816 128.894C369.907 129.004 372.051 131.636 373.012 135.748C373.899 139.548 373.881 145.358 368.748 151.452C368.684 151.528 368.592 151.567 368.5 151.567Z" fill="#131313"/>
<path d="M296.514 160.852C282.735 164.479 260.293 182.313 254.021 196.933L252.411 221.296C252.411 221.296 267.327 228.846 267.064 228.573C266.8 228.299 296.514 160.852 296.514 160.852Z" fill="#EE46BC"/>
<path d="M267.102 228.909C266.955 228.909 266.728 228.801 266.277 228.587C265.891 228.404 265.328 228.13 264.603 227.774C263.383 227.173 261.689 226.329 259.566 225.265C255.953 223.452 252.301 221.604 252.265 221.586L252.073 221.489L253.701 196.856L253.723 196.805C256.648 189.989 263.398 181.866 272.245 174.521C280.655 167.539 289.696 162.312 296.432 160.539L297.082 160.367L296.811 160.983C286.964 183.333 268.445 225.534 267.423 228.478L267.487 228.545L267.327 228.772C267.26 228.863 267.198 228.909 267.102 228.909ZM252.749 221.104C257.869 223.695 265.268 227.412 266.855 228.143C267.009 227.706 267.337 226.924 267.954 225.458C268.701 223.684 269.812 221.09 271.256 217.747C273.688 212.118 277.099 204.29 281.393 194.48C287.91 179.592 294.528 164.559 295.942 161.347C282.53 165.246 260.606 182.486 254.341 197.01L252.749 221.104Z" fill="#0C0C0C"/>
<path d="M177.763 163.321C177.649 163.365 177.689 163.33 177.763 163.321V163.321Z" fill="white"/>
<path d="M236.8 216.814C240.864 213.622 245.595 211.899 250.626 210.908C250.591 210.879 250.555 210.849 250.52 210.82L250.468 210.777L250.424 210.727C246.497 206.31 239.716 198.458 236.023 194.171L235.689 193.783L235.856 193.299C236.669 190.942 238.023 184.082 233.042 171.287C233.037 171.275 233.03 171.263 233.023 171.248C231.928 169.194 230.354 163.563 228.591 155.393C228.277 153.935 227.114 152.895 225.629 152.745C225.47 152.728 225.309 152.722 225.152 152.727C223.837 152.767 223.549 153.511 223.011 154.736C221.936 157.176 221.628 166.414 221.542 170.76L218.729 165.295C217.997 163.517 217.315 161.914 216.642 160.391C212.03 149.923 208.299 144.043 205.551 142.917C205.168 142.76 204.792 142.686 204.434 142.697C204.143 142.705 205.182 142.79 204.916 142.908L203.565 142.901L203.535 142.913C202.854 143.159 203.469 143.821 203.16 144.512C202.633 145.687 202.68 147.323 203.314 149.838C203.726 150.252 204.027 150.792 204.184 151.419C205.691 155.725 207.844 159.601 208.49 164.122C205.666 160.417 203.134 156.277 201.482 151.94L200.992 152.089C197.713 146.908 194.969 144.168 192.358 143.468C191.871 143.337 191.385 143.278 190.915 143.292C190.084 143.317 189.902 143.75 189.117 144.229C188.269 144.745 188.643 145.144 188.715 146.536L188.619 148.405L186.157 147.824C185.708 147.685 185.257 147.621 184.818 147.635C184.353 147.649 183.919 147.747 183.514 147.934C182.772 148.261 183.751 147.757 183.493 148.573C182.588 151.406 187.762 164.137 193.244 173.331L187.438 168.638C182.048 163.642 180.223 162.986 179.053 163.021C178.717 163.032 178.398 163.103 178.091 163.183C178.057 163.191 178.021 163.204 177.988 163.22C177.88 163.273 177.81 163.303 177.763 163.321C177.862 163.31 178.017 163.352 177.923 163.716C177.174 166.641 180.792 173.387 186.813 181.937C201.635 202.999 224.531 228.501 227.24 231.361L227.319 231.446C229.253 225.905 231.775 220.709 236.8 216.814Z" fill="white"/>
<path d="M303.815 262.581C301.063 257.876 297.017 254.597 293.741 250.327C290.621 246.457 287.456 243.067 283.009 239.945C278.558 236.707 274.964 232.864 272.732 228.114L272.295 227.795C265.282 222.688 257.392 216.539 250.625 210.908C245.595 211.899 240.863 213.622 236.8 216.814C231.775 220.709 229.253 225.905 227.319 231.446L227.497 231.634L227.483 232.009L227.478 232.072L227.478 232.115C227.47 232.563 228.67 234.403 231.147 237.738C233.137 240.417 236.445 244.668 240.908 249.708C248.358 258.118 260.037 269.816 273.371 277.782C278.15 280.64 282.856 282.845 287.367 284.345C288.321 284.123 289.289 284.054 290.113 284.312C297.731 286.571 305.874 285.965 313.425 284.084C311.176 276.618 308.024 269.573 303.815 262.581Z" fill="#EE46BC"/>
<path d="M297.516 160.443L296.759 160.753L297.492 160.456C297.5 160.451 297.508 160.447 297.516 160.443Z" fill="white"/>
<path d="M297.516 160.443L298.111 160.199C297.964 160.226 297.763 160.31 297.516 160.443Z" fill="white"/>
<path d="M298.111 160.199L297.516 160.443C297.508 160.447 297.5 160.451 297.493 160.456L298.14 160.193C298.131 160.194 298.12 160.198 298.111 160.199Z" fill="white"/>
<path d="M464.197 128.075C461.929 127.272 459.605 126.84 457.291 126.793C454.983 126.746 452.487 127.007 450.074 127.259C445.619 127.725 441.012 128.206 437.131 126.832C435.453 126.237 434.041 125.356 432.814 124.138C429.905 121.244 429.067 117.197 428.256 113.282C427.972 111.913 427.679 110.497 427.302 109.178C425.117 101.512 418.79 94.9906 410.792 92.1577C407.335 90.9335 403.831 90.4811 400.377 90.8136C398.807 90.9641 397.166 91.2632 395.58 91.5522C391.615 92.2753 387.514 93.023 383.71 91.676C383.37 91.5556 383.033 91.4182 382.707 91.2672C378.523 89.3278 376.227 85.241 374.006 81.2884C373.48 80.3517 372.936 79.3833 372.383 78.4777C367.211 70.0157 358.324 63.2169 347.359 59.3332C347.024 59.2142 346.687 59.0984 346.35 58.9859C337.185 55.9262 326.666 54.7015 313.244 55.1315C308.477 55.2828 302.977 55.6173 298.033 57.6825C292.898 59.8269 289.149 63.7358 288.002 68.1387C286.534 73.7836 288.952 80.1238 295.394 87.5221L295.759 87.9422L295.542 88.4551C289.218 103.382 287.362 115.547 290.175 123.635C291.985 128.842 295.714 132.489 301.258 134.477L302.193 134.812L301.759 135.705C299.853 139.63 296.412 149.303 305.599 154.367L306.764 155.008L306.072 156.055C305.017 156.904 304.512 157.583 303.279 158.082L298.111 160.199C298.12 160.197 298.131 160.194 298.14 160.193L297.493 160.455C296.758 160.856 295.618 161.684 294.218 162.756C294.124 163.081 294.278 163.719 294.024 163.846C293.394 164.634 292.763 165.423 292.606 166.526C292.448 166.526 291.975 166.526 291.975 166.526C291.66 168.418 289.926 169.364 289.611 171.098C289.453 171.571 289.138 171.886 289.138 172.359C289.138 172.517 288.822 172.832 288.507 172.674C286.25 179.819 287.207 183.772 290.833 187.713C291.148 188.186 292.606 188.281 292.29 189.384C292.448 189.384 292.763 189.384 292.921 189.384C292.606 190.488 293.867 191.276 294.655 191.591C295.286 191.907 295.916 192.222 296.547 192.222C303.483 193.01 310.913 193.146 317.062 190.466C317.692 190.15 318.58 189.515 319.053 189.358C325.358 187.308 329.652 182.606 335.169 179.138C335.169 178.98 335.169 178.665 335.169 178.507C336.115 178.034 336.588 177.404 337.376 176.773C337.376 176.773 337.534 176.142 337.692 175.985C338.637 175.827 338.48 174.566 338.953 174.408C341.317 173.305 342.578 170.783 344.155 168.891C344.312 168.891 344.098 168.343 344.256 168.343C345.044 166.767 347.117 164.936 347.748 163.518C348.378 162.414 347.308 161.482 348.726 161.324C349.988 161.166 351.249 162.112 352.352 162.585C354.402 163.531 357.082 164.319 359.289 165.58C359.289 165.738 359.289 166.053 359.289 166.211C360.077 166.684 360.55 167.157 361.18 167.787C361.338 168.103 361.338 168.576 361.496 168.891C365.279 172.517 368.274 176.615 372.058 180.241C375.21 183.394 378.363 187.02 379.467 191.276C380.511 194.799 380.151 198.646 379.996 202.46C380.775 202.171 381.617 201.806 382.505 201.421C384.996 200.34 387.571 199.222 389.624 199.416C390.851 199.532 392.035 199.789 393.141 200.181C395.298 200.945 397.065 202.198 398.251 203.807C399.732 205.819 400.273 208.244 400.795 210.589L400.947 211.265C402.544 218.333 404.966 223.02 408.566 226.014C409.708 226.963 411.174 227.771 412.805 228.348C416.645 229.708 421.738 229.828 424.516 227.053L478.921 142.857C476.734 136.171 471.128 130.53 464.197 128.075Z" fill="white"/>
<path d="M379.467 191.276C378.363 187.02 375.21 183.394 372.058 180.241C368.274 176.615 365.279 172.517 361.496 168.891C361.338 168.576 361.338 168.103 361.18 167.787C360.55 167.157 360.077 166.684 359.289 166.211C359.289 166.053 359.289 165.738 359.289 165.581C357.082 164.319 354.402 163.531 352.352 162.585C351.249 162.112 349.988 161.167 348.727 161.324C347.308 161.482 347.878 163.199 347.247 164.303C346.617 165.721 345.209 166.532 344.421 168.109C344.264 168.109 344.312 168.891 344.155 168.891C342.578 170.783 341.317 173.305 338.953 174.408C338.48 174.566 338.637 175.827 337.691 175.985C337.534 176.143 337.376 176.773 337.376 176.773C336.588 177.404 336.115 178.034 335.169 178.507C335.169 178.665 335.169 178.98 335.169 179.138C329.652 182.606 325.766 187.514 319.46 189.564C318.987 189.721 317.671 189.767 317.04 190.082C310.892 192.762 305.607 192.501 298.671 191.713C298.04 191.713 296.65 191.109 296.019 190.794C295.231 190.478 292.221 190.11 292.536 189.007C292.378 189.007 292.448 189.384 292.29 189.384C292.606 188.281 291.148 188.186 290.833 187.713C287.207 183.772 286.209 180.141 288.507 172.674C288.822 172.832 289.137 172.517 289.137 172.359C289.137 171.886 289.453 171.571 289.61 171.098C289.926 169.364 291.66 168.418 291.975 166.526C291.975 166.526 292.448 166.526 292.605 166.526C292.763 165.423 293.394 164.635 294.024 163.846C294.278 163.719 294.123 163.081 294.218 162.755C292.488 164.079 290.361 165.775 288.105 167.498C283.186 171.253 274.78 176.302 270.128 191.728L270.058 191.958L269.883 192.122C266.011 195.736 263.212 200.532 261.565 206.378L261.028 208.285L261.029 209.184C261.389 214.419 260.191 219.341 263.167 223.971C266.181 228.493 270.281 230.65 271.788 235.387C273.295 240.554 275.879 245.075 276.74 250.458C278.132 258.499 278.518 266.207 277.911 273.98C278.392 274.042 278.872 274.098 279.352 274.148C281.935 280.823 284.949 288.574 282.796 295.248C282.734 295.46 282.661 295.669 282.58 295.874C282.842 295.803 285.414 296.998 285.646 297.037C293.454 298.352 294.482 300.502 303.566 297.448C305.703 296.908 314.225 295.834 316.623 295.17C318.761 294.629 319.901 293.361 322.997 293.088C327.365 290.526 329.721 288.878 334.709 287.617C338.532 286.592 343.898 284.717 346.852 281.871C347.441 281.431 348.798 281.263 349.194 280.754C349.851 280.122 350.508 279.489 350.96 279.433C353.49 278.794 355.195 277.098 357.064 275.705C352.75 264.446 351.994 252.666 359.18 245.083C359.194 245.04 368.683 234.111 366.97 232.95C372.891 226.871 373.521 217.578 376.628 211.669C377.946 209.16 378.808 206.334 379.189 203.27L379.257 202.725L379.774 202.54C379.847 202.514 379.921 202.487 379.995 202.459C380.151 198.646 380.511 194.799 379.467 191.276Z" fill="#EE46BC"/>
<path d="M310.081 135.616C305.145 135.616 301.78 134.4 301.541 134.312C295.967 132.367 292.221 128.746 290.414 123.552C288.854 119.068 288.725 113.363 290.031 106.593C291.071 101.202 293.018 95.1227 295.819 88.5239C300.583 77.3005 306.248 68.3342 306.304 68.245C306.405 68.0863 306.616 68.0392 306.774 68.14C306.933 68.2409 306.98 68.4512 306.879 68.61C306.823 68.6988 301.184 77.6252 296.442 88.7989C292.081 99.0761 287.606 113.409 291.057 123.328C292.792 128.316 296.397 131.796 301.772 133.671C302.008 133.759 305.277 134.939 310.077 134.939C313.655 134.939 318.084 134.284 322.744 132.031C322.914 131.949 323.117 132.02 323.199 132.189C323.281 132.358 323.21 132.562 323.041 132.644C318.28 134.945 313.747 135.616 310.081 135.616Z" fill="#131313"/>
<path d="M347.864 121.507C345.604 121.507 343.063 120.732 340.266 119.186C340.101 119.095 340.041 118.888 340.132 118.723C340.223 118.558 340.43 118.499 340.595 118.59C344.797 120.912 348.36 121.428 351.185 120.122C355.143 118.291 356.405 113.429 356.697 111.983C356.993 110.52 356.948 109.015 356.568 107.632C356.024 105.654 354.976 104.306 353.452 103.626C349.894 102.039 344.84 104.524 344.789 104.549C344.621 104.633 344.416 104.565 344.332 104.397C344.248 104.229 344.316 104.024 344.484 103.94C344.703 103.831 349.874 101.286 353.727 103.003C355.448 103.77 356.624 105.267 357.225 107.452C357.633 108.937 357.681 110.55 357.364 112.118C357.056 113.644 355.72 118.774 351.47 120.74C350.365 121.251 349.161 121.507 347.864 121.507Z" fill="#131313"/>
<path d="M342.199 113.88C342.161 113.88 342.122 113.874 342.084 113.86C341.907 113.797 341.815 113.602 341.879 113.425C341.95 113.226 342.018 113.038 347.47 110.662C350.101 109.516 352.748 108.404 352.775 108.393C352.948 108.32 353.148 108.402 353.221 108.575C353.293 108.748 353.212 108.948 353.038 109.021C353.012 109.032 350.369 110.142 347.742 111.286C343.466 113.149 342.627 113.622 342.473 113.742C342.409 113.829 342.307 113.88 342.199 113.88Z" fill="#131313"/>
<path d="M348.641 114.846C348.494 114.846 348.358 114.749 348.314 114.601L347.28 111.07C347.227 110.89 347.33 110.7 347.511 110.648C347.691 110.595 347.88 110.698 347.933 110.879L348.968 114.409C349.021 114.59 348.917 114.779 348.737 114.832C348.705 114.841 348.673 114.846 348.641 114.846Z" fill="#131313"/>
<path d="M330.462 97.4056C330.328 97.4056 330.201 97.3258 330.147 97.194C329.01 94.4155 327.016 92.8176 324.219 92.4446C322.101 92.162 320.291 92.7204 320.273 92.7261C320.094 92.7826 319.902 92.6831 319.846 92.5038C319.789 92.3246 319.888 92.1334 320.068 92.0768C320.147 92.0519 322.022 91.4706 324.285 91.7663C326.394 92.0421 329.233 93.1629 330.777 96.9362C330.848 97.1102 330.765 97.309 330.591 97.3802C330.549 97.3974 330.505 97.4056 330.462 97.4056Z" fill="#131313"/>
<path d="M302.489 110.9C302.387 110.9 302.285 110.854 302.218 110.767C302.205 110.75 300.952 109.107 299.79 107.48C299.206 106.661 299.016 105.634 299.27 104.66C299.519 103.703 300.172 102.914 301.061 102.495C305.405 100.447 308.753 97.1112 310.016 93.5722C310.788 91.1211 310.64 89.081 309.571 87.5212C307.574 84.6048 303 84.2755 302.953 84.2726C302.766 84.2604 302.624 84.0984 302.636 83.9109C302.648 83.7231 302.812 83.5792 302.998 83.5932C303.199 83.6063 307.951 83.9498 310.133 87.1367C311.326 88.8779 311.503 91.116 310.662 93.7891C309.335 97.5071 305.856 100.988 301.351 103.111C300.646 103.444 300.127 104.071 299.929 104.832C299.726 105.61 299.877 106.431 300.344 107.084C301.5 108.702 302.747 110.337 302.759 110.353C302.874 110.503 302.845 110.717 302.695 110.831C302.634 110.878 302.561 110.9 302.489 110.9Z" fill="#131313"/>
<path d="M324.01 103.108C324.622 101.401 324.328 99.7327 323.352 99.3826C322.376 99.0326 321.089 100.133 320.476 101.841C319.863 103.548 320.158 105.216 321.133 105.566C322.109 105.917 323.397 104.816 324.01 103.108Z" fill="#131313"/>
<path d="M304.066 95.6694C304.679 93.9618 304.384 92.2938 303.408 91.9437C302.433 91.5936 301.145 92.6941 300.532 94.4017C299.92 96.1093 300.214 97.7774 301.19 98.1275C302.166 98.4776 303.453 97.377 304.066 95.6694Z" fill="#131313"/>
<path d="M309.442 122.449C309.022 122.449 308.617 122.44 308.23 122.425C308.043 122.417 307.896 122.259 307.904 122.071C307.911 121.883 308.071 121.736 308.258 121.744C311.413 121.87 315.888 121.558 319.285 119.358C319.443 119.255 319.654 119.301 319.756 119.458C319.858 119.616 319.813 119.827 319.655 119.929C316.529 121.954 312.566 122.449 309.442 122.449Z" fill="#131313"/>
<path d="M305.332 192.804C302.755 192.804 300.637 192.509 299.108 192.193C299.1 192.191 299.093 192.189 299.085 192.187C292.465 190.335 288.487 187.154 287.263 182.733C286.155 178.732 287.367 173.633 290.768 167.986C293.319 163.751 296.238 160.649 296.267 160.618C296.301 160.583 296.341 160.555 296.386 160.537L302.375 158.108C306.7 156.354 309.845 152.579 310.79 148.01L313.489 134.959C313.527 134.775 313.708 134.657 313.891 134.695C314.076 134.733 314.194 134.913 314.156 135.097L311.457 148.147C310.466 152.94 307.167 156.9 302.631 158.739L296.712 161.139C296.32 161.564 293.676 164.476 291.345 168.349C289.045 172.169 286.584 177.734 287.919 182.552C289.075 186.725 292.89 189.745 299.257 191.528C303.326 192.368 311.636 193.049 321.648 188.213C331.289 183.555 339.915 175.114 347.29 163.121L340.965 158.682C338.263 157.213 336.866 154.205 337.489 151.191L343.842 120.469C343.88 120.285 344.06 120.167 344.244 120.205C344.428 120.243 344.547 120.423 344.509 120.607L338.156 151.329C337.593 154.053 338.859 156.771 341.307 158.093C341.318 158.099 341.33 158.106 341.341 158.114L347.943 162.748C348.09 162.851 348.132 163.051 348.038 163.204C340.557 175.455 331.778 184.076 321.944 188.826C315.503 191.938 309.745 192.804 305.332 192.804Z" fill="#131313"/>
<path d="M325.969 69.9331C325.969 69.9331 324.986 96.7352 349.071 102.881C350.143 102.556 366.024 64.6793 325.969 69.9331Z" fill="#131313"/>
<path d="M327.258 74.0965C327.258 74.0965 307.437 69.9739 297.043 82.706C297.143 82.4778 294.411 50.9239 328.171 69.684L327.258 74.0965Z" fill="#131313"/>
<path d="M261.455 219.956C261.287 219.956 261.142 219.833 261.118 219.663C260.285 213.688 260.671 208.267 262.267 203.549C263.547 199.766 265.601 196.427 268.373 193.624C273.092 188.853 278.181 187.318 278.395 187.255C278.575 187.202 278.764 187.305 278.817 187.486C278.871 187.666 278.767 187.855 278.587 187.908C278.536 187.923 273.43 189.468 268.835 194.125C264.602 198.416 259.944 206.313 261.792 219.568C261.818 219.755 261.688 219.927 261.502 219.953C261.486 219.955 261.47 219.956 261.455 219.956Z" fill="#131313"/>
<path d="M295.152 298.912C286.229 298.912 282.9 296.185 282.749 296.056C282.685 296.002 282.643 295.926 282.632 295.842L279.832 275.083C279.807 274.897 279.937 274.725 280.124 274.7C280.31 274.675 280.481 274.806 280.507 274.992L283.288 295.611C283.966 296.097 288.218 298.789 298.299 298.123C308.462 297.452 326.772 293.135 356.327 276.406C353.48 269.302 353.121 260.015 355.293 249.521C355.331 249.337 355.511 249.219 355.695 249.256C355.879 249.294 355.997 249.475 355.959 249.659C353.787 260.157 354.171 269.412 357.07 276.425C357.136 276.584 357.073 276.767 356.924 276.851C343.72 284.34 331.617 290.015 320.951 293.716C312.404 296.682 304.752 298.396 298.206 298.812C297.123 298.88 296.105 298.912 295.152 298.912Z" fill="#131313"/>
<path d="M289.919 249.181C289.823 249.181 289.728 249.141 289.66 249.062C289.538 248.92 289.554 248.705 289.697 248.582C300.365 239.422 320.176 207.645 320.375 207.325C320.474 207.165 320.685 207.116 320.844 207.215C321.004 207.315 321.053 207.525 320.953 207.684C320.754 208.005 300.887 239.871 290.14 249.099C290.076 249.154 289.997 249.181 289.919 249.181Z" fill="#131313"/>
<path d="M301.394 287.058C292.523 287.058 282.978 283.954 272.846 277.754C259.627 269.666 248.091 257.864 240.74 249.387C236.339 244.312 233.078 240.031 231.118 237.333C230.752 236.829 227.542 232.394 227.557 231.826C227.665 225.723 231.376 221.081 234.47 218.262C239.627 213.564 246.856 210.564 250.123 210.812C250.195 210.817 250.263 210.845 250.318 210.892C263.526 222.137 286.472 239.92 295.551 242.82C295.73 242.877 295.829 243.069 295.771 243.248C295.714 243.427 295.522 243.525 295.344 243.468C286.19 240.545 263.227 222.769 249.963 211.484C247.186 211.352 240.351 213.825 234.929 218.765C231.941 221.487 228.358 225.956 228.239 231.799C228.588 232.727 235.16 242.461 245.136 253.283C254.284 263.207 268.438 276.358 283.911 282.649C296.603 287.809 308.243 287.585 318.506 281.985C338.432 271.113 375.756 234.371 379.201 199.861C379.947 192.381 376.477 185.288 368.278 177.539C360.788 170.46 350.054 163.565 338.786 156.536C338.627 156.436 338.578 156.226 338.678 156.067C338.777 155.907 338.987 155.859 339.147 155.958C350.445 163.006 361.21 169.922 368.746 177.044C372.744 180.823 375.587 184.406 377.437 187.998C379.484 191.974 380.283 195.876 379.879 199.928C376.41 234.677 338.872 271.649 318.832 282.583C313.363 285.567 307.54 287.058 301.394 287.058ZM228.238 231.836C228.238 231.838 228.238 231.839 228.238 231.841C228.238 231.839 228.238 231.838 228.238 231.836Z" fill="#131313"/>
<path d="M235.206 193.996C235.148 193.996 235.09 193.981 235.036 193.95C234.873 193.855 234.818 193.647 234.912 193.485C234.931 193.451 235.825 191.834 235.996 188.346C236.155 185.101 235.704 179.533 232.651 171.429C231.225 168.667 229.503 161.139 228.308 155.303C228.045 154.019 227.039 153.459 226.186 153.363C225.332 153.267 224.225 153.591 223.683 154.787C221.97 158.569 221.474 164.85 222.21 173.457C222.226 173.644 222.087 173.809 221.899 173.825C221.711 173.841 221.547 173.702 221.531 173.515C220.786 164.791 221.301 158.395 223.063 154.506C223.634 153.247 224.889 152.533 226.262 152.686C227.633 152.84 228.698 153.814 228.975 155.166C229.948 159.92 231.8 168.315 233.264 171.134C233.271 171.145 233.276 171.158 233.281 171.17C236.399 179.439 236.846 185.133 236.673 188.453C236.482 192.097 235.541 193.757 235.501 193.826C235.438 193.935 235.324 193.996 235.206 193.996Z" fill="#131313"/>
<path d="M250.098 211.492C250.003 211.492 249.908 211.452 249.841 211.375C244.855 205.648 235.045 193.991 234.946 193.874C234.825 193.731 234.844 193.516 234.988 193.395C235.132 193.274 235.346 193.292 235.467 193.436C235.566 193.553 245.373 205.205 250.354 210.928C250.478 211.069 250.463 211.284 250.321 211.408C250.257 211.464 250.177 211.492 250.098 211.492Z" fill="#131313"/>
<path d="M227.753 231.264C227.662 231.264 227.571 231.228 227.504 231.156C227.246 230.88 201.484 203.227 186.096 180.87C180.208 172.315 176.637 166.929 177.388 164.12C177.567 163.452 177.992 162.953 178.652 162.639C178.673 162.629 178.694 162.621 178.717 162.616C180.43 162.193 182.049 161.794 195.746 176.155C195.876 176.291 195.871 176.507 195.735 176.637C195.599 176.767 195.383 176.761 195.254 176.625C181.942 162.667 180.289 162.93 178.915 163.268C178.454 163.496 178.17 163.833 178.046 164.296C177.338 166.944 181.864 173.521 186.657 180.484C202.017 202.799 227.744 230.415 228.002 230.692C228.13 230.829 228.123 231.045 227.986 231.173C227.92 231.234 227.836 231.264 227.753 231.264Z" fill="#131313"/>
<path d="M195.5 176.731C195.382 176.731 195.268 176.669 195.205 176.56L189.825 167.196C184.269 157.733 182.018 151.769 182.943 148.965C183.189 148.221 183.659 147.697 184.341 147.407C185.901 146.701 188.407 147.326 190.206 150.375C195.003 158.504 202.943 172.3 203.022 172.438C203.116 172.601 203.06 172.81 202.897 172.903C202.734 172.997 202.526 172.941 202.432 172.778C202.352 172.64 194.414 158.847 189.62 150.721C188.034 148.034 185.914 147.443 184.615 148.031C184.107 148.247 183.774 148.621 183.59 149.178C183.007 150.946 183.717 155.447 190.414 166.854L195.795 176.22C195.889 176.383 195.833 176.592 195.669 176.685C195.616 176.716 195.558 176.731 195.5 176.731Z" fill="#131313"/>
<path d="M211.11 169.855C211.001 169.855 210.893 169.803 210.828 169.705C209.302 167.449 207.643 164.324 205.886 161.015C201.894 153.493 197.368 144.967 192.868 143.708C191.766 143.4 190.735 143.545 189.714 144.153C188.549 144.846 188.752 147.356 190.219 150.401C190.301 150.57 190.23 150.774 190.061 150.855C189.891 150.937 189.688 150.866 189.606 150.696C187.925 147.21 187.833 144.479 189.366 143.568C190.538 142.87 191.779 142.696 193.051 143.052C197.833 144.39 202.431 153.053 206.488 160.696C208.235 163.988 209.886 167.098 211.391 169.324C211.497 169.48 211.456 169.691 211.3 169.797C211.242 169.836 211.176 169.855 211.11 169.855Z" fill="#131313"/>
<path d="M222.586 175.853C222.445 175.853 222.313 175.764 222.264 175.623C222.162 175.325 211.989 145.812 205.953 143.258C205.481 143.058 205.069 143.047 204.695 143.223C204.682 143.229 204.668 143.234 204.654 143.239C204.19 143.389 203.859 143.69 203.643 144.159C202.264 147.151 205.867 155.795 208.763 162.74C209.784 165.191 210.749 167.505 211.43 169.399C211.493 169.576 211.402 169.771 211.225 169.835C211.047 169.898 210.853 169.807 210.789 169.63C210.114 167.752 209.152 165.444 208.134 163.002C205.034 155.566 201.52 147.137 203.024 143.874C203.317 143.238 203.788 142.809 204.425 142.597C204.971 142.347 205.574 142.358 206.218 142.631C212.532 145.302 222.487 174.174 222.908 175.402C222.969 175.58 222.874 175.773 222.696 175.834C222.66 175.847 222.623 175.853 222.586 175.853Z" fill="#131313"/>
<path d="M378.511 203.827C381.531 203.256 386.481 200.015 389.542 200.303C392.602 200.591 395.708 201.861 397.533 204.335C399.041 206.382 399.515 208.983 400.076 211.462C401.363 217.149 403.514 222.971 407.998 226.701C419.539 236.298 426.772 222.713 437.814 219.819C443.108 218.432 449.054 218.162 453.169 214.554C457.776 210.515 458.48 203.754 459.331 197.687C459.958 193.223 460.857 188.721 462.939 184.722C465.021 180.723 468.434 177.24 472.753 175.946C474.208 175.51 475.749 175.322 477.119 174.665C486.462 170.184 483.991 151.529 480.857 143.988C476.822 134.281 468.285 126.128 457.309 125.903C449.047 125.733 439.306 129.331 433.444 123.506C429.726 119.812 429.599 113.973 428.161 108.933C424.814 97.1997 412.438 88.759 400.293 89.9257C394.489 90.4832 388.372 92.9076 383.082 90.4579C378.18 88.1884 375.958 82.6221 373.142 78.0126C367.264 68.3922 357.324 61.7108 346.631 58.1407C335.937 54.5706 324.483 53.8789 313.215 54.2397C307.939 54.4086 302.56 54.8266 297.689 56.8605C292.817 58.8945 288.469 62.806 287.14 67.9149C285.084 75.8192 290.526 83.5942 296.058 89.6028C299.307 81.7092 300.026 77.3339 304.538 74.539C309.051 71.7441 311.928 70.3765 317.229 70.6435C324.05 70.9871 331.59 72.5237 335.549 78.0884C340.571 85.1469 338.484 96.8667 345.975 101.217C349.874 103.482 359.28 101.175 355.998 114.849C354.106 122.732 344.332 119.901 344.046 121.164C342.079 129.834 339.151 140.955 337.822 149.746C337.563 151.46 337.329 153.283 338.027 154.87C338.647 156.278 339.887 157.506 341.145 158.392C349.406 164.214 360.586 168.734 367.364 176.231C373.557 183.08 381.229 194.093 378.511 203.827Z" fill="#131313"/>
<path d="M301.66 133.992C301.66 133.992 292.249 149.484 306.619 155.868C311.434 153.661 313.823 135.028 313.823 135.028L301.66 133.992Z" fill="#131313"/>
<path d="M147.062 163.716C147.062 163.716 124.806 210.449 134.756 291.097C134.68 290.623 138.441 303.736 138.441 303.736C138.441 303.736 164.161 311.975 212.145 294.191C212.145 294.191 202.638 271.955 206.762 257.335C206.414 259.174 183.367 259.484 183.367 259.484C183.367 259.484 185.965 215.863 185.035 189.116L147.062 163.716Z" fill="#BE4FFE"/>
<path d="M205.793 263.398C205.918 261.292 206.222 259.248 206.762 257.335C206.414 259.175 183.367 259.484 183.367 259.484C183.367 259.484 185.965 215.863 185.035 189.116C182.122 217.653 175.093 264.236 175.093 264.236C175.093 264.236 203.455 264.993 205.793 263.398Z" fill="white"/>
<path d="M301.894 279.843C289.087 277.661 274.278 267.584 273.76 267.098C281.342 271.898 298.619 271.679 299.188 271.585C309.16 268.777 299.121 266.048 295.38 265.155C285.705 262.829 265.828 255.342 264.449 254.522C279.568 254.09 282.16 247.755 281.472 247.179C280.352 243.435 265.601 246.603 264.449 245.627C255.234 242.058 242.703 247.842 243.268 248.213C237.873 250.636 206.079 257.335 206.079 257.335C202.137 272.387 212.24 294.456 212.24 294.456C212.24 294.456 242.653 283.19 243.315 283.021C257.032 297.479 279.895 302.445 279.424 302.666C290.05 302.236 289.209 299.707 286.343 297.387C279.932 295.834 272.885 292.722 269.204 287.921C274.116 290.581 279.224 292.852 284.71 294.549C299.42 295.825 300.443 290.65 299.294 287.988C298.146 287.825 297.021 287.546 296.389 286.492C296.901 286.492 297.439 286.494 297.981 286.515C297.934 286.503 297.888 286.496 297.844 286.497C310.506 284.49 303.965 280.849 301.894 279.843Z" fill="white"/>
<path d="M212.145 294.516C212.024 294.516 211.908 294.448 211.852 294.332C211.829 294.284 209.52 289.434 207.711 282.482C206.04 276.059 204.464 266.471 206.444 257.267C206.482 257.092 206.655 256.981 206.83 257.018C207.005 257.056 207.117 257.228 207.079 257.403C205.126 266.478 206.685 275.954 208.336 282.304C210.128 289.199 212.415 294.004 212.438 294.051C212.515 294.213 212.447 294.407 212.285 294.484C212.24 294.506 212.192 294.516 212.145 294.516Z" fill="#131313"/>
<path d="M183.367 259.809C183.356 259.809 183.345 259.808 183.333 259.807C183.155 259.789 183.026 259.629 183.044 259.451C183.084 259.068 187.006 220.802 184.711 189.14C184.698 188.961 184.832 188.806 185.011 188.793C185.188 188.78 185.345 188.914 185.358 189.093C187.658 220.813 183.73 259.135 183.69 259.518C183.672 259.685 183.531 259.809 183.367 259.809Z" fill="#131313"/>
<path d="M153.782 306.41C147.832 306.41 142.51 305.715 138.321 304.038C138.308 304.032 138.295 304.026 138.282 304.019C136.265 302.886 134.678 291.862 134.09 287.176C132.735 276.39 131.978 263.177 131.957 249.972C131.924 229.005 133.805 189.9 146.771 163.572C146.85 163.411 147.045 163.345 147.205 163.425C147.366 163.504 147.432 163.698 147.353 163.859C134.446 190.068 132.574 229.06 132.606 249.971C132.627 263.15 133.383 276.335 134.734 287.095C136.14 298.293 137.682 302.893 138.584 303.444C155.668 310.261 191.999 300.546 212.141 294.147C212.312 294.092 212.494 294.187 212.549 294.358C212.603 294.528 212.508 294.711 212.338 294.765C197.015 299.634 172.348 306.41 153.782 306.41Z" fill="#131313"/>
<path d="M181.05 259.88C180.423 259.88 179.798 259.875 179.172 259.865C178.993 259.862 178.85 259.715 178.853 259.535C178.856 259.358 179 259.216 179.177 259.216C179.179 259.216 179.181 259.216 179.183 259.216C194.935 259.474 211.111 256.387 221.907 253.752C233.611 250.895 241.69 247.938 241.77 247.909C241.939 247.847 242.125 247.933 242.187 248.101C242.249 248.27 242.163 248.456 241.995 248.518C241.914 248.548 233.807 251.515 222.07 254.38C211.664 256.921 196.272 259.88 181.05 259.88Z" fill="#131313"/>
<path d="M212.145 294.516C212.006 294.516 211.878 294.427 211.835 294.287C211.782 294.116 211.878 293.934 212.049 293.882C227.814 289.029 242.991 282.7 243.143 282.637C243.308 282.568 243.498 282.646 243.567 282.811C243.636 282.976 243.558 283.166 243.393 283.236C243.241 283.299 228.035 289.64 212.24 294.502C212.209 294.512 212.176 294.516 212.145 294.516Z" fill="#131313"/>
<path d="M282.157 302.99C281.212 302.99 280.192 302.925 279.115 302.794C276.046 302.417 271.089 301.323 264.908 298.244C255.276 293.445 251.784 290.648 243.105 283.268C242.969 283.152 242.952 282.947 243.068 282.811C243.185 282.674 243.389 282.658 243.526 282.774C252.16 290.116 255.632 292.897 265.198 297.663C276.201 303.145 284.733 303.041 287.277 301.217C287.91 300.763 288.187 300.21 288.1 299.572C288.097 299.55 288.096 299.527 288.098 299.504C288.17 298.542 286.239 297.85 283.567 296.892C278.618 295.118 271.141 292.438 265.387 284.753C265.279 284.61 265.308 284.407 265.452 284.299C265.596 284.192 265.799 284.221 265.906 284.364C271.543 291.893 278.91 294.533 283.785 296.281C286.813 297.366 288.822 298.086 288.748 299.517C288.854 300.386 288.477 301.155 287.655 301.744C286.514 302.563 284.582 302.99 282.157 302.99Z" fill="#131313"/>
<path d="M289.91 294.819C289.401 294.819 288.884 294.805 288.36 294.778C285.176 294.608 280.297 293.833 275.138 291.101C271.099 289.102 269.174 287.739 266.13 285.252C265.991 285.139 265.971 284.934 266.084 284.796C266.197 284.657 266.402 284.636 266.541 284.75C269.544 287.204 271.444 288.548 275.433 290.523C284.554 295.352 294.008 294.649 297.81 292.609C299.01 291.965 299.687 291.199 299.766 290.394C299.767 290.386 299.768 290.378 299.77 290.37C300.098 288.524 297.245 287.561 294.79 287.078C288.623 286.236 282.387 283.445 278.239 281.251C276.233 280.189 274.226 279.004 272.589 277.913C270.318 276.4 270.268 276.123 270.247 276.005C270.219 275.857 270.289 275.709 270.42 275.638C270.578 275.553 270.775 275.612 270.86 275.769C270.874 275.795 270.884 275.821 270.89 275.848C271.32 276.311 274.388 278.504 278.839 280.832C282.868 282.941 288.923 285.624 294.887 286.436C294.893 286.437 294.9 286.438 294.906 286.439C298.887 287.221 300.739 288.577 300.411 290.471C300.304 291.496 299.511 292.433 298.117 293.181C296.142 294.241 293.208 294.819 289.91 294.819Z" fill="#131313"/>
<path d="M298.58 286.839C298.063 286.839 297.529 286.812 296.98 286.755C296.923 286.749 296.87 286.728 296.826 286.696C296.73 286.689 296.574 286.682 296.422 286.676C295.243 286.625 292.11 286.492 287.615 285.124C281.995 283.414 276.197 280.407 270.384 276.187C270.239 276.081 270.207 275.878 270.312 275.733C270.418 275.588 270.621 275.556 270.766 275.661C276.954 280.154 286.433 285.599 296.45 286.027C296.855 286.045 297.07 286.054 297.193 286.124C301.692 286.552 304.623 284.915 304.935 283.598C304.937 283.592 304.938 283.586 304.94 283.58C305.1 283.046 305.067 282.582 304.839 282.161C304.049 280.7 300.925 279.779 297.309 278.713C295.745 278.252 294.128 277.775 292.443 277.193C284.76 274.859 277.155 270.894 273.532 267.329C273.404 267.203 273.403 266.998 273.528 266.87C273.654 266.742 273.86 266.741 273.987 266.866C277.542 270.364 285.04 274.266 292.643 276.576C294.326 277.157 295.936 277.631 297.493 278.09C301.403 279.243 304.491 280.154 305.41 281.852C305.719 282.423 305.771 283.063 305.564 283.757C305.172 285.374 302.373 286.839 298.58 286.839Z" fill="#131313"/>
<path d="M295.398 272.226C294.028 272.226 292.555 272.123 291.04 271.908C284.715 271.167 278.856 269.648 273.631 267.396C273.466 267.325 273.391 267.134 273.462 266.969C273.533 266.805 273.724 266.729 273.888 266.8C279.055 269.027 284.854 270.529 291.123 271.264C296.091 271.967 300.694 271.444 302.323 269.993C302.714 269.644 302.907 269.257 302.897 268.841C302.896 268.822 302.898 268.802 302.901 268.782C303.152 267.218 299.33 266.367 294.903 265.382C291.596 264.645 287.848 263.811 284.444 262.454C280.055 261.02 265.679 256.244 264.217 254.75C264.092 254.622 264.094 254.416 264.222 254.291C264.35 254.165 264.556 254.167 264.681 254.296C265.571 255.206 273.412 258.167 284.655 261.84C284.662 261.842 284.668 261.844 284.675 261.847C288.033 263.187 291.758 264.016 295.045 264.748C300.156 265.886 303.856 266.709 303.546 268.855C303.552 269.459 303.286 270.004 302.755 270.478C301.485 271.608 298.746 272.226 295.398 272.226Z" fill="#131313"/>
<path d="M264.449 254.847C264.28 254.847 264.137 254.716 264.125 254.545C264.113 254.366 264.248 254.211 264.426 254.199C273.745 253.547 277.351 252.824 280.343 249.825C281.135 249.031 281.367 247.899 280.933 246.941C280.542 246.08 279.715 245.604 278.724 245.668C273.029 246.037 265.633 246.346 262.741 245.722C262.733 245.72 262.724 245.718 262.716 245.716C253.559 242.952 242.139 248.449 242.025 248.505C241.864 248.583 241.67 248.517 241.591 248.356C241.512 248.195 241.579 248.001 241.74 247.922C241.769 247.908 244.7 246.485 248.743 245.432C252.483 244.459 257.971 243.61 262.891 245.09C265.869 245.727 274.06 245.32 278.682 245.021C279.937 244.94 281.025 245.573 281.524 246.673C282.071 247.879 281.787 249.296 280.802 250.283C277.481 253.613 273.275 254.231 264.472 254.846C264.464 254.847 264.456 254.847 264.449 254.847Z" fill="#131313"/>
<path d="M224.883 109.679C220.694 109.679 218.118 108.256 216.656 106.99C214.885 105.457 214.326 103.846 214.304 103.778C214.246 103.608 214.337 103.424 214.507 103.367C214.676 103.309 214.861 103.401 214.918 103.57C214.926 103.593 215.462 105.11 217.11 106.524C219.298 108.402 222.458 109.251 226.249 108.98C226.428 108.966 226.583 109.102 226.595 109.281C226.608 109.459 226.474 109.615 226.295 109.627C225.805 109.663 225.335 109.679 224.883 109.679Z" fill="#131313"/>
<path d="M479.896 430.071H61.8909C61.7117 430.071 61.5664 429.925 61.5664 429.746C61.5664 429.567 61.7117 429.422 61.8909 429.422H479.896C480.075 429.422 480.221 429.567 480.221 429.746C480.221 429.925 480.075 430.071 479.896 430.071Z" fill="#131313"/>
<path d="M435.488 290.438C433.957 290.501 432.578 291.324 431.443 292.297C430.817 292.833 430.239 293.424 429.717 294.061C429.449 294.388 429.197 294.726 428.961 295.075C428.926 295.128 428.36 296.003 428.313 295.946C427.814 295.341 427.42 294.643 426.913 294.035C426.391 293.412 425.824 292.826 425.207 292.297C424.072 291.324 422.693 290.501 421.162 290.438C416.587 290.25 416.384 294.691 417.304 297.957C418.762 303.134 422.604 307.556 426.32 311.273C426.975 311.929 427.644 312.571 428.324 313.202L428.325 313.18L428.326 313.202C429.006 312.572 429.675 311.929 430.331 311.273C434.046 307.556 437.888 303.134 439.346 297.957C440.266 294.691 440.063 290.25 435.488 290.438Z" fill="#BE4FFE"/>
<path d="M99.1144 302.668C96.8998 302.759 94.9042 303.95 93.2623 305.357C92.3573 306.132 91.5201 306.988 90.7649 307.91C90.3783 308.382 90.0131 308.871 89.6718 309.377C89.6208 309.452 88.8027 310.719 88.7345 310.636C88.0117 309.76 87.4423 308.751 86.708 307.872C85.9541 306.97 85.1332 306.122 84.2402 305.357C82.5983 303.95 80.6026 302.759 78.3881 302.668C71.7691 302.396 71.4758 308.82 72.807 313.546C74.9165 321.035 80.4746 327.434 85.8501 332.812C86.7984 333.761 87.7665 334.69 88.7499 335.602L88.7513 335.57L88.7528 335.602C89.7362 334.69 90.7043 333.761 91.6526 332.812C97.0281 327.434 102.586 321.035 104.696 313.546C106.027 308.82 105.733 302.396 99.1144 302.668Z" fill="#FAA7E0"/>
<path d="M137.4 50.7808C134.275 50.9092 131.459 52.5889 129.143 54.5741C127.866 55.6684 126.685 56.8749 125.619 58.1759C125.074 58.8418 124.559 59.5325 124.077 60.2457C124.005 60.3523 122.851 62.1395 122.755 62.023C121.735 60.7872 120.931 59.3626 119.895 58.1231C118.832 56.8502 117.674 55.654 116.414 54.5742C114.097 52.589 111.281 50.9094 108.157 50.781C98.8181 50.3973 98.4042 59.4606 100.282 66.1284C103.259 76.6948 111.101 85.7223 118.685 93.31C120.023 94.6487 121.389 95.9594 122.776 97.2466L122.778 97.2015L122.78 97.2466C124.168 95.9594 125.534 94.6485 126.872 93.31C134.456 85.7223 142.298 76.6949 145.274 66.1284C147.152 59.4605 146.738 50.397 137.4 50.7808Z" fill="#FAA7E0"/>
<path d="M445.478 245.186L458.732 247.342L445.541 249.63L444.06 263.077L441.675 249.677L428.325 248.405L441.566 245.343L442.997 232.67L445.478 245.186Z" fill="white"/>
<path d="M503.434 308.025L525.099 311.549L503.537 315.291L501.116 337.27L497.218 315.367L475.395 313.287L497.039 308.281L499.378 287.566L503.434 308.025Z" fill="white"/>
<path d="M26.2868 331.239L46.5976 334.543L26.3827 338.05L24.1136 358.656L20.4591 338.122L0 336.172L20.2912 331.479L22.4841 312.059L26.2868 331.239Z" fill="white"/>
<path d="M492.399 43.2002L505.221 45.2857L492.459 47.5L491.027 60.5087L488.72 47.5455L475.804 46.3144L488.614 43.3516L489.998 31.0913L492.399 43.2002Z" fill="white"/>
<path d="M42.5706 122.964L55.393 125.05L42.6311 127.264L41.1986 140.273L38.8914 127.31L25.9756 126.078L38.7856 123.116L40.1699 110.855L42.5706 122.964Z" fill="white"/>
<path d="M505.221 198.293C508.436 198.293 511.043 195.687 511.043 192.472C511.043 189.256 508.436 186.65 505.221 186.65C502.006 186.65 499.4 189.256 499.4 192.472C499.4 195.687 502.006 198.293 505.221 198.293Z" fill="white"/>
<path d="M273.811 5.42846C274.189 3.18653 272.678 1.06258 270.436 0.684494C268.195 0.306406 266.071 1.81735 265.693 4.05928C265.314 6.30121 266.825 8.42515 269.067 8.80324C271.309 9.18133 273.433 7.67038 273.811 5.42846Z" fill="white"/>
<path d="M455.739 391.418C458.954 391.418 461.561 388.812 461.561 385.597C461.561 382.381 458.954 379.775 455.739 379.775C452.524 379.775 449.917 382.381 449.917 385.597C449.917 388.812 452.524 391.418 455.739 391.418Z" fill="white"/>
<path d="M49.0296 50.5423C49.7547 47.41 47.8032 44.2831 44.671 43.5581C41.5388 42.833 38.4118 44.7845 37.6868 47.9167C36.9618 51.049 38.9132 54.1759 42.0454 54.9009C45.1777 55.6259 48.3046 53.6745 49.0296 50.5423Z" fill="white"/>
<path d="M64.2828 380.228C66.5562 377.955 66.5562 374.269 64.2827 371.995C62.0093 369.722 58.3233 369.722 56.0498 371.995C53.7764 374.269 53.7763 377.955 56.0498 380.228C58.3233 382.502 62.0093 382.502 64.2828 380.228Z" fill="white"/>
<path d="M9.61654 204.115C12.8317 204.115 15.4382 201.508 15.4382 198.293C15.4382 195.078 12.8317 192.472 9.61654 192.472C6.40135 192.472 3.79492 195.078 3.79492 198.293C3.79492 201.508 6.40135 204.115 9.61654 204.115Z" fill="white"/>
<path d="M40.6845 220.33C42.1629 220.33 43.3614 219.131 43.3614 217.653C43.3614 216.174 42.1629 214.976 40.6845 214.976C39.2061 214.976 38.0076 216.174 38.0076 217.653C38.0076 219.131 39.2061 220.33 40.6845 220.33Z" fill="white"/>
<path d="M526.255 249.267C526.492 247.808 525.5 246.433 524.041 246.196C522.582 245.959 521.207 246.95 520.97 248.409C520.733 249.869 521.724 251.244 523.183 251.481C524.643 251.717 526.018 250.726 526.255 249.267Z" fill="white"/>
<path d="M523.599 124.44C525.078 124.44 526.276 123.241 526.276 121.763C526.276 120.284 525.078 119.086 523.599 119.086C522.121 119.086 520.922 120.284 520.922 121.763C520.922 123.241 522.121 124.44 523.599 124.44Z" fill="white"/>
<path d="M421.059 13.676C421.296 12.2166 420.305 10.8416 418.845 10.6047C417.386 10.3679 416.011 11.3589 415.774 12.8183C415.537 14.2776 416.528 15.6527 417.988 15.8895C419.447 16.1264 420.822 15.1353 421.059 13.676Z" fill="white"/>
<path d="M520.4 399.157C521.878 399.157 523.077 397.959 523.077 396.48C523.077 395.002 521.878 393.803 520.4 393.803C518.921 393.803 517.723 395.002 517.723 396.48C517.723 397.959 518.921 399.157 520.4 399.157Z" fill="white"/>
<path d="M25.9758 435.1C27.4542 435.1 28.6527 433.901 28.6527 432.423C28.6527 430.945 27.4542 429.746 25.9758 429.746C24.4973 429.746 23.2988 430.945 23.2988 432.423C23.2988 433.901 24.4973 435.1 25.9758 435.1Z" fill="white"/>
<path d="M121.509 10.1075C122.988 10.1075 124.186 8.90903 124.186 7.4306C124.186 5.95217 122.988 4.75366 121.509 4.75366C120.031 4.75366 118.833 5.95217 118.833 7.4306C118.833 8.90903 120.031 10.1075 121.509 10.1075Z" fill="white"/>
</svg>
