<svg width="36" height="37" viewBox="0 0 36 37" fill="none" xmlns="http://www.w3.org/2000/svg">
<path d="M12 21.5C12 21.5 14.25 24.5 18 24.5C21.75 24.5 24 21.5 24 21.5M22.5 14H22.515M13.5 14H13.515M33 18.5C33 26.7843 26.2843 33.5 18 33.5C9.71573 33.5 3 26.7843 3 18.5C3 10.2157 9.71573 3.5 18 3.5C26.2843 3.5 33 10.2157 33 18.5ZM23.25 14C23.25 14.4142 22.9142 14.75 22.5 14.75C22.0858 14.75 21.75 14.4142 21.75 14C21.75 13.5858 22.0858 13.25 22.5 13.25C22.9142 13.25 23.25 13.5858 23.25 14ZM14.25 14C14.25 14.4142 13.9142 14.75 13.5 14.75C13.0858 14.75 12.75 14.4142 12.75 14C12.75 13.5858 13.0858 13.25 13.5 13.25C13.9142 13.25 14.25 13.5858 14.25 14Z" stroke="#EE46BC" stroke-width="2" stroke-linecap="round" stroke-linejoin="round"/>
</svg>
