<svg width="526" height="435" viewBox="0 0 526 435" fill="none" xmlns="http://www.w3.org/2000/svg">
<path d="M282.887 76.3538C282.747 76.3538 282.606 76.3074 282.491 76.2135C282.237 76.0049 282.209 75.6385 282.427 75.3959L301.903 53.8178C302.122 53.5755 302.505 53.5485 302.76 53.7567C303.014 53.9654 303.043 54.3317 302.824 54.5744L283.348 76.1525C283.228 76.2854 283.058 76.3538 282.887 76.3538Z" fill="#404040"/>
<path d="M253.36 76.3537C253.189 76.3537 253.02 76.2853 252.899 76.1524L233.423 54.5743C233.204 54.3317 233.233 53.9657 233.487 53.7567C233.741 53.5477 234.125 53.5751 234.344 53.8177L253.82 75.3958C254.039 75.6385 254.011 76.0044 253.756 76.2135C253.641 76.3074 253.5 76.3537 253.36 76.3537Z" fill="#404040"/>
<path d="M268.124 74.5565C267.788 74.5565 267.516 74.2973 267.516 73.9769V37.7139C267.516 37.3936 267.788 37.1343 268.124 37.1343C268.459 37.1343 268.731 37.3936 268.731 37.7139V73.9769C268.731 74.2969 268.459 74.5565 268.124 74.5565Z" fill="#404040"/>
<path d="M5.67029 251.164C2.54353 251.164 0 248.737 0 245.754C0 242.771 2.54353 240.345 5.67029 240.345C8.79704 240.345 11.3406 242.771 11.3406 245.754C11.3406 248.737 8.79704 251.164 5.67029 251.164ZM5.67029 241.504C3.21384 241.504 1.21506 243.411 1.21506 245.754C1.21506 248.098 3.21384 250.005 5.67029 250.005C8.12674 250.005 10.1255 248.098 10.1255 245.754C10.1255 243.411 8.12674 241.504 5.67029 241.504Z" fill="#404040"/>
<path d="M489.67 115.535C486.543 115.535 484 113.109 484 110.126C484 107.142 486.543 104.716 489.67 104.716C492.797 104.716 495.34 107.142 495.34 110.126C495.34 113.109 492.797 115.535 489.67 115.535ZM489.67 105.875C487.213 105.875 485.215 107.782 485.215 110.126C485.215 112.469 487.213 114.376 489.67 114.376C492.126 114.376 494.125 112.469 494.125 110.126C494.125 107.782 492.126 105.875 489.67 105.875Z" fill="#404040"/>
<path d="M184.284 10.8194C181.158 10.8194 178.614 8.39274 178.614 5.40969C178.614 2.42663 181.158 0 184.284 0C187.411 0 189.955 2.42663 189.955 5.40969C189.955 8.39274 187.411 10.8194 184.284 10.8194ZM184.284 1.15922C181.828 1.15922 179.829 3.06613 179.829 5.40969C179.829 7.75324 181.828 9.66015 184.284 9.66015C186.741 9.66015 188.74 7.75324 188.74 5.40969C188.74 3.06613 186.741 1.15922 184.284 1.15922Z" fill="#404040"/>
<path d="M201.23 295.518C199.913 295.518 198.621 295.406 197.355 295.178C195.131 294.778 189.537 293.359 185.637 288.82C177.078 278.856 181.255 259.267 198.052 230.597C210.971 208.548 226.926 188.914 228.703 186.747C228.91 186.495 229.292 186.451 229.556 186.648C229.82 186.845 229.867 187.21 229.66 187.461C227.076 190.611 166.625 264.859 186.576 288.084C190.223 292.329 195.487 293.662 197.58 294.038C198.759 294.25 199.967 294.355 201.193 294.355C220.778 294.358 245.89 267.668 266.357 224.566C266.495 224.274 266.854 224.145 267.161 224.277C267.466 224.41 267.602 224.753 267.463 225.044C256.807 247.486 244.708 265.934 232.475 278.396C221.409 289.67 210.697 295.518 201.23 295.518Z" fill="#BE4FFE"/>
<path d="M311.18 287.187C305.887 287.187 301.916 282.8 299.037 278.953C286.386 262.053 276.916 243.364 270.892 223.407C270.799 223.099 270.985 222.778 271.307 222.69C271.628 222.601 271.966 222.779 272.059 223.086C278.045 242.917 287.454 261.486 300.025 278.279C302.775 281.952 306.562 286.154 311.398 286.025C315.347 285.922 318.517 282.795 319.908 279.74C321.473 276.302 321.569 272.391 321.533 268.679C321.255 239.884 313.829 211.12 300.057 185.497C299.904 185.212 300.021 184.863 300.32 184.716C300.618 184.57 300.985 184.683 301.138 184.967C314.996 210.75 322.468 239.693 322.748 268.668C322.785 272.505 322.683 276.555 321.022 280.202C319.478 283.593 315.914 287.067 311.431 287.183C311.347 287.186 311.263 287.187 311.18 287.187Z" fill="white"/>
<path d="M522.892 410.164V434.32H450.73L449.564 431.938C447.81 428.352 449.661 424.103 453.562 422.759L491.875 409.56L522.892 410.164Z" fill="white"/>
<path d="M522.892 434.9H450.729C450.493 434.9 450.278 434.769 450.179 434.565L449.014 432.183C448.106 430.327 448.058 428.177 448.881 426.286C449.706 424.394 451.337 422.91 453.356 422.214L491.669 409.014C491.739 408.99 491.822 408.982 491.887 408.98L522.904 409.584C523.235 409.59 523.5 409.848 523.5 410.164V434.32C523.499 434.64 523.227 434.9 522.892 434.9ZM451.116 433.74H522.284V410.732L491.976 410.142L453.769 423.304C452.07 423.889 450.697 425.138 450.004 426.73C449.31 428.322 449.351 430.131 450.115 431.693L451.116 433.74Z" fill="#404040"/>
<path d="M411.755 410.164V434.32H339.592L338.428 431.938C336.673 428.352 338.524 424.103 342.426 422.759L380.738 409.56L411.755 410.164Z" fill="white"/>
<path d="M411.755 434.9H339.592C339.356 434.9 339.142 434.769 339.042 434.565L337.877 432.183C336.969 430.327 336.921 428.177 337.745 426.286C338.569 424.394 340.2 422.91 342.219 422.214L380.532 409.014C380.602 408.99 380.683 408.982 380.751 408.98L411.767 409.584C412.098 409.59 412.363 409.848 412.363 410.164V434.32C412.362 434.64 412.09 434.9 411.755 434.9ZM339.979 433.74H411.147V410.732L380.838 410.142L342.632 423.304C340.933 423.889 339.56 425.138 338.867 426.73C338.173 428.322 338.214 430.131 338.978 431.693L339.979 433.74Z" fill="#404040"/>
<path d="M454.745 270.872L411.755 419.434H345.837L409.844 227.123L458.566 220.135L454.745 270.872Z" fill="white"/>
<path d="M411.755 420.014H345.837C345.643 420.014 345.461 419.925 345.346 419.777C345.232 419.627 345.199 419.435 345.258 419.259L409.265 226.948C409.335 226.737 409.525 226.583 409.754 226.55L458.476 219.563C458.805 219.513 459.117 219.733 459.167 220.05C459.217 220.366 458.988 220.661 458.656 220.709L410.308 227.643L346.667 418.855H411.292L454.159 270.718C454.248 270.409 454.582 270.23 454.907 270.313C455.23 270.399 455.42 270.718 455.331 271.026L412.34 419.589C412.268 419.84 412.028 420.014 411.755 420.014Z" fill="#404040"/>
<path d="M495.506 203.426L524.484 418.522H465.474L448.058 247.782L495.506 203.426Z" fill="white"/>
<path d="M525.175 419.102H464.922L447.453 247.838L448.662 247.726L466.025 417.943H523.794L494.903 203.5L496.108 203.352L525.175 419.102Z" fill="#404040"/>
<path d="M358.893 166.057C334.903 185.399 310.914 204.742 286.924 224.085C291.276 230.869 295.629 237.655 299.981 244.44C326.305 226.819 352.63 209.198 378.955 191.577L358.893 166.057Z" fill="white"/>
<path d="M299.8 245.269L286.135 223.963L358.993 165.218L379.818 191.708L299.8 245.269ZM287.715 224.206L300.161 243.611L378.093 191.446L358.793 166.896L287.715 224.206Z" fill="#404040"/>
<path d="M393.922 130.512C380.806 142.246 367.69 153.981 354.574 165.716L373.382 196.59L387.712 188.995C399.123 204.236 410.534 219.477 421.945 234.718C428.794 235.819 448.309 238.083 469.712 228.338C481.637 222.908 490.16 215.566 495.965 209.116C501.711 202.733 501.084 193.146 494.626 187.416C482.676 176.814 470.341 166.141 457.611 155.424C447.126 146.597 434.347 136.865 424.015 128.537C412.07 128.838 405.867 130.211 393.922 130.512Z" fill="#BE4FFE"/>
<path d="M417.119 146.375C422.318 140.033 423.224 132.423 419.143 129.377C415.061 126.332 407.538 129.004 402.338 135.346C397.139 141.688 396.233 149.299 400.314 152.344C404.396 155.39 411.919 152.717 417.119 146.375Z" fill="white"/>
<path d="M405.581 204.498C405.557 204.498 405.534 204.496 405.51 204.494C405.177 204.457 404.938 204.17 404.976 203.852L409.575 165.549C409.841 163.331 411.004 161.354 412.849 159.98C414.694 158.608 416.987 158.013 419.307 158.306C419.639 158.347 419.873 158.639 419.829 158.956C419.785 159.274 419.484 159.499 419.147 159.455C417.153 159.204 415.182 159.714 413.596 160.895C412.01 162.075 411.011 163.775 410.782 165.681L406.183 203.984C406.148 204.28 405.885 204.498 405.581 204.498Z" fill="#404040"/>
<path d="M439.666 216.73C439.629 216.73 439.592 216.727 439.555 216.72C439.225 216.663 439.007 216.36 439.068 216.045L445.231 184.181C445.292 183.866 445.607 183.658 445.939 183.716C446.269 183.774 446.487 184.076 446.426 184.391L440.263 216.256C440.209 216.535 439.953 216.73 439.666 216.73Z" fill="#404040"/>
<path d="M392.33 195.803C392.142 195.803 391.957 195.72 391.838 195.564C385.319 186.998 375.354 174.031 374.464 173.215C374.223 173.052 374.136 172.742 374.272 172.482C374.422 172.196 374.787 172.081 375.087 172.223C375.598 172.467 381.564 180.091 392.822 194.883C393.018 195.142 392.958 195.504 392.687 195.693C392.579 195.767 392.454 195.803 392.33 195.803ZM374.543 173.26L374.543 173.26L374.543 173.26Z" fill="#404040"/>
<path d="M440.269 213.148L436.707 231.481C434.034 245.235 417.949 252.394 405.196 245.493C402.446 244.005 399.289 243.809 387.553 234.718C379.781 228.697 354.827 209.366 356.983 206.464C357.446 205.839 359.317 205.765 365.899 208.59C362.063 206.168 356.057 202.159 356.664 200.995C357.309 199.758 365.145 202.272 369.402 203.729C360.562 197.264 357.773 194.456 358.256 193.704C358.758 192.922 362.933 194.135 373.86 199.172C365.405 192.095 363.843 189.789 364.307 189.146C365.286 187.79 375.943 192.912 383.732 197.653C392.859 203.208 399.564 209.161 404.112 213.755C404.856 208.793 405.598 203.831 406.342 198.868C410.341 199.63 414.869 200.774 419.716 202.514C428.422 205.64 435.271 209.651 440.269 213.148Z" fill="white"/>
<path d="M415.692 248.75C411.977 248.75 408.28 247.829 404.896 245.998C404.322 245.687 403.712 245.428 403.005 245.128C400.378 244.011 396.407 242.324 387.17 235.168C357.944 212.527 355.259 207.784 356.487 206.129C356.929 205.533 357.892 205.149 361.136 206.154C355.388 202.14 355.85 201.254 356.12 200.738C356.421 200.16 356.955 199.135 366.131 202.036C356.744 194.948 357.335 194.028 357.738 193.402C358.212 192.663 359.506 192.75 362.352 193.711C364.29 194.366 366.963 195.446 370.326 196.934C363.382 190.86 363.261 189.573 363.806 188.819C364.126 188.374 364.792 187.45 371.726 190.591C375.474 192.289 380.085 194.747 384.058 197.165C391.161 201.489 397.759 206.641 403.687 212.493L405.739 198.787C405.763 198.63 405.854 198.488 405.99 198.396C406.126 198.304 406.296 198.271 406.46 198.301C411.04 199.173 415.571 200.408 419.929 201.972C427.277 204.61 434.241 208.213 440.627 212.681C440.816 212.813 440.908 213.035 440.866 213.254L437.303 231.587C435.993 238.334 431.5 243.865 424.978 246.763C421.993 248.09 418.836 248.75 415.692 248.75ZM358.025 206.676C357.583 206.676 357.488 206.786 357.478 206.799C357.368 206.947 356.76 208.542 368.949 218.989C375.878 224.927 384.021 231.235 387.934 234.267C397.048 241.327 400.93 242.977 403.5 244.068C404.235 244.381 404.87 244.651 405.496 244.989C411.397 248.183 418.312 248.447 424.466 245.712C430.627 242.975 434.871 237.749 436.11 231.375L439.602 213.401C433.389 209.094 426.628 205.615 419.502 203.056C415.405 201.586 411.153 200.41 406.852 199.559L404.714 213.837C404.681 214.057 404.519 214.24 404.297 214.308C404.074 214.374 403.831 214.315 403.671 214.153C397.59 208.012 390.772 202.626 383.406 198.142C374.977 193.013 366.356 189.203 364.852 189.499C364.97 190.012 366.133 191.933 374.261 198.737C374.489 198.928 374.535 199.251 374.366 199.492C374.199 199.734 373.869 199.82 373.596 199.694C362.409 194.537 359.568 194.011 358.859 194.056C359.13 194.659 360.786 196.698 369.771 203.269C370.009 203.443 370.079 203.756 369.936 204.007C369.792 204.258 369.478 204.372 369.197 204.275C359.863 201.079 357.712 201.165 357.258 201.277C357.432 201.678 358.588 203.279 366.234 208.107C366.498 208.274 366.583 208.606 366.43 208.87C366.278 209.134 365.938 209.243 365.649 209.119C360.837 207.053 358.84 206.676 358.025 206.676Z" fill="#404040"/>
<path d="M400.477 102.832C387.447 104.55 381.592 129.961 387.742 134.608C394.002 139.338 418.988 127.304 417.619 115.216C416.85 108.42 407.782 101.869 400.477 102.832Z" fill="white"/>
<path d="M391.758 136.252C389.992 136.252 388.466 135.893 387.365 135.062C383.925 132.462 384.225 124.749 385.96 118.683C388.046 111.387 392.933 103.241 400.393 102.258C404.074 101.773 408.452 103.106 412.103 105.826C415.618 108.445 417.849 111.844 418.223 115.153C419.018 122.166 411.684 128.675 404.557 132.428C400.422 134.605 395.541 136.252 391.758 136.252ZM400.559 103.406C393.685 104.312 389.116 112.049 387.132 118.988C385.168 125.858 385.583 132.236 388.12 134.153C390.651 136.066 397.318 134.915 403.97 131.413C410.445 128.004 417.747 121.733 417.016 115.277C416.681 112.322 414.565 109.131 411.355 106.739C407.958 104.209 403.924 102.963 400.559 103.406Z" fill="#404040"/>
<path d="M414.436 116.617C414.193 115.786 412.341 109.833 405.987 107.154C401.025 105.062 395.174 105.749 390.681 108.907C387.066 108.642 383.961 107.067 383.334 104.935C382.497 102.093 385.812 97.4017 392.395 96.29C393.415 91.8131 395.594 90.5604 396.313 90.2154C400.711 88.1048 408.873 91.926 414.925 101.197C416.696 101.326 423.445 102.021 427.905 107.271C428.106 107.508 429.776 109.504 430.599 111.944C432.598 117.873 429.294 125.512 422.648 131.965C421.61 132.972 419.99 133.207 418.692 132.529C417.779 132.051 417.11 131.531 416.64 131.103C413.113 127.892 412.331 122.222 414.436 116.617Z" fill="#404040"/>
<path d="M385.538 123.393C387.392 123.833 389.27 124.3 391.17 124.795C395.27 125.863 399.218 126.997 403.01 128.176C403.688 128.387 404.425 128.149 404.833 127.591C406.225 125.686 407.71 123.738 409.293 121.757C411.353 119.178 413.404 116.765 415.415 114.515C416.231 115.449 417.048 116.384 417.864 117.318C416.839 120.261 410.444 137.815 395.823 140.916C393.896 141.325 386.746 142.841 383.333 139.047C380.359 135.74 380.999 129.26 385.538 123.393Z" fill="#404040"/>
<path d="M417.701 128.923C414.382 129.879 411.153 128.953 410.488 126.852C409.823 124.752 411.974 122.275 415.293 121.319C418.612 120.362 421.841 121.289 422.506 123.389C423.171 125.489 421.019 127.966 417.701 128.923Z" fill="white"/>
<path d="M413.247 125.393C413.013 125.393 412.79 125.264 412.69 125.046C412.555 124.754 412.695 124.412 413.002 124.282C414.712 123.565 416.499 123.172 418.312 123.112C419.03 123.088 419.756 123.118 420.473 123.2C420.806 123.238 421.044 123.526 421.004 123.844C420.964 124.162 420.663 124.391 420.328 124.351C419.673 124.276 419.008 124.25 418.354 124.27C416.695 124.325 415.059 124.686 413.491 125.344C413.411 125.377 413.328 125.393 413.247 125.393Z" fill="#404040"/>
<path d="M403.156 143.547C403.026 143.547 402.895 143.507 402.784 143.425L397.052 139.172C396.787 138.975 396.739 138.611 396.945 138.358C397.151 138.105 397.532 138.06 397.797 138.257L403.529 142.51C403.794 142.707 403.841 143.071 403.636 143.324C403.517 143.47 403.338 143.547 403.156 143.547Z" fill="#404040"/>
<path d="M410.481 220.439C409.844 219.527 403.475 213.147 403.475 213.147L410.481 220.439Z" fill="white"/>
<path d="M410.481 221.018C410.285 221.018 410.093 220.928 409.976 220.76C409.53 220.123 405.581 216.098 403.035 213.547C402.804 213.316 402.813 212.949 403.056 212.728C403.299 212.508 403.683 212.516 403.915 212.748C404.571 213.405 410.339 219.191 410.986 220.117C411.173 220.384 411.097 220.743 410.818 220.921C410.715 220.987 410.598 221.018 410.481 221.018Z" fill="#404040"/>
<path d="M264.713 152.089C237.758 112.048 205.865 90.3598 183.216 97.1247C170.991 100.776 164.664 111.76 163.384 114.14C137.611 162.057 252.212 265.366 268.684 280.006C288.668 259.402 395.236 147.922 367.339 108.556C361.636 100.508 350.199 95.312 339.972 94.1304C313.418 91.0623 284.014 113.787 264.713 152.089Z" fill="#EE46BC"/>
<path d="M268.684 280.586C268.531 280.586 268.383 280.531 268.27 280.431C256.255 269.751 225.523 241.501 199.713 209.908C184.023 190.702 172.71 173.385 166.088 158.438C157.933 140.028 156.841 125.035 162.843 113.875C164.538 110.724 171.002 100.165 183.035 96.5712C194.314 93.2029 208.03 96.6639 222.701 106.581C237.012 116.257 251.499 131.571 264.637 150.908C274.081 132.445 286.032 117.327 299.241 107.145C312.75 96.7308 326.861 92.0321 340.046 93.5549C351.556 94.8849 362.467 100.646 367.842 108.231C379.773 125.066 369.217 156.496 336.466 201.647C313.126 233.825 284.26 264.8 269.13 280.4C269.02 280.514 268.868 280.58 268.707 280.586C268.699 280.586 268.691 280.586 268.684 280.586ZM191.831 96.485C188.898 96.485 186.079 96.8768 183.398 97.6778C171.816 101.137 165.564 111.355 163.924 114.405C158.094 125.245 159.198 139.908 167.207 157.987C173.787 172.84 185.046 190.069 200.671 209.196C226.114 240.34 256.359 268.236 268.653 279.186C283.867 263.476 312.38 232.817 335.467 200.987C349.975 180.986 360.226 163.445 365.934 148.853C372.832 131.219 373.136 117.771 366.836 108.881C360.938 100.558 349.057 95.7644 339.899 94.7064C313.733 91.6812 284.429 114.304 265.261 152.34C265.165 152.529 264.97 152.655 264.75 152.667C264.529 152.681 264.32 152.579 264.202 152.402C240.589 117.327 213.213 96.485 191.831 96.485Z" fill="#404040"/>
<path d="M347.057 124.879C348.36 124.879 348.362 122.947 347.057 122.947C345.754 122.947 345.752 124.879 347.057 124.879Z" fill="#FCCEEE"/>
<path d="M143.429 128.48C160.468 116.503 169.378 110.964 170.161 111.864C170.64 112.415 168.074 115.378 162.465 120.752C165.851 122.435 166.586 124.234 166.798 125.091C167.874 129.446 161.922 135.766 151.125 139.686C148.56 135.95 145.995 132.215 143.429 128.48Z" fill="white"/>
<path d="M151.125 140.265C150.925 140.265 150.732 140.17 150.617 140.003L142.922 128.797C142.745 128.54 142.81 128.195 143.069 128.013C169.087 109.724 169.978 110.746 170.629 111.494C171.131 112.072 170.722 112.955 169.065 114.868C167.865 116.254 165.982 118.186 163.463 120.616C165.636 121.84 166.988 123.331 167.39 124.957C168.63 129.979 161.881 136.401 151.341 140.227C151.27 140.252 151.197 140.265 151.125 140.265ZM144.253 128.621L151.364 138.976C162.215 134.922 167.114 128.895 166.207 125.223C165.846 123.763 164.455 122.394 162.185 121.265C162.013 121.18 161.895 121.022 161.865 120.84C161.836 120.657 161.899 120.473 162.035 120.342C167.427 115.177 168.998 113.182 169.443 112.423C167.84 112.906 162.3 115.949 144.253 128.621Z" fill="#404040"/>
<path d="M180.847 166.281C186.476 164.85 192.105 163.42 197.734 161.99C206.133 156.121 210.612 153.495 211.172 154.111C211.642 154.627 209.355 157.424 204.312 162.501C218.367 162.013 223.7 162.467 223.826 163.43C224.031 165 210.389 167.808 210.579 168.647C210.772 169.495 224.872 167.129 225.09 168.07C225.321 169.068 209.562 172.006 209.726 175.038C209.883 177.928 224.397 178.96 224.324 179.929C224.269 180.67 215.72 180.986 188.063 180.127C185.658 175.512 183.252 170.896 180.847 166.281Z" fill="white"/>
<path d="M213.574 181.228C208.119 181.228 200.034 181.079 188.043 180.706C187.82 180.7 187.618 180.576 187.519 180.385L180.303 166.538C180.222 166.383 180.218 166.2 180.294 166.042C180.369 165.883 180.515 165.765 180.691 165.72L197.467 161.458C210.429 152.406 211.095 153.14 211.631 153.731C212.133 154.283 211.782 155.126 210.289 156.952C209.299 158.163 207.78 159.815 205.766 161.873C224.161 161.296 224.322 162.533 224.429 163.358C224.585 164.55 222.541 165.351 215.897 167.306C214.93 167.591 213.848 167.909 212.95 168.197C214.29 168.104 216.037 167.924 217.481 167.775C224.41 167.062 225.484 167.084 225.684 167.945C225.882 168.8 224.874 169.139 220.569 170.437C217.221 171.446 210.255 173.547 210.334 175.008C210.408 176.378 216.892 177.588 220.008 178.17C224.044 178.923 224.994 179.132 224.931 179.97C224.885 180.592 224.836 181.228 213.574 181.228ZM188.445 179.559C211.023 180.255 219.458 180.111 222.448 179.832C221.655 179.658 220.658 179.472 219.774 179.307C213.807 178.194 209.234 177.174 209.12 175.068C209.001 172.885 213.851 171.246 220.202 169.331C221.178 169.037 222.22 168.722 223.049 168.447C221.52 168.525 219.288 168.755 217.611 168.928C211.026 169.605 210.171 169.588 209.985 168.768C209.8 167.951 210.582 167.657 215.538 166.198C217.906 165.501 222.173 164.245 223.094 163.518C222.27 163.144 218.75 162.579 204.334 163.08C204.09 163.087 203.86 162.954 203.758 162.739C203.657 162.525 203.701 162.273 203.87 162.102C208.597 157.344 210.031 155.446 210.454 154.699C209.411 155.06 206.455 156.614 198.092 162.458C198.031 162.5 197.962 162.531 197.889 162.55L181.722 166.658L188.445 179.559Z" fill="#404040"/>
<path d="M95.4346 412.833V434.321H159.625L160.662 432.202C162.222 429.012 160.576 425.232 157.105 424.036L123.025 412.295L95.4346 412.833Z" fill="white"/>
<path d="M160.012 434.9H94.8271V412.265L123.126 411.714L123.232 411.75L157.312 423.492C159.126 424.116 160.592 425.449 161.331 427.149C162.071 428.848 162.028 430.78 161.212 432.447L160.012 434.9ZM96.0422 433.741H159.239L160.112 431.957C160.784 430.583 160.819 428.993 160.21 427.594C159.6 426.194 158.393 425.097 156.9 424.582L122.926 412.877L96.0426 413.401L96.0422 433.741Z" fill="#404040"/>
<path d="M20.8663 389.914L11.7627 409.568L70.4765 434.321L72.3222 432.782C75.101 430.466 75.1966 426.374 72.5287 423.942L46.3308 400.061L20.8663 389.914Z" fill="white"/>
<path d="M70.5851 435L70.2311 434.851L10.9617 409.864L20.5513 389.16L46.6687 399.568L46.7501 399.642L72.948 423.523C74.3425 424.795 75.1177 426.579 75.0748 428.419C75.0319 430.259 74.174 432.008 72.7216 433.219L70.5851 435ZM12.5639 409.272L70.368 433.641L71.9221 432.345C73.1181 431.348 73.8245 429.907 73.8601 428.393C73.8958 426.878 73.2571 425.408 72.1084 424.361L45.9919 400.555L21.1807 390.667L12.5639 409.272Z" fill="#404040"/>
<path d="M145.37 126.708C149.583 133.224 153.797 139.74 158.01 146.255C153.919 150.222 146.156 156.614 134.519 160.166C128.881 161.887 123.766 162.503 119.7 162.666C116.281 153.201 112.862 143.735 109.443 134.27C121.419 131.749 133.395 129.229 145.37 126.708Z" fill="white"/>
<path d="M119.7 163.246C119.442 163.246 119.211 163.089 119.126 162.855L108.87 134.459C108.813 134.303 108.829 134.131 108.914 133.987C108.998 133.843 109.144 133.74 109.313 133.704L145.239 126.142C145.492 126.088 145.751 126.194 145.887 126.403L158.527 145.95C158.674 146.178 158.64 146.471 158.443 146.661C151.737 153.164 143.528 158.024 134.704 160.718C129.881 162.19 124.842 163.04 119.726 163.245C119.717 163.245 119.708 163.246 119.7 163.246ZM110.241 134.696L120.127 162.067C124.979 161.836 129.757 161.011 134.334 159.614C142.825 157.022 150.736 152.378 157.242 146.171L145.08 127.363L110.241 134.696Z" fill="#404040"/>
<path d="M138.504 226.977C139.864 276.612 139.938 327.61 138.504 379.894C138.205 390.806 137.843 401.655 137.421 412.441C122.125 413.423 106.83 414.404 91.5345 415.386C93.3867 384.655 94.3599 352.102 94.1011 317.901C93.8958 290.796 92.933 264.763 91.3936 239.892C107.097 235.587 122.8 231.282 138.504 226.977Z" fill="#BE4FFE"/>
<path d="M15.3132 397.717L58.633 411.149L98.7037 266.498C101.411 253.927 104.119 241.356 106.826 228.785C91.8451 227.752 76.8634 226.719 61.8821 225.686C57.0028 253.426 50.5091 283.374 41.8465 315.059C33.6837 344.918 24.6348 372.514 15.3132 397.717Z" fill="#BE4FFE"/>
<path d="M93.9621 346.152C93.638 346.152 93.3691 345.908 93.3554 345.596C92.8523 334.015 92.5344 322.265 92.4109 310.675C92.2776 298.194 92.3659 285.542 92.6725 273.062L84.9099 269.607C84.6061 269.471 84.4745 269.126 84.6162 268.836C84.7584 268.546 85.1197 268.421 85.4238 268.556L93.5461 272.172C93.7648 272.269 93.9021 272.481 93.8965 272.711C93.5826 285.3 93.4915 298.069 93.6259 310.662C93.7494 322.241 94.067 333.978 94.5696 345.547C94.5838 345.867 94.323 346.137 93.9876 346.151C93.9791 346.152 93.9706 346.152 93.9621 346.152Z" fill="#404040"/>
<path d="M92.0659 136.57H106.556V113.839H92.0659V136.57Z" fill="white"/>
<path d="M106.556 137.15H92.0653C91.7295 137.15 91.4578 136.891 91.4578 136.571V113.84C91.4578 113.52 91.7295 113.26 92.0653 113.26H106.555C106.891 113.26 107.163 113.52 107.163 113.84V136.571C107.163 136.891 106.891 137.15 106.556 137.15ZM92.6728 135.991H105.948V114.419H92.6728V135.991Z" fill="#404040"/>
<path d="M98.8268 121.722C103.507 128.533 114.002 132.105 119.128 128.48C123.845 125.144 122.736 116.619 122.368 113.796C122.015 111.081 121.663 108.376 119.658 105.853C115.602 100.751 105.809 97.6848 99.681 102.364C93.7782 106.872 95.0718 116.258 98.8268 121.722Z" fill="white"/>
<path d="M113.955 130.498C113.146 130.498 112.302 130.425 111.431 130.277C106.306 129.406 101.159 126.173 98.3191 122.04C94.6573 116.712 92.9619 106.753 99.3017 101.912C101.867 99.9534 105.178 99.1501 108.876 99.5871C113.277 100.108 117.699 102.431 120.142 105.504C122.246 108.151 122.615 110.985 122.971 113.726C123.347 116.616 124.491 125.409 119.49 128.946C118.043 129.969 116.129 130.498 113.955 130.498ZM106.961 100.632C104.84 100.632 102.303 101.105 100.061 102.817C94.2843 107.228 95.9279 116.446 99.3353 121.405C102.001 125.284 106.832 128.318 111.644 129.136C114.524 129.626 117.053 129.227 118.767 128.015C123.198 124.88 122.12 116.592 121.766 113.868C121.413 111.16 121.081 108.603 119.174 106.204C116.919 103.368 112.818 101.222 108.726 100.737C108.187 100.674 107.592 100.632 106.961 100.632Z" fill="#404040"/>
<path d="M136.338 184.099L144.461 229.044C136.642 232.96 122.295 238.9 103.307 239.893C81.6995 241.022 65.0312 235.172 56.738 231.627C60.1673 210.618 63.5971 189.609 67.0264 168.6C72.0802 156.201 77.1345 143.803 82.1883 131.404H99.0161C107.326 131.404 115.388 134.105 121.865 139.073C123.433 140.275 125.008 141.507 126.591 142.769C134.184 148.826 141.065 154.893 147.284 160.819C151.062 164.419 156.362 166.159 161.663 165.546C170.729 164.498 179.797 163.449 188.863 162.401L191.571 181.515L160.282 187.639C153.169 189.03 145.776 188.225 139.175 185.339L136.338 184.099Z" fill="white"/>
<path d="M138.164 193.783C140.263 205.537 142.361 217.29 144.46 229.044C136.641 232.96 122.295 238.9 103.307 239.893C81.6991 241.022 65.0309 235.172 56.7377 231.627C60.1674 210.618 63.5967 189.609 67.026 168.6C72.0798 156.201 77.1341 143.803 82.1879 131.404H99.0157C107.326 131.404 115.388 134.105 121.865 139.073C123.432 140.275 125.008 141.507 126.591 142.769C134.183 148.826 141.065 154.893 147.283 160.819C151.061 164.419 156.361 166.159 161.662 165.546C170.729 164.498 179.796 163.449 188.863 162.401C189.919 171.058 190.976 179.715 192.032 188.372C189.591 189.833 163.776 204.741 138.164 193.396C127.488 188.666 121.022 181.225 117.676 176.577L138.164 193.783Z" fill="white"/>
<path d="M97.8772 240.614C80.1928 240.614 65.7846 236.129 56.4894 232.156C56.2395 232.049 56.0953 231.796 56.1374 231.537L66.4257 168.511C66.4326 168.469 66.4436 168.429 66.4598 168.39L81.6217 131.194C81.7124 130.971 81.9372 130.824 82.1879 130.824H99.0157C107.44 130.824 115.69 133.593 122.246 138.621C123.826 139.833 125.419 141.079 126.98 142.324C134.133 148.03 141.108 154.114 147.713 160.408C151.38 163.903 156.437 165.565 161.589 164.97L188.79 161.824C188.951 161.805 189.112 161.849 189.239 161.944C189.366 162.04 189.448 162.179 189.467 162.333L192.636 188.305C192.663 188.527 192.554 188.744 192.355 188.863C189.524 190.557 164.25 204.93 138.881 194.339L145.06 228.945C145.104 229.193 144.976 229.439 144.743 229.556C131.984 235.947 117.666 239.721 103.34 240.47C101.488 240.568 99.6645 240.614 97.8772 240.614ZM57.4096 231.278C67.5484 235.556 83.6132 240.342 103.274 239.313C117.281 238.582 131.28 234.922 143.787 228.725L137.566 193.88C137.559 193.841 137.556 193.802 137.557 193.764C129.555 190.142 122.513 184.32 117.176 176.906C116.986 176.642 117.056 176.281 117.332 176.1C117.609 175.918 117.987 175.986 118.177 176.25C123.47 183.601 130.47 189.348 138.421 192.871C162.755 203.649 187.33 190.432 191.385 188.074L188.331 163.047L161.736 166.122C156.211 166.76 150.787 164.977 146.855 161.229C140.276 154.959 133.327 148.898 126.202 143.214C124.647 141.974 123.06 140.732 121.485 139.525C115.144 134.662 107.165 131.984 99.0165 131.984H82.6039L67.6165 168.751L57.4096 231.278Z" fill="#404040"/>
<path d="M121.734 101.114C119.92 93.4057 104.906 87.5687 95.6014 91.0761C88.661 93.6924 86.6687 101.511 84.4646 107.574C81.0009 117.101 77.6574 126.086 70.284 133.576C51.0504 153.116 38.3575 173.679 49.7944 200.966C51.3748 204.737 53.4141 208.408 56.4206 211.282C73.8405 227.941 91.0717 199.119 94.87 185.554C97.9664 174.495 96.452 163.586 93.7951 152.595C91.791 144.304 90.0932 136.007 95.2612 128.312C96.9315 125.825 98.8003 124.121 100.013 123.132C99.4734 122.669 94.8412 118.579 95.94 114.065C96.4982 111.772 98.2875 110.388 98.9947 109.856C106.326 104.342 117.44 110.748 121.055 106.295C122.526 104.482 121.919 101.902 121.734 101.114Z" fill="#404040"/>
<path d="M101.727 118.888C102.903 117.003 101.443 114.103 98.4648 112.41C95.4866 110.718 92.1183 110.873 90.9415 112.758C89.7647 114.642 91.2251 117.542 94.2034 119.235C97.1816 120.928 100.55 120.772 101.727 118.888Z" fill="white"/>
<path d="M99.5714 116.862C99.4418 116.862 99.3106 116.823 99.2 116.741C97.8448 115.741 96.3483 115.014 94.7533 114.579C94.1235 114.407 93.4718 114.28 92.8169 114.202C92.484 114.162 92.2479 113.872 92.2896 113.554C92.3313 113.237 92.6354 113.013 92.968 113.051C93.6849 113.137 94.3977 113.276 95.0874 113.464C96.8319 113.94 98.4653 114.733 99.9436 115.824C100.209 116.019 100.258 116.384 100.053 116.637C99.9327 116.784 99.7529 116.862 99.5714 116.862Z" fill="#404040"/>
<path d="M268.746 145.834C271.599 148.474 274.914 148.947 275.957 149.056C275.287 149.021 271.276 148.873 268.005 151.846C264.664 154.884 264.688 158.82 264.703 159.449C264.777 158.766 265.084 155.242 262.445 152.2C259.204 148.464 254.322 148.68 253.81 148.712C254.555 148.712 258.658 148.643 261.889 145.48C264.828 142.603 265.038 139.131 265.064 138.319C265.139 139.236 265.547 142.874 268.746 145.834Z" fill="white"/>
<path d="M268.746 145.834C271.599 148.474 274.914 148.947 275.957 149.056C275.287 149.021 271.276 148.873 268.005 151.846C264.664 154.884 264.688 158.82 264.703 159.449C264.777 158.766 265.084 155.242 262.445 152.2C259.204 148.464 254.322 148.68 253.81 148.712C254.555 148.712 258.658 148.643 261.889 145.48C264.828 142.603 265.038 139.131 265.064 138.319C265.139 139.236 265.547 142.874 268.746 145.834Z" fill="white"/>
<path d="M292.425 212.137C289.298 212.137 286.755 209.71 286.755 206.727C286.755 203.744 289.298 201.317 292.425 201.317C295.552 201.317 298.095 203.744 298.095 206.727C298.095 209.71 295.552 212.137 292.425 212.137ZM292.425 202.477C289.969 202.477 287.97 204.384 287.97 206.727C287.97 209.071 289.969 210.978 292.425 210.978C294.881 210.978 296.88 209.071 296.88 206.727C296.88 204.384 294.881 202.477 292.425 202.477Z" fill="white"/>
<path d="M262.853 376.617C269.245 382.531 276.672 383.592 279.009 383.837C277.506 383.757 268.52 383.426 261.191 390.088C253.706 396.893 253.76 405.715 253.793 407.122C253.958 405.591 254.646 397.697 248.733 390.88C241.472 382.51 230.533 382.995 229.386 383.065C231.055 383.065 240.248 382.912 247.487 375.825C254.072 369.378 254.542 361.599 254.602 359.78C254.77 361.834 255.684 369.986 262.853 376.617Z" fill="white"/>
<path d="M253.794 407.701C253.786 407.701 253.777 407.701 253.769 407.701C253.449 407.688 253.194 407.441 253.187 407.135C253.174 406.587 253.182 405.735 253.287 404.667C253.229 401.408 252.403 396.019 248.266 391.249C242.242 384.305 233.537 383.625 230.452 383.617C230.03 383.638 229.673 383.644 229.391 383.644C229.39 383.644 229.388 383.644 229.387 383.644C229.059 383.644 228.791 383.395 228.78 383.083C228.769 382.77 229.021 382.506 229.348 382.486C229.522 382.475 229.883 382.451 230.408 382.459C233.693 382.3 241.092 381.255 247.052 375.42C253.046 369.552 253.904 362.514 253.996 359.761C254.006 359.453 254.266 359.207 254.589 359.2C254.904 359.206 255.183 359.428 255.208 359.735C255.447 362.662 256.71 370.127 263.276 376.2C269.011 381.505 275.637 382.901 279.076 383.26C279.404 383.294 279.642 383.571 279.615 383.884C279.589 384.197 279.311 384.423 278.976 384.415C276.61 384.289 268.374 384.359 261.611 390.507C256.286 395.348 254.854 401.221 254.502 404.714C254.519 405.794 254.456 406.647 254.398 407.181C254.366 407.477 254.104 407.701 253.794 407.701ZM235.379 382.932C239.523 383.697 244.983 385.647 249.201 390.511C252.1 393.852 253.459 397.48 254.062 400.546C255.004 397.185 256.92 393.17 260.772 389.668C265.269 385.58 270.387 384.046 274.172 383.504C270.652 382.532 266.342 380.653 262.43 377.034C257.722 372.679 255.622 367.642 254.687 363.92C253.932 367.426 252.137 372.102 247.922 376.229C243.844 380.222 239.125 382.078 235.379 382.932Z" fill="#404040"/>
<path d="M214.076 350.052C217.493 353.214 221.464 353.781 222.713 353.912C221.91 353.87 217.105 353.693 213.187 357.254C209.185 360.892 209.214 365.608 209.232 366.361C209.32 365.543 209.688 361.322 206.526 357.678C202.645 353.203 196.797 353.463 196.183 353.5C197.076 353.5 201.99 353.418 205.861 349.629C209.381 346.183 209.633 342.024 209.665 341.051C209.754 342.149 210.243 346.507 214.076 350.052Z" fill="#BE4FFE"/>
<path d="M209.232 366.941C209.224 366.941 209.216 366.941 209.208 366.94C208.887 366.928 208.632 366.68 208.625 366.374C208.618 366.077 208.623 365.616 208.679 365.039C208.647 363.337 208.213 360.531 206.059 358.047C202.917 354.426 198.375 354.069 196.761 354.064C196.531 354.076 196.337 354.079 196.184 354.079C195.855 354.079 195.586 353.831 195.576 353.518C195.566 353.205 195.817 352.941 196.145 352.921C196.239 352.915 196.441 352.913 196.717 352.906C198.436 352.823 202.309 352.276 205.426 349.224C208.561 346.155 209.01 342.473 209.057 341.033C209.068 340.725 209.328 340.478 209.65 340.471C209.967 340.464 210.245 340.699 210.27 341.006C210.395 342.541 211.057 346.453 214.498 349.636C217.503 352.416 220.976 353.148 222.779 353.336C223.106 353.37 223.345 353.647 223.318 353.96C223.291 354.273 223.004 354.502 222.679 354.491C221.443 354.423 217.14 354.462 213.606 357.674C210.858 360.171 210.094 363.196 209.899 365.029C209.906 365.595 209.874 366.069 209.836 366.42C209.804 366.717 209.542 366.941 209.232 366.941ZM200.525 353.406C202.601 353.947 205.041 355.056 206.995 357.309C208.279 358.789 209.015 360.352 209.426 361.783C210.017 360.181 211.033 358.413 212.768 356.835C214.816 354.974 217.098 354.082 218.998 353.665C217.31 353.074 215.408 352.093 213.652 350.469C211.493 348.471 210.341 346.21 209.727 344.336C209.207 346.083 208.208 348.162 206.296 350.034C204.445 351.845 202.353 352.85 200.525 353.406Z" fill="#404040"/>
<path d="M253.745 434.901C253.41 434.901 253.138 434.641 253.138 434.321V401.826C253.138 401.506 253.41 401.246 253.745 401.246C254.081 401.246 254.353 401.506 254.353 401.826V434.321C254.353 434.641 254.081 434.901 253.745 434.901Z" fill="#404040"/>
<path d="M209.193 372.882C208.857 372.882 208.586 372.623 208.586 372.303V363.185C208.586 362.865 208.857 362.605 209.193 362.605C209.529 362.605 209.801 362.865 209.801 363.185V372.303C209.801 372.623 209.529 372.882 209.193 372.882Z" fill="#404040"/>
<path d="M209.193 384.087C208.857 384.087 208.586 383.828 208.586 383.508V377.481C208.586 377.162 208.857 376.902 209.193 376.902C209.529 376.902 209.801 377.162 209.801 377.481V383.508C209.801 383.828 209.529 384.087 209.193 384.087Z" fill="#404040"/>
<path d="M265.086 160.938C264.75 160.938 264.478 160.678 264.478 160.358V148.573C264.478 148.252 264.75 147.993 265.086 147.993C265.422 147.993 265.693 148.252 265.693 148.573V160.358C265.693 160.678 265.422 160.938 265.086 160.938Z" fill="white"/>
<path d="M265.086 169.439C264.75 169.439 264.478 169.18 264.478 168.859V165.768C264.478 165.448 264.75 165.188 265.086 165.188C265.422 165.188 265.693 165.448 265.693 165.768V168.859C265.693 169.18 265.422 169.439 265.086 169.439Z" fill="white"/>
</svg>
