<svg width="36" height="37" viewBox="0 0 36 37" fill="none" xmlns="http://www.w3.org/2000/svg">
<path d="M9 30.6308H12.9154C13.4259 30.6308 13.9333 30.6916 14.4282 30.8131L18.5653 31.8184C19.463 32.0371 20.3982 32.0584 21.3052 31.8822L25.8795 30.9923C27.0878 30.7569 28.1994 30.1783 29.0705 29.3308L32.3068 26.1827C33.2311 25.2851 33.2311 23.8287 32.3068 22.9297C31.4747 22.1202 30.1571 22.0291 29.2157 22.7156L25.4439 25.4674C24.9037 25.8622 24.2465 26.0748 23.5705 26.0748H19.9282L22.2466 26.0747C23.5533 26.0747 24.6118 25.0451 24.6118 23.774V23.3138C24.6118 22.2583 23.8733 21.338 22.8211 21.0829L19.2429 20.2127C18.6606 20.0715 18.0642 20.0001 17.4647 20.0001C16.0175 20.0001 13.3978 21.1983 13.3978 21.1983L9 23.0374M3 22.4001L3 31.1001C3 31.9402 3 32.3602 3.16349 32.6811C3.3073 32.9633 3.53677 33.1928 3.81901 33.3366C4.13988 33.5001 4.55992 33.5001 5.4 33.5001H6.6C7.44008 33.5001 7.86012 33.5001 8.18099 33.3366C8.46323 33.1928 8.6927 32.9633 8.83651 32.6811C9 32.3602 9 31.9402 9 31.1001V22.4001C9 21.56 9 21.14 8.83651 20.8191C8.6927 20.5369 8.46323 20.3074 8.18099 20.1636C7.86012 20.0001 7.44008 20.0001 6.6 20.0001H5.4C4.55992 20.0001 4.13988 20.0001 3.81901 20.1636C3.53677 20.3074 3.3073 20.5369 3.16349 20.8191C3 21.14 3 21.56 3 22.4001ZM25.7871 5.88847C24.8918 4.01518 22.8279 3.02276 20.8207 3.98065C18.8134 4.93853 17.9583 7.21016 18.7987 9.20433C19.3181 10.4368 20.8061 12.8301 21.8671 14.4786C22.2592 15.0878 22.4552 15.3923 22.7415 15.5705C22.9871 15.7233 23.2945 15.8057 23.5836 15.7961C23.9206 15.785 24.2427 15.6192 24.8867 15.2877C26.6299 14.3906 29.1152 13.0619 30.1812 12.2543C31.9061 10.9475 32.3334 8.54545 31.042 6.71945C29.7506 4.89344 27.499 4.71377 25.7871 5.88847Z" stroke="#EE46BC" stroke-width="2" stroke-linecap="round" stroke-linejoin="round"/>
</svg>
